<?xml version="1.0" encoding="UTF-8" standalone="no"?>
<svg width="16px" height="13px" viewBox="0 0 16 13" version="1.1" xmlns="http://www.w3.org/2000/svg" xmlns:xlink="http://www.w3.org/1999/xlink" xmlns:sketch="http://www.bohemiancoding.com/sketch/ns">
    <!-- Generator: Sketch 3.3.2 (12043) - http://www.bohemiancoding.com/sketch -->
    <title>twitter</title>
    <desc>Created with Sketch.</desc>
    <defs></defs>
    <g id="1-0_landing" stroke="none" stroke-width="1" fill="none" fill-rule="evenodd" sketch:type="MSPage">
        <g id="1-2_team" sketch:type="MSArtboardGroup" transform="translate(-171.000000, -2166.000000)" fill="#ffffff">
            <g id="team" sketch:type="MSLayerGroup" transform="translate(0.000000, 760.000000)">
                <g id="3" transform="translate(151.000000, 882.000000)" sketch:type="MSShapeGroup">
                    <path d="M33.6038109,526.773425 C34.2394143,526.393961 34.7232318,525.796304 34.9509107,525.084807 C34.3627403,525.435812 33.698677,525.691951 33.0061539,525.824763 C32.4464434,525.227107 31.6495675,524.857128 30.7673119,524.857128 C29.0692072,524.857128 27.7031342,526.232688 27.7031342,527.921306 C27.7031342,528.158472 27.731594,528.395637 27.7790271,528.623316 C25.2366134,528.490503 22.9693116,527.276216 21.4609392,525.416839 C21.1953139,525.872197 21.043528,526.393961 21.043528,526.963158 C21.043528,528.025659 21.5842653,528.964834 22.4096011,529.515058 C21.9068103,529.496085 21.4324794,529.353786 21.0245548,529.126107 L21.0245548,529.164053 C21.0245548,530.653452 22.0775694,531.886713 23.481589,532.171311 C23.2254503,532.237718 22.9503383,532.275664 22.6752264,532.275664 C22.4760074,532.275664 22.286275,532.256691 22.0965427,532.228231 C22.485494,533.442518 23.6144016,534.324774 24.9615015,534.353233 C23.9084868,535.178569 22.5898468,535.662387 21.1573675,535.662387 C20.9012288,535.662387 20.6640633,535.6529 20.4174112,535.62444 C21.7739977,536.497209 23.3867228,537 25.122774,537 C30.7578253,537 33.8409763,532.332584 33.8409763,528.281798 C33.8409763,528.148985 33.8409763,528.016172 33.8314897,527.88336 C34.4291467,527.446975 34.9509107,526.906238 35.3683219,526.299094 C34.818098,526.53626 34.2204411,526.707019 33.6038109,526.773425 Z" id="twitter"></path>
                </g>
            </g>
        </g>
    </g>
</svg>
