<svg xmlns="http://www.w3.org/2000/svg" viewBox="0 0 300 300"><path fill="#7C7A7A" d="M261.58 49.864l-2.107-2.294C232.083 18.315 193.143 0 150 0c-17.166 0-33.664 2.907-49.038 8.24l-1.562.55C49.188 26.84 11.303 70.95 2.14 124.73c-.01.05-.027.1-.037.15-.033.17-.046.34-.073.512C.702 133.402 0 141.62 0 150c0 35.76 12.586 68.632 33.55 94.435.01.015 1.747 2.11 1.747 2.11C62.835 279.207 104.032 300 150 300c17.37 0 34.058-2.978 49.588-8.434.41-.126.81-.266 1.204-.425 49.27-17.784 86.632-60.672 96.577-113.147.025-.128.05-.255.073-.383C299.115 168.657 300 159.43 300 150c0-38.45-14.548-73.562-38.42-100.136zM150 30c30.85 0 59.016 11.705 80.297 30.903-14.903 20.417-35.74 33.843-58.563 42.503-3.805-8.884-7.605-16.936-11.248-24.113-10.56-20.802-20.93-36.74-29.015-47.862C137.514 30.49 143.7 30 150 30zm-49.264 10.584c8.947 11.182 25.92 34.926 41.948 71.28-42.085 9.028-85.24 6.035-107.548 3.387 10.092-33.29 34.283-60.51 65.6-74.666zM30 150c0-1.705.045-3.4.115-5.087 11.955 1.495 29.682 3.118 50.35 3.118 10.01 0 20.71-.38 31.767-1.34 14.74-1.28 28.634-3.492 41.664-6.58 2.865 8.066 5.62 16.58 8.2 25.56-13.517 3.933-27.477 8.845-41.867 14.746-31.026 12.72-56.323 26.958-70.445 35.512C37.287 196.993 30 174.333 30 150zm120 120c-30.873 0-59.058-11.722-80.345-30.946 20.018-11.762 57.6-31.81 99.783-44.21 4.703 21.642 8.265 45.477 10.066 71.482C170.064 268.722 160.178 270 150 270zm58.678-15.36c-2.107-24.184-5.666-46.482-10.127-66.84 22.087-4.116 44.602-5.34 65.868-1.607-9.268 29.232-29.45 53.648-55.74 68.448zm61.133-97.97c-23.81-4.235-50.07-3.583-78.584 1.922-2.736-9.632-5.644-18.71-8.64-27.25 28.155-10.773 50.94-26.638 67.658-47.224C262.724 103.042 270 125.686 270 150c0 2.238-.066 4.46-.19 6.67z"/></svg>