<?xml version="1.0" standalone="no"?> <!DOCTYPE svg PUBLIC "-//W3C//DTD SVG 1.0//EN" "http://www.w3.org/TR/2001/REC-SVG-20010904/DTD/svg10.dtd" > <svg xmlns="http://www.w3.org/2000/svg" width="100%" height="100%">
<defs >
<font horiz-adv-x="555" ><font-face
    font-family="Publico Headline Web"
    units-per-em="1000"
    panose-1="2 4 8 2 6 5 4 6 2 3"
    ascent="801"
    descent="-199"
    alphabetic="0" />
<missing-glyph horiz-adv-x="500" />
<glyph unicode=" " glyph-name="space" horiz-adv-x="214" />
<glyph unicode="!" glyph-name="exclam" horiz-adv-x="286" d="M143 -7Q108 -7 84 17T60 76Q60 111 84 134T143 158Q159 158 174 152T202 135T221 109T228 76Q228 59 221 44T202 18T175 0T143 -7ZM53 569Q45 603 48 628T65 670T98 695T143 703Q168 703 188 695T222
671T238 629T234 569L159 215H128L53 569Z" />
<glyph unicode="&quot;" glyph-name="quotedbl" horiz-adv-x="388" d="M42 607Q33 634 35 653T48 685T73 702T106 708Q123 708 138 703T164 685T176 654T170 607L118 449H96L42 607ZM218 607Q208 634 210 653T223 685T249 702T282 708Q299 708 314 703T340 685T352
654T345 607L292 449H270L218 607Z" />
<glyph unicode="#" glyph-name="numbersign" horiz-adv-x="523" d="M121 180H30L50 286H142L165 410H75L94 516H186L220 693H273L239 516H354L388 693H441L407 516H498L479 410H386L363 286H454L435 180H342L308 0H255L289 180H174L140 0H87L121 180ZM310 286L333
410H218L195 286H310Z" />
<glyph unicode="$" glyph-name="dollar" horiz-adv-x="523" d="M10 112Q10 147 30 161T79 176Q96 176 110 173T134 159T150 130T159 81Q161 52 174 40T229 25V276Q170 298 131 322T69 374T36 433T26 499Q26 541 41 576T85 638T153 681T240 702V767H283V704Q339
703 378 693T442 666T478 628T489 586Q489 557 469 539T419 521Q378 521 360 543T337 620Q334 646 323 656T283 668V434Q345 409 387 385T454 332T490 272T501 199Q501 159 485 123T439 58T367 11T273 -11V-110H229V-11Q114 -9 62 24T10 112ZM366 137Q366 175 345
205T273 258V26Q318 31 342 60T366 137ZM150 567Q150 547 154 532T169 503T197 477T240 452V668Q197 662 174 635T150 567Z" />
<glyph unicode="%" glyph-name="percent" horiz-adv-x="781" d="M204 344Q170 344 138 354T80 387T40 442T25 520Q25 569 43 604T88 661T148 694T207 704Q239 704 271 693T329 660T371 605T387 526Q387 479 370 445T327 388T268 355T204 344ZM206 378Q224 378
235 384T254 407T265 450T268 519Q268 565 265 595T254 641T234 664T206 671Q191 671 180 665T161 644T149 600T145 527Q145 482 148 454T158 408T177 385T206 378ZM572 -13Q538 -13 506 -2T448 30T408 85T393 163Q393 212 411 247T456 305T516 337T576 348Q608
348 640 337T697 304T739 248T755 170Q755 122 738 88T695 31T636 -2T572 -13ZM574 21Q592 21 603 27T622 50T633 93T636 162Q636 209 633 238T622 285T602 308T574 314Q559 314 548 309T529 287T517 244T513 171Q513 126 516 97T526 51T545 28T574 21ZM612 714H674L147
-50H86L612 714Z" />
<glyph unicode="&amp;" glyph-name="ampersand" horiz-adv-x="734" d="M271 -12Q205 -12 157 3T78 44T33 104T18 177Q18 214 32 243T69 296T124 338T190 370Q167 405 155 439T142 512Q142 553 158 588T203 649T270 690T352 705Q392 705 425 695T483 668T520 625T533
570Q533 540 518 515T479 470T424 432T361 402Q400 348 441 294T524 191Q543 223 552 254T562 306Q562 325 553 333T526 347L498 355V382H721V355L697 348Q669 340 649 318T602 249Q592 230 580 206T552 158Q572 136 593 114T632 72Q646 59 659 49T688 35L715 28V0H484Q474
9 464 20T443 42Q411 19 369 4T271 -12ZM315 41Q348 41 372 50T414 73Q360 133 307 201T209 340Q174 296 174 211Q174 130 213 86T315 41ZM342 428Q378 451 400 483T422 568Q422 617 404 642T353 667Q320 667 301 644T282 579Q282 537 297 502T342 428Z" />
<glyph unicode="&apos;" glyph-name="quotesingle" horiz-adv-x="210" d="M41 607Q31 634 33 653T46 685T72 702T105 708Q122 708 137 703T163 685T175 654T168 607L116 449H94L41 607Z" />
<glyph unicode="(" glyph-name="parenleft" horiz-adv-x="320" d="M289 -141Q248 -113 204 -72T122 24T60 148T35 302Q35 379 59 447T121 572T203 673T289 745L310 726Q276 693 248 650T199 555T168 444T156 322Q156 240 167 175T199 56T247 -41T310 -122L289 -141V-141Z" />
<glyph unicode=")" glyph-name="parenright" horiz-adv-x="320" d="M10 -122Q44 -85 72 -41T121 55T152 170T164 308Q164 448 122 554T10 726L31 745Q72 717 116 674T198 575T260 450T285 302Q285 220 261 151T199 27T117 -71T31 -141L10 -122Z" />
<glyph unicode="*" glyph-name="asterisk" horiz-adv-x="364" d="M82 410Q73 417 68 426T62 447T70 470T95 493L167 539L82 537Q62 535 50 540T30 553T22 573T25 595Q28 605 35 613T53 625T77 625T106 608L172 554L141 634Q133 653 134 666T141 689T158 702T180
707Q191 707 201 703T217 689T224 667T217 634L187 554L253 608Q268 621 281 624T305 625T323 613T334 594Q337 583 336 572T329 553T309 539T277 536L191 539L263 493Q280 482 287 471T295 448T290 427T275 411Q266 405 255 403T234 404T214 418T201 448L179 531L156
448Q151 429 143 419T124 404T102 402T82 410Z" />
<glyph unicode="+" glyph-name="plus" horiz-adv-x="474" d="M205 310H37V367H205V546H269V367H437V310H269V130H205V310Z" />
<glyph unicode="," glyph-name="comma" horiz-adv-x="234" d="M18 -93Q75 -67 101 -37T126 26Q122 22 114 19T96 16Q67 16 49 34T30 86Q30 119 54 138T112 158Q148 158 175 133T203 58Q203 -8 157 -52T26 -115L18 -93Z" />
<glyph unicode="-" glyph-name="hyphen" horiz-adv-x="276" d="M33 339H254L241 239H21L33 339Z" />
<glyph unicode="." glyph-name="period" horiz-adv-x="229" d="M114 -7Q79 -7 55 17T31 76Q31 111 55 134T114 158Q130 158 145 152T172 135T191 109T198 76Q198 59 191 44T173 18T146 0T114 -7Z" />
<glyph unicode="/" glyph-name="slash" horiz-adv-x="385" d="M311 734H368L56 -130H0L311 734Z" />
<glyph unicode="0" glyph-name="zero" horiz-adv-x="686" d="M339 -12Q279 -12 224 8T127 72T59 181T33 338Q33 438 64 508T141 621T243 685T346 705Q402 705 457 684T555 619T626 509T653 351Q653 255 625 187T551 74T450 9T339 -12ZM343 27Q376 27 399 42T438
92T459 187T466 336Q466 436 459 500T436 601T397 652T343 666Q314 666 291 653T253 606T229 510T221 353Q221 257 228 194T249 94T287 42T343 27Z" />
<glyph unicode="1" glyph-name="one" horiz-adv-x="394" d="M22 28L64 35Q77 38 85 41T99 51T106 72T108 108V541L23 547V577Q97 592 160 623T263 701L290 695V108Q290 85 292 72T298 52T311 41T333 35L373 28V0H22V28Z" />
<glyph unicode="2" glyph-name="two" horiz-adv-x="534" d="M14 81Q81 135 130 181T224 277Q249 305 268 332T301 388T321 450T328 525Q328 565 322 592T303 635T274 659T237 666Q205 666 195 655T183 617Q181 557 160 536T96 514Q61 514 43 531T25 581Q25 605
39 627T82 667T153 695T253 705Q309 705 356 693T436 655T489 593T508 504Q508 451 478 402T397 307T279 218T136 134V128H388Q407 128 418 130T439 141T456 165T476 207H505L490 0H14V81Z" />
<glyph unicode="3" glyph-name="three" horiz-adv-x="542" d="M228 -12Q119 -12 66 19T12 106Q12 138 29 155T82 172Q100 172 113 168T137 154T153 127T163 82Q166 65 169 55T178 38T196 30T225 27Q284 27 306 72T329 196Q329 238 322 266T299 310T261 332T205
339H156V382H196Q260 382 288 414T316 527Q316 599 294 632T229 666Q208 666 198 659T186 628Q183 600 179 582T165 552T142 536T106 531Q71 531 54 547T37 592Q37 619 53 640T97 675T164 697T250 705Q304 705 348 694T423 661T471 609T488 539Q488 511 478 485T445
437T388 398T305 371V368Q350 364 388 352T455 318T500 265T516 191Q516 149 499 112T445 48T355 4T228 -12Z" />
<glyph unicode="4" glyph-name="four" horiz-adv-x="588" d="M217 28L253 35Q266 38 274 41T286 51T293 72T295 108V194H13V248L359 693H470V266H572L562 194H470V108Q470 85 472 72T478 52T491 41T513 35L551 28V0H217V28ZM295 266V534H292L86 269V266H295Z" />
<glyph unicode="5" glyph-name="five" horiz-adv-x="529" d="M219 -12Q122 -12 72 20T21 102Q21 131 39 148T92 166Q130 166 149 148T172 72Q175 44 186 36T229 27Q288 27 320 62T352 172Q352 211 340 238T306 282T254 306T187 314Q147 314 120 310T76 299L65
307L107 693H393Q405 693 412 695T426 702T438 718T454 746H484L464 567H142L128 436Q143 441 170 446T245 452Q302 452 349 438T431 396T485 326T505 228Q505 177 485 134T428 58T338 7T219 -12Z" />
<glyph unicode="6" glyph-name="six" horiz-adv-x="600" d="M306 -12Q250 -12 199 6T109 65T47 166T24 313Q24 419 55 493T137 615T251 683T380 705Q461 705 508 680T555 607Q555 577 538 560T484 543Q443 543 426 561T404 626Q401 650 393 658T361 666Q332 666
306 652T259 604T226 514T210 373Q234 389 270 403T359 418Q407 418 447 406T516 368T561 304T577 215Q577 165 559 123T506 51T421 5T306 -12ZM309 27Q336 27 353 37T380 69T393 124T397 206Q397 293 371 326T293 359Q267 359 247 353T209 336V309Q209 233 213
180T228 92T258 43T309 27Z" />
<glyph unicode="7" glyph-name="seven" horiz-adv-x="510" d="M103 0Q122 90 154 168T228 316T320 447T425 566H123Q107 566 97 564T80 553T65 528T47 485H18L36 693H500V617Q447 546 412 474T353 327T316 171T295 0H103V0Z" />
<glyph unicode="8" glyph-name="eight" horiz-adv-x="570" d="M281 -12Q224 -12 177 -1T95 32T41 86T22 160Q22 187 33 211T65 255T113 293T174 324V328Q114 360 83 405T51 508Q51 554 71 590T125 652T203 691T294 705Q337 705 378 696T450 667T501 617T521 545Q521
521 510 500T480 461T437 428T388 400V397Q467 358 507 312T548 198Q548 155 528 117T472 51T387 5T281 -12ZM290 29Q344 29 380 56T417 138Q417 165 405 185T368 225T302 263T206 309Q186 286 169 255T152 172Q152 103 185 66T290 29ZM352 417Q370 438 384 468T398
542Q398 664 286 664Q236 664 207 639T177 568Q177 521 221 488T352 417Z" />
<glyph unicode="9" glyph-name="nine" horiz-adv-x="600" d="M226 -13Q142 -13 94 13T45 88Q45 118 62 135T119 152Q155 152 172 133T198 67Q202 44 210 36T243 27Q278 27 304 41T349 89T377 178T390 318Q365 302 328 287T240 272Q192 272 152 285T84 323T40 387T24
476Q24 527 42 569T96 641T181 687T294 704Q352 704 403 686T492 628T553 527T576 380Q576 278 549 204T474 81T362 10T226 -13ZM304 332Q330 332 351 338T391 355V384Q391 460 387 513T372 601T342 650T291 666Q265 666 248 656T222 624T208 568T204 486Q204 443
210 414T228 366T259 340T304 332Z" />
<glyph unicode=":" glyph-name="colon" horiz-adv-x="236" d="M118 -7Q84 -7 59 17T34 76Q34 110 59 134T118 158Q152 158 176 134T201 76Q201 41 177 17T118 -7ZM118 274Q84 274 59 298T34 357Q34 392 59 415T118 439Q152 439 176 416T201 357Q201 322 177 298T118 274Z" />
<glyph unicode=";" glyph-name="semicolon" horiz-adv-x="237" d="M21 -93Q78 -67 104 -37T129 26Q125 22 117 19T99 16Q70 16 52 34T33 86Q33 119 57 138T114 158Q151 158 178 133T206 58Q206 -8 160 -52T29 -115L21 -93ZM118 274Q84 274 59 298T34 357Q34 392
59 415T118 439Q152 439 176 416T201 357Q201 322 177 298T118 274Z" />
<glyph unicode="&lt;" glyph-name="less" horiz-adv-x="474" d="M36 304V359L436 535V471L103 332L436 193V128L36 304Z" />
<glyph unicode="=" glyph-name="equal" horiz-adv-x="524" d="M37 292H487V235H37V292ZM37 442H487V385H37V442Z" />
<glyph unicode="&gt;" glyph-name="greater" horiz-adv-x="474" d="M38 128V193L371 332L38 471V535L438 359V304L38 128Z" />
<glyph unicode="?" glyph-name="question" horiz-adv-x="475" d="M150 390Q175 398 199 409T243 438T274 482T286 548Q286 614 263 639T207 664Q186 664 181 656T171 622Q165 578 145 558T86 538Q52 538 36 556T20 600Q20 625 34 644T73 677T134 698T214 705Q326
705 384 655T443 519Q443 471 425 434T374 368T298 321T202 292V215H150V390ZM176 -7Q142 -7 118 17T94 76Q94 111 118 134T176 158Q192 158 207 152T235 135T254 109T261 76Q261 59 254 44T235 18T208 0T176 -7Z" />
<glyph unicode="@" glyph-name="at" horiz-adv-x="884" d="M421 -146Q335 -146 263 -123T137 -53T55 60T25 216Q25 311 62 393T163 537T309 634T484 670Q569 670 638 647T757 583T833 483T860 355Q860 270 835 209T771 109T685 52T591 33Q556 33 534 40T500 61T483
92T478 130H474Q449 90 411 63T327 35Q276 35 247 70T217 176Q217 245 241 303T303 404T390 471T488 496Q528 496 558 485T613 456H616L664 492L679 484Q675 475 671 459Q664 433 652 371L615 178Q606 129 613 105T651 80Q674 80 697 95T740 140T772 217T784 326Q784
393 764 449T706 546T612 610T483 633Q409 633 343 606T226 527T146 403T116 239Q116 163 135 101T195 -7T297 -77T443 -102Q516 -102 577 -87T683 -49V-83Q665 -94 637 -105T575 -125T501 -140T421 -146ZM398 115Q420 115 438 134T474 182L521 430Q516 443 508
451T480 460Q457 460 435 436T395 372T366 284T355 185Q355 145 366 130T398 115Z" />
<glyph unicode="A" glyph-name="A" horiz-adv-x="689" d="M-3 28L22 35Q33 38 41 43T56 58T71 87T90 136L291 693H391L598 133Q608 105 615 88T630 59T646 42T665 33L686 28V0H353V28L381 35Q401 40 409 49T417 75Q417 88 412 107T398 148L373 219H174L150 147Q143
126 139 109T135 79Q135 58 145 50T178 35L206 28V0H-3V28ZM188 263H358L275 507H270L188 263Z" />
<glyph unicode="B" glyph-name="B" horiz-adv-x="658" d="M17 28L51 35Q62 38 69 41T81 51T88 72T90 108V585Q90 608 88 621T82 641T70 652T51 658L17 665V693H337Q474 693 539 654T604 529Q604 461 557 424T421 373V368Q526 356 581 317T637 195Q637 99 569 50T366
0H17V28ZM345 44Q370 44 389 51T422 75T442 121T449 194Q449 236 443 264T422 310T384 334T329 342H270V109Q270 88 272 75T283 55T306 46T345 44ZM322 384Q382 384 405 413T429 512Q429 553 423 579T404 621T372 643T327 649Q309 649 294 647T270 643V384H322Z"
/>
<glyph unicode="C" glyph-name="C" horiz-adv-x="624" d="M369 -12Q295 -12 232 10T124 76T53 186T27 341Q27 438 56 507T136 620T253 684T391 705Q449 705 499 698T581 682L592 475H561Q539 522 519 556T481 616Q461 642 439 652T380 663Q336 663 306 647T256
594T228 500T219 361Q219 263 228 200T258 98T308 45T380 30Q424 30 448 43T494 86Q514 115 532 148T570 229H599L588 29Q553 14 498 1T369 -12Z" />
<glyph unicode="D" glyph-name="D" horiz-adv-x="730" d="M17 28L51 35Q62 38 69 41T81 51T88 72T90 108V585Q90 608 88 621T82 641T70 652T51 658L17 665V693H356Q434 693 498 674T607 615T678 511T703 359Q703 273 679 207T608 94T497 24T351 0H17V28ZM341 44Q434
44 473 116T513 335Q513 423 503 483T471 580T416 633T339 649Q316 649 298 647T272 640V135Q272 105 275 88T285 60T306 47T341 44Z" />
<glyph unicode="E" glyph-name="E" horiz-adv-x="618" d="M17 28L51 35Q62 38 69 41T81 51T88 72T90 108V585Q90 608 88 621T82 641T70 652T51 658L17 665V693H566L576 491H545Q526 533 513 557T488 598Q476 616 465 626T441 641T409 647T364 649Q325 649 304
646T272 639V381H299Q326 381 343 382T370 387T387 397T398 411Q409 430 415 447T429 488H459V227H429Q422 250 416 268T398 308Q393 317 388 323T372 332T344 337T299 338H272V144Q272 110 274 91T285 61T315 47T373 44Q403 44 422 46T456 55T480 73T504 104Q518
124 533 157T568 238H600L586 0H17V28Z" />
<glyph unicode="F" glyph-name="F" horiz-adv-x="591" d="M17 28L51 35Q62 38 69 41T81 51T88 72T90 108V585Q90 608 88 621T82 641T70 652T51 658L17 665V693H560L570 486H539Q521 528 508 551T481 596Q470 612 460 622T438 639T407 647T361 649Q326 649 305
646T272 640V370H290Q319 370 337 371T366 376T383 386T394 400Q405 418 411 436T426 482H455V210H426Q418 236 412 256T394 296Q388 306 382 312T366 321T337 326T290 327H272V108Q272 85 273 72T279 52T291 42T312 36L357 28V0H17V28Z" />
<glyph unicode="G" glyph-name="G" horiz-adv-x="690" d="M386 -12Q209 -12 118 78T27 344Q27 441 57 510T140 622T261 685T408 705Q470 705 517 699T597 682L608 472H577Q556 519 539 549T503 606Q491 623 481 634T457 651T428 660T390 663Q299 663 258 591T217
360Q217 269 225 206T252 104T302 48T381 30Q407 30 425 36T457 50V200Q457 223 455 236T449 257T437 267T417 273L383 281V308H687V281L662 274Q652 271 646 268T636 258T631 237T629 200V26Q607 18 578 11T517 -1T451 -9T386 -12Z" />
<glyph unicode="H" glyph-name="H" horiz-adv-x="768" d="M17 28L51 35Q62 38 69 41T81 51T88 72T90 108V585Q90 608 88 621T82 641T70 652T51 658L17 665V693H344V665L311 658Q299 655 292 652T280 641T274 621T272 585V377H496V585Q496 608 495 621T489 641T477
651T457 658L424 665V693H751V665L718 658Q706 655 699 652T687 642T680 621T678 585V108Q678 85 680 72T686 52T698 41T718 35L751 28V0H424V28L457 35Q469 38 476 41T488 52T494 72T496 108V331H272V108Q272 85 273 72T279 52T291 42T311 35L344 28V0H17V28Z"
/>
<glyph unicode="I" glyph-name="I" horiz-adv-x="368" d="M17 28L54 35Q66 38 73 41T85 51T91 72T93 108V585Q93 608 92 621T86 641T74 652T54 658L17 665V693H352V665L315 658Q303 655 295 652T283 642T277 621T275 585V108Q275 85 276 72T282 52T295 41T315
35L352 28V0H17V28Z" />
<glyph unicode="J" glyph-name="J" horiz-adv-x="362" d="M23 -184Q-51 -184 -86 -159T-122 -95Q-122 -64 -104 -47T-53 -29Q-15 -29 3 -48T31 -121Q34 -136 37 -140T50 -144Q68 -144 79 -127T90 -64V585Q90 608 89 621T83 641T71 652T51 658L16 665V693H345V665L311
658Q299 655 292 652T280 642T274 621T272 585V64Q272 9 255 -36T206 -115T127 -166T23 -184Z" />
<glyph unicode="K" glyph-name="K" horiz-adv-x="718" d="M490 0Q435 75 386 158T296 329V347L473 551Q492 573 499 591T507 621Q507 648 474 657L445 665V693H686V665L663 659Q649 655 639 650T617 636T591 612T556 574L428 431Q452 384 480 333T539 233T599
139T655 59Q664 47 670 43T687 35L717 28V0H490ZM17 28L51 35Q62 38 69 41T81 51T88 72T90 108V585Q90 608 88 621T82 641T70 652T51 658L17 665V693H344V665L311 658Q299 655 292 652T280 641T274 621T272 585V108Q272 85 273 72T279 52T291 42T311 35L344 28V0H17V28Z"
/>
<glyph unicode="L" glyph-name="L" horiz-adv-x="597" d="M17 28L51 35Q62 38 69 41T81 51T88 72T90 108V585Q90 608 88 621T82 641T70 652T51 658L17 665V693H351V665L311 657Q299 654 292 651T280 641T274 621T272 585V132Q272 103 274 86T284 60T309 47T359
44Q389 44 408 46T441 55T465 72T487 101Q503 126 519 158T556 245H588L572 0H17V28Z" />
<glyph unicode="M" glyph-name="M" horiz-adv-x="878" d="M17 28L47 35Q59 38 67 41T80 52T88 76T90 118V585Q90 608 88 621T82 641T70 652T51 658L17 665V693H298L440 276H443L582 693H862V665L828 658Q816 655 809 652T797 642T790 621T788 585V108Q788 85 790
72T796 52T808 41T828 35L862 28V0H534V28L567 35Q579 38 586 41T598 51T604 72T606 108V599H602L410 15H345L146 599H142V123Q142 95 143 79T150 54T163 42T187 35L218 28V0H17V28Z" />
<glyph unicode="N" glyph-name="N" horiz-adv-x="698" d="M146 576H142V123Q142 95 143 79T150 54T165 42T189 35L225 28V0H17V28L47 35Q59 38 67 41T80 52T88 76T90 118V585Q90 608 88 621T82 641T70 652T51 658L17 665V693H280L554 289H558V570Q558 598 557
614T550 638T536 651T511 658L473 665V693H683V665L653 658Q641 655 633 652T620 641T612 617T610 575V-1H539L146 576Z" />
<glyph unicode="O" glyph-name="O" horiz-adv-x="728" d="M360 -12Q295 -12 235 9T129 73T54 182T26 338Q26 437 57 506T137 620T247 684T368 705Q432 705 492 685T599 623T674 514T702 354Q702 255 671 185T591 72T481 8T360 -12ZM366 30Q403 30 430 44T476 92T503
185T512 332Q512 420 504 482T478 585T432 644T362 663Q326 663 299 649T253 600T225 506T216 359Q216 272 223 210T249 107T295 49T366 30Z" />
<glyph unicode="P" glyph-name="P" horiz-adv-x="643" d="M17 28L51 35Q62 38 69 41T81 51T88 72T90 108V585Q90 608 88 621T82 641T71 651T54 657L17 665V693H346Q484 693 554 644T625 489Q625 446 610 407T563 339T485 292T377 274Q348 274 329 278T301 286V317Q339
317 365 324T408 351T432 401T440 482Q440 531 435 563T417 615T384 641T334 649Q315 649 298 647T272 642V108Q272 86 273 73T279 53T291 43T312 37L356 28V0H17V28Z" />
<glyph unicode="Q" glyph-name="Q" horiz-adv-x="728" d="M591 -174Q533 -174 489 -159T398 -109Q368 -89 332 -60T257 6Q207 19 165 46T92 114T44 211T26 338Q26 437 57 506T137 620T247 684T368 705Q432 705 492 685T599 623T674 514T702 354Q702 278 684 221T634
124T561 57T472 17V14Q492 -4 515 -22T564 -57Q600 -80 628 -88T682 -96Q705 -96 728 -89T765 -76V-103Q755 -114 740 -126T703 -149T653 -167T591 -174ZM366 28Q403 28 430 42T476 92T503 185T512 332Q512 420 504 482T478 585T432 645T362 664Q326 664 299 650T253
600T225 506T216 359Q216 272 223 209T249 106T295 47T366 28Z" />
<glyph unicode="R" glyph-name="R" horiz-adv-x="704" d="M17 28L51 35Q62 38 69 41T81 51T88 72T90 108V585Q90 608 88 621T82 641T70 652T51 658L17 665V693H345Q493 693 559 647T625 510Q625 445 592 405T489 343V340Q504 307 524 269T565 194T609 121T653
58Q661 47 668 43T691 33L707 28V0H485Q464 29 442 66T398 145T357 227T324 303Q321 303 313 303T296 303T280 303T271 304V108Q271 85 272 72T278 52T290 41T309 35L343 28V0H17V28ZM318 342Q350 342 373 349T411 375T433 422T441 496Q441 582 418 615T337 649Q290
649 271 642V346Q275 345 287 344T318 342Z" />
<glyph unicode="S" glyph-name="S" horiz-adv-x="528" d="M240 -12Q170 -12 118 -3T36 20L24 213H56Q77 172 94 143T131 86Q143 69 155 58T181 41T211 33T249 30Q308 30 336 59T364 136Q364 158 358 176T334 210T289 243T216 276Q162 297 126 319T69 369T38 427T29
497Q29 543 47 581T97 646T175 689T277 705Q342 705 383 699T453 681L463 510H432Q422 529 414 544T398 571T382 595T362 620Q352 632 343 640T324 654T299 661T264 664Q212 664 185 640T158 570Q158 549 163 533T182 502T222 473T293 442Q351 419 391 396T456
347T492 289T504 221Q504 173 487 131T436 57T353 7T240 -12Z" />
<glyph unicode="T" glyph-name="T" horiz-adv-x="634" d="M148 28L185 35Q198 38 206 41T218 51T224 72T226 108V649H216Q193 649 179 648T153 641T133 627T114 603Q96 577 82 546T45 462H13L21 693H613L621 462H590Q568 514 553 545T520 603Q509 618 501 627T482
641T456 647T418 649H408V108Q408 85 409 72T415 52T427 41T449 35L486 28V0H148V28Z" />
<glyph unicode="U" glyph-name="U" horiz-adv-x="703" d="M373 -12Q310 -12 257 0T165 40T106 112T84 222V585Q84 608 82 621T76 641T64 652T44 658L10 665V693H338V665L305 658Q293 655 286 652T274 642T268 621T266 585V202Q266 124 301 89T421 53Q500 53 534
96T569 216V570Q569 598 568 614T561 638T546 651T521 658L482 665V693H693V665L662 658Q651 655 643 652T630 641T623 617T621 575V209Q621 163 607 123T562 52T484 5T373 -12Z" />
<glyph unicode="V" glyph-name="V" horiz-adv-x="675" d="M87 560Q78 585 71 602T56 631T41 650T20 660L-3 665V693H329V665L301 658Q266 650 266 619Q266 606 271 587T285 545L408 187H413L527 544Q542 590 542 616Q542 635 533 644T504 658L473 665V693H678V665L653
658Q642 655 634 649T619 631T606 601T590 557L397 0H298L87 560Z" />
<glyph unicode="W" glyph-name="W" horiz-adv-x="1013" d="M84 570Q75 594 69 610T57 637T43 652T24 660L-1 665V693H322V665L297 659Q280 654 272 646T264 621Q264 606 269 586T281 545L390 196H395L489 484L458 584Q446 621 434 637T401 659L378 665V693H701V665L665
658Q634 650 634 617Q634 603 638 585T649 545L758 196H763L864 546Q870 566 873 584T877 617Q877 636 868 645T841 659L809 665V693H1014V665L991 660Q967 653 954 628T921 546L749 0H645L518 405H514L380 0H274L84 570Z" />
<glyph unicode="X" glyph-name="X" horiz-adv-x="701" d="M10 28L28 32Q40 36 50 41T71 55T94 79T122 120L261 334L107 586Q96 603 89 614T74 634T58 648T37 658L16 665V693H368V665L332 658Q303 650 303 626Q303 615 309 600T330 560L412 416H415L497 563Q509
585 513 600T518 627Q518 641 509 648T482 659L453 665V693H670V665L646 659Q635 656 627 651T609 636T590 610T563 569L442 373L602 109Q616 86 626 73T643 51T657 40T673 33L692 28V0H344V28L379 34Q410 40 410 66Q410 77 403 93T383 132L290 293H287L195 137Q167
91 167 67Q167 40 197 34L228 28V0H10V28Z" />
<glyph unicode="Y" glyph-name="Y" horiz-adv-x="648" d="M166 28L203 35Q216 38 224 41T237 51T242 72T244 108V285L88 573Q75 597 66 612T50 636T34 651T16 659L-4 665V693H338V665L309 659Q271 649 271 618Q271 607 276 593T289 561L394 347H399L491 554Q502
576 505 590T508 617Q508 633 499 643T467 658L440 665V693H652V665L631 659Q620 655 611 649T593 631T575 603T554 562L426 291V108Q426 85 427 72T433 52T446 41T468 35L505 28V0H166V28Z" />
<glyph unicode="Z" glyph-name="Z" horiz-adv-x="579" d="M18 44L368 649V652H332Q281 652 250 651T200 645T170 631T148 606Q138 592 130 579T114 551T96 517T75 471H45L57 693H565V649L216 47V43H258Q312 43 345 45T398 53T430 69T456 97Q467 112 476 127T494
159T512 197T533 244H565L549 0H18V44Z" />
<glyph unicode="[" glyph-name="bracketleft" horiz-adv-x="338" d="M87 734H316V706L250 699Q231 697 219 694T201 683T192 662T190 624V-20Q190 -43 192 -57T200 -78T219 -89T250 -95L316 -102V-130H87V734Z" />
<glyph unicode="\" glyph-name="backslash" horiz-adv-x="385" d="M17 734H73L385 -130H328L17 734Z" />
<glyph unicode="]" glyph-name="bracketright" horiz-adv-x="338" d="M22 -102L88 -95Q107 -93 119 -90T137 -79T146 -57T149 -20V624Q149 648 147 661T138 682T119 693T88 699L22 706V734H251V-130H22V-102Z" />
<glyph unicode="^" glyph-name="asciicircum" horiz-adv-x="465" d="M58 459L205 697H259L407 459L391 442L231 579L73 442L58 459Z" />
<glyph unicode="_" glyph-name="underscore" horiz-adv-x="352" d="M-3 -113H355V-169H-3V-113Z" />
<glyph unicode="`" glyph-name="grave" horiz-adv-x="495" d="M172 621Q146 627 136 643T125 677Q125 700 140 718T179 737Q206 737 232 713L363 595L355 577L172 621Z" />
<glyph unicode="a" glyph-name="a" horiz-adv-x="532" d="M167 -12Q96 -12 57 22T17 120Q17 153 29 177T64 220T121 251T197 274L298 299V386Q298 448 283 471T227 494Q204 494 196 487T185 458Q181 410 164 390T107 370Q74 370 57 386T39 432Q39 480 97 506T260
533Q354 533 406 502T458 396V119Q458 91 462 78T481 57Q491 52 504 50T528 47V23Q514 12 485 0T411 -12Q324 -12 307 49H302Q283 25 250 7T167 -12ZM242 59Q263 59 277 67T298 88V248L252 244Q214 241 194 220T174 145Q174 96 193 78T242 59Z" />
<glyph unicode="b" glyph-name="b" horiz-adv-x="605" d="M286 -12Q212 -12 158 2T59 45V627Q59 645 58 656T54 674T45 685T28 695L-9 713V736L211 756L222 748Q221 734 220 716Q219 700 219 679T219 631V563Q219 542 219 525T217 494Q216 479 216 466H221Q250
492 291 512T387 533Q422 533 457 521T519 479T564 403T582 287Q582 209 560 153T499 60T405 6T286 -12ZM298 28Q328 28 350 37T388 72T410 140T418 253Q418 307 410 343T387 403T350 436T299 446Q270 446 250 440T219 428V64Q232 48 252 38T298 28Z" />
<glyph unicode="c" glyph-name="c" horiz-adv-x="496" d="M270 -12Q209 -12 163 7T84 61T36 146T19 258Q19 336 47 389T118 474T216 519T323 533Q398 533 440 510T482 440Q482 409 463 390T411 370Q372 370 357 393T339 448Q335 476 328 484T295 492Q274 492 253
485T216 456T189 398T179 301Q179 191 215 133T335 74Q382 74 417 85T480 111V79Q469 65 450 50T405 20T344 -3T270 -12Z" />
<glyph unicode="d" glyph-name="d" horiz-adv-x="617" d="M219 -12Q182 -12 147 2T84 46T40 125T23 242Q23 320 46 375T109 465T201 517T313 533Q333 533 353 530T389 522Q388 533 388 545Q387 556 387 568T387 595V627Q387 645 386 655T382 671T372 682T356 691L315
713V736L539 756L549 748Q548 734 547 716Q546 700 546 679T546 631V120Q546 102 547 91T551 73T561 62T579 53L608 41V17L401 -12L390 -4L392 53H388Q356 25 314 7T219 -12ZM303 67Q334 67 354 75T387 89V451Q374 467 356 480T309 493Q282 493 260 482T221 446T196
379T187 275Q187 216 194 176T216 112T252 78T303 67Z" />
<glyph unicode="e" glyph-name="e" horiz-adv-x="526" d="M280 -12Q149 -12 84 61T19 262Q19 327 41 377T100 462T183 515T280 533Q332 533 373 520T444 476T489 399T507 283H177Q178 221 190 181T223 117T275 84T345 74Q392 74 427 85T492 112V79Q479 64 459
48T411 19T351 -3T280 -12ZM272 495Q253 495 237 486T207 455T186 401T177 321L348 330Q348 375 345 406T333 457T309 486T272 495Z" />
<glyph unicode="f" glyph-name="f" horiz-adv-x="352" d="M11 27L37 34Q49 37 56 40T68 50T73 65T74 91V460H4V485L74 520V547Q74 648 141 704T325 761Q385 761 418 741T451 681Q451 655 436 640T391 625Q357 625 340 639T320 693Q318 712 314 717T301 722Q287
722 275 718T254 701T239 669T233 618V519H349L335 460H233V93Q233 75 234 65T238 48T249 40T268 35L306 27V0H11V27Z" />
<glyph unicode="g" glyph-name="g" horiz-adv-x="527" d="M214 -211Q102 -211 45 -181T-13 -94Q-13 -59 19 -33T113 7V11Q71 20 49 45T27 107Q27 128 34 146T53 178T78 205T104 226V230Q68 248 46 280T24 358Q24 401 41 433T87 488T156 521T239 533Q275 533 304
527T362 509Q385 530 414 544T476 559Q504 559 521 546T539 505Q539 482 528 465T490 448Q467 448 457 457T439 484Q432 498 417 498T384 489V486Q413 469 433 440T454 371Q454 328 437 296T391 242T322 209T239 198Q182 198 136 215Q128 208 121 196T114 171Q114
156 125 147T164 137H339Q375 137 405 131T459 109T495 67T508 2Q508 -41 490 -79T435 -147T343 -194T214 -211ZM235 -172Q323 -172 364 -144T405 -67Q405 -34 385 -18T317 -1H149Q135 -8 122 -26T108 -75Q108 -120 137 -146T235 -172ZM239 237Q274 237 290 263T306
361Q306 439 290 467T239 495Q204 495 188 468T172 369Q172 330 176 305T188 264T209 243T239 237Z" />
<glyph unicode="h" glyph-name="h" horiz-adv-x="627" d="M11 27L37 34Q49 37 56 40T68 50T73 65T74 91V627Q74 645 73 656T69 674T60 685T43 695L6 713V736L226 756L237 748Q236 733 235 715Q234 699 234 678T233 631V563Q233 542 233 525T231 493Q230 477 230
464H235Q276 492 322 512T424 533Q488 533 521 500T555 399V91Q555 74 556 65T561 49T572 40T591 34L617 27V0H338V27L362 33Q373 36 379 39T389 47T394 63T395 91V360Q395 406 378 423T326 440Q300 440 275 436T233 427V91Q233 73 234 63T238 47T248 39T266 33L290
27V0H11V27Z" />
<glyph unicode="i" glyph-name="i" horiz-adv-x="305" d="M11 27L37 34Q49 37 56 40T68 50T73 65T74 91V402Q74 418 73 427T68 443T58 455T41 467L8 489V509L227 533L237 526Q235 503 234 475T233 411V91Q233 74 234 64T239 49T250 40T270 34L296 27V0H11V27ZM149
582Q112 582 87 605T61 664Q61 701 86 724T149 747Q186 747 211 724T237 664Q237 628 212 605T149 582Z" />
<glyph unicode="j" glyph-name="j" horiz-adv-x="300" d="M16 -212Q-51 -212 -83 -186T-116 -120Q-116 -91 -98 -76T-51 -61Q-16 -61 0 -78T21 -145Q23 -162 26 -167T37 -172Q74 -172 74 -112V402Q74 418 73 427T68 443T58 455T41 467L8 489V509L227 533L237 526Q235
503 234 475T233 411V7Q233 -47 217 -87T172 -156T103 -198T16 -212ZM149 582Q111 582 86 605T61 664Q61 701 86 724T149 747Q186 747 211 724T236 664Q236 628 211 605T149 582Z" />
<glyph unicode="k" glyph-name="k" horiz-adv-x="594" d="M400 0Q354 63 316 126T248 246V262L361 384Q386 412 393 428T401 458Q401 479 364 488L349 493V519H568V493L547 487Q537 484 529 481T511 471T489 453T459 425L368 332Q387 296 409 259T454 185T498
118T539 62Q557 38 577 33L594 27V0H400ZM11 27L37 34Q49 37 56 40T68 50T73 65T74 91V627Q74 645 73 656T69 674T60 685T43 695L6 713V736L226 756L237 748Q236 733 235 715Q234 699 234 678T233 631V91Q233 74 234 64T238 48T248 39T265 33L288 27V0H11V27Z"
/>
<glyph unicode="l" glyph-name="l" horiz-adv-x="309" d="M11 27L37 34Q50 37 58 40T70 50T75 65T76 91V627Q76 645 75 656T71 673T61 684T43 695L6 713V736L228 756L239 748Q238 733 237 715Q236 699 236 678T235 631V91Q235 74 236 65T241 49T253 40T274 34L300
27V0H11V27Z" />
<glyph unicode="m" glyph-name="m" horiz-adv-x="924" d="M11 27L37 34Q49 37 56 40T68 50T73 65T74 91V402Q74 418 73 427T68 443T58 455T41 467L8 489V509L219 533L230 525L228 462H232Q272 491 317 512T416 533Q463 533 491 515T534 461H539Q580 490 625 511T728
533Q787 533 819 500T852 399V91Q852 74 853 65T858 49T869 40T888 34L914 27V0H638V27L661 33Q671 36 677 39T687 47T691 63T692 91V360Q692 405 679 422T630 440Q604 440 581 436T541 426Q542 420 542 412T543 392V91Q543 73 544 63T548 48T557 39T573 33L596
27V0H329V27L352 33Q362 36 368 39T377 47T382 63T383 91V360Q383 405 370 422T321 440Q295 440 273 436T233 427V91Q233 73 234 63T238 47T248 39T264 33L287 27V0H11V27Z" />
<glyph unicode="n" glyph-name="n" horiz-adv-x="627" d="M11 27L37 34Q49 37 56 40T68 50T73 65T74 91V402Q74 418 73 427T68 443T58 455T41 467L8 489V509L219 533L230 526L228 462H232Q272 491 320 512T424 533Q488 533 521 500T555 399V91Q555 74 556 65T561
49T572 40T591 34L617 27V0H338V27L362 33Q373 36 379 39T389 47T394 63T395 91V360Q395 406 378 423T326 440Q300 440 275 436T233 427V91Q233 73 234 63T238 47T248 39T266 33L290 27V0H11V27Z" />
<glyph unicode="o" glyph-name="o" horiz-adv-x="581" d="M290 -12Q236 -12 187 4T100 55T41 139T19 259Q19 331 42 383T104 468T190 517T290 533Q344 533 393 517T480 467T540 383T562 264Q562 192 539 140T478 54T391 4T290 -12ZM293 27Q315 27 334 35T366 68T386
137T394 254Q394 330 387 377T366 450T332 485T287 494Q263 494 245 484T214 450T194 383T187 276Q187 199 193 151T213 75T246 37T293 27Z" />
<glyph unicode="p" glyph-name="p" horiz-adv-x="620" d="M11 -179L37 -172Q49 -169 56 -166T68 -156T73 -141T74 -114V402Q74 418 73 427T68 443T58 455T41 467L8 489V509L219 533L230 526L228 464H233Q265 491 306 512T401 533Q437 533 472 521T534 479T579
403T597 287Q597 209 576 153T516 60T424 6T308 -12Q292 -12 271 -10T232 -2V-19Q232 -27 232 -38T233 -63V-114Q233 -131 234 -141T238 -157T249 -165T268 -171L303 -179V-206H11V-179ZM312 28Q342 28 364 37T402 72T425 140T433 253Q433 307 425 343T402 403T365
436T314 446Q284 446 265 440T233 428V64Q247 48 266 38T312 28Z" />
<glyph unicode="q" glyph-name="q" horiz-adv-x="609" d="M317 -179L352 -171Q364 -168 371 -166T381 -157T386 -141T387 -114V-27Q387 -10 387 4T389 30Q390 42 392 53H387Q355 25 314 7T219 -12Q182 -12 147 2T84 46T40 125T23 242Q23 320 46 375T109 465T201
517T313 533Q369 533 406 521T477 490H484L529 533L546 526V-114Q546 -131 547 -140T552 -156T563 -165T583 -172L609 -179V-206H317V-179ZM303 67Q334 67 354 75T387 89V457Q374 470 355 481T309 493Q282 493 260 482T221 446T196 379T187 275Q187 216 194 176T216
112T252 78T303 67Z" />
<glyph unicode="r" glyph-name="r" horiz-adv-x="463" d="M11 27L37 34Q49 37 56 40T68 50T73 65T74 91V402Q74 418 73 427T68 443T58 455T41 467L8 489V509L219 533L230 525L228 456H232Q244 468 260 482T295 507T335 525T378 533Q414 533 434 514T455 458Q455
422 435 403T386 383Q369 383 358 385T338 393T323 407T309 428Q304 436 300 438T288 441Q274 441 259 433T233 415V91Q233 73 234 63T238 47T249 39T267 34L300 27V0H11V27Z" />
<glyph unicode="s" glyph-name="s" horiz-adv-x="432" d="M188 -12Q144 -12 103 -6T31 9L24 165H52Q68 135 83 112T117 66Q132 47 152 38T204 28Q240 28 263 46T287 99Q287 116 281 129T261 154T224 176T168 200Q100 225 62 262T24 365Q24 401 38 431T79 484T146
520T237 533Q280 533 316 528T374 514L380 378H353Q338 405 325 425T296 462Q279 481 263 487T219 494Q187 494 168 477T148 429Q148 415 152 403T167 380T198 359T247 337Q337 304 375 265T413 167Q413 88 356 38T188 -12Z" />
<glyph unicode="t" glyph-name="t" horiz-adv-x="365" d="M202 -12Q134 -12 99 20T63 126V460H0V484Q59 507 102 549T166 652H223V519H356L343 460H223V136Q223 98 236 82T288 66Q306 66 326 69T360 75V47Q351 39 337 29T304 9T259 -6T202 -12Z" />
<glyph unicode="u" glyph-name="u" horiz-adv-x="624" d="M203 -12Q143 -12 108 21T72 121V407Q72 423 71 432T67 448T58 459T41 470L6 490V511L220 533L232 524V160Q232 115 249 97T300 78Q327 78 351 85T394 98V407Q394 423 393 432T389 448T380 459T362 470L328
490V511L541 533L553 524V120Q553 102 554 91T558 73T568 62T586 53L615 41V17L408 -12L397 -4L399 63H394Q354 34 308 11T203 -12Z" />
<glyph unicode="v" glyph-name="v" horiz-adv-x="556" d="M74 408Q65 429 59 443T45 466T31 479T14 487L-5 493V519H296V493L269 486Q253 481 246 473T238 445Q238 434 241 421T251 391L335 160H340L421 391Q434 426 434 447Q434 464 427 472T403 486L376 493V519H561V493L542
487Q532 484 525 479T511 464T497 438T480 397L325 0H240L74 408Z" />
<glyph unicode="w" glyph-name="w" horiz-adv-x="840" d="M74 408Q66 430 59 444T46 466T32 479T14 487L-5 493V519H277V493L255 487Q230 480 230 456Q230 445 234 429T246 391L320 160H326L400 375L389 408Q381 430 375 444T364 467T352 480T337 487L317 493V519H596V493L569
486Q541 479 541 447Q541 427 553 391L629 160H634L706 391Q712 411 715 424T718 448Q718 478 687 486L660 493V519H845V493L827 487Q817 484 810 479T795 464T781 438T764 397L620 0H534L426 308H423L311 0H226L74 408Z" />
<glyph unicode="x" glyph-name="x" horiz-adv-x="587" d="M9 27L31 32Q43 35 52 40T70 53T90 75T113 107L211 247L95 417Q80 438 70 451T53 471T38 482T21 489L7 493V519H309V493L288 488Q274 485 266 478T258 460Q258 443 278 412L342 316H345L391 398Q403 420
407 433T412 458Q412 470 405 476T381 488L359 493V519H556V493L536 487Q514 482 495 464T451 407L369 280L493 103Q507 83 516 71T532 51T548 39T568 30L581 27V0H279V27L302 31Q329 37 329 58Q329 69 323 81T303 114L237 212H234L181 124Q167 101 161 86T155
60Q155 48 162 42T189 31L209 27V0H9V27Z" />
<glyph unicode="y" glyph-name="y" horiz-adv-x="558" d="M122 -208Q77 -208 48 -188T19 -134Q19 -106 36 -91T82 -75Q112 -75 126 -87T149 -126Q154 -146 168 -146Q184 -146 202 -124T246 -42L257 -16L71 407Q60 431 53 445T40 468T28 480T14 487L-4 493V519H291V493L264
486Q249 481 241 473T233 447Q233 425 247 391L335 168H339L423 391Q437 428 437 451Q437 466 429 473T405 486L377 493V519H563V493L540 485Q531 482 525 477T512 463T499 438T482 397L296 -51Q281 -86 266 -115T231 -164T185 -196T122 -208Z" />
<glyph unicode="z" glyph-name="z" horiz-adv-x="489" d="M12 43L297 473V477H249Q222 477 204 476T174 472T153 463T135 447Q115 426 101 403T65 342H38L49 519H474V479L190 46V42H239Q273 42 295 43T332 49T357 61T376 80Q394 103 410 128T444 184H472L456 0H12V43Z" />
<glyph unicode="{" glyph-name="braceleft" horiz-adv-x="360" d="M335 -129Q263 -125 219 -114T149 -87T116 -50T107 -3Q107 17 114 50T129 119T145 185T152 231Q152 242 148 251T131 267T98 278T42 285V323Q76 325 97 329T131 341T147 357T152 377Q152 392 145
422T130 488T114 556T107 609Q107 635 115 656T149 694T218 720T335 736V706Q297 701 275 696T241 681T226 657T222 618Q222 594 225 566T232 510T239 455T242 410Q242 388 236 372T215 343T173 321T105 306V302Q148 296 175 288T217 267T237 238T242 199Q242 179
239 153T232 98T225 41T222 -12Q222 -36 225 -50T241 -74T275 -88T335 -99V-129V-129Z" />
<glyph unicode="|" glyph-name="bar" horiz-adv-x="222" d="M85 734H137V-130H85V734Z" />
<glyph unicode="}" glyph-name="braceright" horiz-adv-x="360" d="M39 -99Q76 -94 98 -89T133 -74T148 -51T152 -12Q152 12 149 40T142 97T135 152T131 198Q131 220 137 236T158 265T201 287T269 302V306Q226 312 199 320T157 341T137 370T131 409Q131 429 134
455T141 509T148 566T152 618Q152 642 149 656T133 680T99 695T39 706V736Q111 731 155 721T225 694T258 657T267 609Q267 589 260 556T245 488T229 423T222 377Q222 366 226 357T242 341T275 330T332 323V285Q298 283 277 279T243 267T227 251T222 231Q222 216
229 185T244 119T260 51T267 -3Q267 -29 259 -50T225 -87T156 -114T39 -129V-99Z" />
<glyph unicode="~" glyph-name="asciitilde" horiz-adv-x="387" d="M29 244Q40 271 50 293T71 330T95 353T126 362Q143 362 164 357T206 345T248 333T284 327Q299 327 310 336T336 369L361 357Q350 330 341 308T320 271T296 247T264 238Q247 238 226 243T183 255T141
267T105 273Q90 273 79 264T54 231L29 244Z" />
<glyph unicode="&#xa0;" glyph-name="uni00A0" horiz-adv-x="214" />
<glyph unicode="&#xa1;" glyph-name="exclamdown" horiz-adv-x="286" d="M142 451Q107 451 83 474T59 534Q59 550 65 565T83 591T109 609T142 616Q158 616 173 610T200 592T219 565T226 534Q226 498 201 475T142 451ZM142 -93Q117 -93 97 -85T63 -61T47 -20T52
40L126 394H158L232 40Q240 5 237 -20T220 -61T187 -85T142 -93Z" />
<glyph unicode="&#xa2;" glyph-name="cent" horiz-adv-x="497" d="M267 596H309V533H324Q400 533 442 510T485 440Q485 409 467 390T417 371Q378 371 365 391T347 443Q344 469 337 479T309 492V73Q314 72 319 72T331 72Q384 72 419 84T482 111V79Q472 67 457 53T420
26T371 3T309 -10V-110H267V-12Q149 -8 84 65T19 262Q19 328 40 376T96 456T175 505T267 529V596ZM180 301Q180 210 200 157T267 83V488Q250 483 234 472T206 439T187 384T180 301Z" />
<glyph unicode="&#xa3;" glyph-name="sterling" horiz-adv-x="542" d="M32 383H91Q83 412 77 441T71 499Q71 544 88 582T138 647T219 689T329 705Q428 705 474 675T521 594Q521 562 502 545T451 528Q409 528 393 552T368 621Q365 636 362 645T355 658T344 664T327
666Q290 666 270 639T250 543Q250 511 253 468T260 383H409V337H262V324Q262 258 226 211T123 128V122H410Q425 122 435 124T455 135T472 158T490 201H519L500 0H18V85Q68 117 95 152T123 242Q123 262 118 286T105 337H32V383Z" />
<glyph unicode="&#xa5;" glyph-name="yen" horiz-adv-x="636" d="M60 352H217L97 573Q84 597 75 612T59 637T44 651T27 659L7 665V693H344V665L318 659Q280 651 280 618Q280 598 298 561L385 375H390L466 554Q484 596 484 618Q484 635 475 643T443 659L421 665V693H625V665L605
659Q593 655 585 649T569 632T553 604T532 562L432 352H589V306H417V236H589V190H417V108Q417 85 418 72T424 52T437 41T459 35L496 28V0H157V28L194 35Q207 38 215 41T228 51T234 72T236 108V190H60V236H236V306H60V352Z" />
<glyph unicode="&#xa6;" glyph-name="brokenbar" horiz-adv-x="222" d="M85 257H137V-130H85V257ZM85 734H137V325H85V734Z" />
<glyph unicode="&#xa7;" glyph-name="section" horiz-adv-x="577" d="M260 -204Q177 -204 137 -176T96 -105Q96 -78 112 -63T158 -48Q192 -48 207 -66T226 -124Q229 -150 239 -158T278 -167Q306 -167 326 -152T347 -99Q347 -80 341 -65T317 -33T269 8T188 67Q145
98 114 124T62 175T31 225T21 283Q21 314 30 338T56 382T95 417T142 446Q117 484 117 532Q117 568 130 599T169 653T231 689T313 702Q396 702 437 676T478 606Q478 584 463 567T416 549Q381 549 367 567T347 627Q345 650 335 657T298 665Q271 665 250 648T228 594Q228
576 234 561T257 529T305 489T386 430Q437 394 470 367T522 314T549 265T557 210Q557 182 548 158T522 114T484 77T440 47Q460 12 460 -29Q460 -69 445 -101T403 -156T340 -191T260 -204ZM417 78Q450 102 450 144Q450 159 445 173T423 204T378 244T303 300Q256
333 221 361T162 418Q143 405 135 390T126 352Q126 336 132 322T155 291T200 252T270 199Q319 164 356 135T417 78Z" />
<glyph unicode="&#xa8;" glyph-name="dieresis" horiz-adv-x="500" d="M147 576Q115 576 93 597T70 651Q70 684 92 705T147 726Q180 726 202 705T225 651Q225 618 203 597T147 576ZM353 576Q320 576 298 597T275 651Q275 684 297 705T353 726Q385 726 407 705T430
651Q430 618 408 597T353 576Z" />
<glyph unicode="&#xa9;" glyph-name="copyright" horiz-adv-x="788" d="M399 133Q352 133 313 145T246 184T201 251T185 345Q185 405 203 446T252 514T324 553T410 565Q450 565 482 560T535 549L540 424H517Q500 453 490 472T464 509Q451 525 440 530T407 536Q357
536 337 492T317 358Q317 304 323 267T341 206T371 172T413 162Q433 162 447 169T474 193Q487 211 498 234T523 287H547L539 157Q517 149 482 141T399 133ZM393 -17Q317 -17 252 11T139 89T64 204T36 344Q36 418 63 483T139 597T252 674T393 703Q468 703 533 675T647
598T724 484T752 344Q752 270 724 204T648 89T534 12T393 -17ZM393 25Q460 25 517 50T615 118T679 220T702 344Q702 410 679 467T615 568T517 637T393 662Q325 662 269 637T171 569T107 468T84 344Q84 278 107 220T171 119T268 50T393 25Z" />
<glyph unicode="&#xaa;" glyph-name="ordfeminine" horiz-adv-x="445" d="M140 262Q82 262 50 290T17 369Q17 421 55 449T164 495L247 516V576Q247 629 235 647T189 665Q171 665 166 658T158 633Q153 595 139 578T91 561Q64 561 49 574T34 612Q34 651 81 675T216
700Q293 700 338 673T383 582V371Q383 348 386 337T402 321Q410 317 421 315T441 313V291Q428 283 404 273T341 263Q268 263 253 311H250Q234 292 207 277T140 262ZM201 324Q218 324 229 330T247 346V471L209 468Q178 465 165 449T151 388Q151 351 164 338T201
324Z" />
<glyph unicode="&#xab;" glyph-name="guillemotleft" horiz-adv-x="454" d="M29 243V262L202 460H237L154 254L237 45H202L29 243ZM211 243V262L384 460H418L336 254L418 45H384L211 243Z" />
<glyph unicode="&#xae;" glyph-name="registered" horiz-adv-x="395" d="M197 336Q159 336 127 350T71 389T34 447T20 518Q20 556 33 589T70 647T126 686T197 700Q234 700 266 686T323 647T361 589T375 518Q375 480 361 447T323 390T267 351T197 336ZM197 361Q230
361 257 373T304 407T335 457T346 518Q346 551 335 579T304 629T257 662T197 675Q164 675 137 663T90 629T60 580T49 518Q49 486 59 458T89 408T136 374T197 361ZM101 439L111 441Q118 443 120 446T122 461V581Q122 594 120 596T111 601L101 603V618H196Q241 618
260 606T279 567Q279 530 243 520V518Q251 500 261 482T282 448Q287 443 294 441L300 439V424H235Q222 443 212 464T193 504H177V461Q177 449 179 446T188 441L198 439V424H101V439ZM191 522Q209 522 216 531T223 562Q223 583 216 592T194 601Q190 601 185 601T177
600V522H191Z" />
<glyph unicode="&#xaf;" glyph-name="macron" horiz-adv-x="500" d="M122 678H378V605H122V678Z" />
<glyph unicode="&#xb0;" glyph-name="degree" horiz-adv-x="304" d="M152 456Q125 456 103 466T64 492T38 531T29 580Q29 605 38 627T63 666T102 693T152 703Q179 703 201 693T240 667T266 628T275 580Q275 554 266 532T241 493T202 466T152 456ZM152 496Q187
496 208 520T229 580Q229 614 208 638T152 663Q117 663 96 639T75 580Q75 545 96 521T152 496Z" />
<glyph unicode="&#xb1;" glyph-name="plusminus" horiz-adv-x="474" d="M37 56H437V0H37V56ZM205 327H37V383H205V553H269V383H437V327H269V157H205V327Z" />
<glyph unicode="&#xb2;" glyph-name="twosuperior" horiz-adv-x="336" d="M12 365Q33 381 50 394T81 419T108 444T137 474Q192 532 192 602Q192 640 180 655T146 670Q132 670 128 664T122 639Q118 607 105 593T62 578Q40 578 28 588T15 621Q15 653 53 676T159
700Q231 700 275 672T319 588Q319 542 270 497T108 401V398H239Q249 398 255 400T267 407T276 422T287 446H315L307 308H12V365Z" />
<glyph unicode="&#xb3;" glyph-name="threesuperior" horiz-adv-x="345" d="M149 301Q77 301 45 320T12 372Q12 395 24 405T57 415Q80 415 94 403T113 359Q116 340 122 335T148 330Q177 330 189 351T201 413Q201 438 196 453T180 477T156 487T126 490H98V527H121Q157
527 174 543T191 600Q191 637 181 653T151 670Q137 670 132 666T125 645Q123 621 112 608T72 594Q52 594 40 605T27 634Q27 665 62 682T161 700Q227 700 268 678T309 608Q309 577 285 552T201 517V515Q254 513 290 489T326 415Q326 364 284 333T149 301Z" />
<glyph unicode="&#xb4;" glyph-name="acute" horiz-adv-x="500" d="M134 595L265 713Q290 737 318 737Q341 737 356 719T372 677Q372 660 362 644T326 621L142 577L134 595Z" />
<glyph unicode="&#xb6;" glyph-name="paragraph" horiz-adv-x="538" d="M254 332Q248 331 238 331T216 330Q164 330 127 344T66 383T31 442T20 516Q20 554 32 586T68 642T129 679T215 693H521V665L487 658Q476 655 469 652T457 642T450 621T448 585V-100H394V649H308V-100H254V332Z"
/>
<glyph unicode="&#xb7;" glyph-name="periodcentered" horiz-adv-x="230" d="M115 254Q98 254 83 261T56 279T39 305T32 337Q32 372 56 395T115 419Q131 419 146 413T173 396T192 370T199 337Q199 320 192 305T174 279T147 261T115 254Z" />
<glyph unicode="&#xb8;" glyph-name="cedilla" horiz-adv-x="500" d="M163 -183Q248 -165 248 -130Q248 -116 235 -110T198 -101L193 -93L239 0H281L249 -46Q292 -50 314 -67T337 -109Q337 -132 324 -149T287 -177T231 -195T163 -205V-183Z" />
<glyph unicode="&#xb9;" glyph-name="onesuperior" horiz-adv-x="260" d="M15 335L35 339Q54 343 59 349T64 385V582L16 590V617Q61 625 103 647T171 698L196 694V385Q196 356 202 349T226 339L246 335V308H15V335Z" />
<glyph unicode="&#xba;" glyph-name="ordmasculine" horiz-adv-x="485" d="M242 264Q200 264 160 277T88 317T38 385T19 481Q19 538 38 579T90 648T161 687T242 700Q285 700 325 687T396 647T447 580T466 484Q466 427 447 386T396 317T324 277T242 264ZM244 300Q262
300 277 306T302 332T317 385T323 477Q323 536 318 572T303 629T278 657T241 664Q221 664 207 657T183 630T168 577T163 494Q163 434 167 396T181 337T206 308T244 300Z" />
<glyph unicode="&#xbb;" glyph-name="guillemotright" horiz-adv-x="454" d="M119 253L36 460H71L244 262V243L71 45H36L119 253ZM300 253L218 460H252L426 262V243L252 45H218L300 253Z" />
<glyph unicode="&#xbc;" glyph-name="onequarter" horiz-adv-x="777" d="M16 335L36 339Q55 343 60 349T65 385V582L17 590V617Q62 625 104 647T172 698L197 694V385Q197 356 203 349T227 339L247 335V308H16V335ZM613 714H674L148 -50H86L613 714ZM536 27L555
31Q564 33 569 35T578 41T582 54T584 77V105H421V141L626 385H711V152H769L764 105H711V77Q711 63 712 55T717 42T725 35T740 31L759 27V0H536V27ZM584 152V283H581L474 155V152H584Z" />
<glyph unicode="&#xbd;" glyph-name="onehalf" horiz-adv-x="772" d="M16 335L36 339Q55 343 60 349T65 385V582L17 590V617Q62 625 104 647T172 698L197 694V385Q197 356 203 349T227 339L247 335V308H16V335ZM590 714H651L125 -50H63L590 714ZM445 58Q466 74
483 86T514 111T541 136T570 166Q625 224 625 294Q625 332 613 347T579 362Q565 362 561 356T555 331Q551 299 538 285T495 270Q473 270 461 281T448 313Q448 346 486 369T592 392Q664 392 708 365T752 280Q752 234 703 189T541 93V90H672Q682 90 688 92T700 99T709
114T720 138H748L740 0H445V58Z" />
<glyph unicode="&#xbe;" glyph-name="threequarters" horiz-adv-x="830" d="M161 301Q89 301 57 320T24 372Q24 395 36 405T69 415Q92 415 106 403T125 359Q128 340 134 335T160 330Q189 330 201 351T213 413Q213 438 208 453T192 477T168 487T138 490H110V527H133Q169
527 186 543T203 600Q203 637 193 653T163 670Q149 670 144 666T137 645Q135 621 124 608T84 594Q64 594 52 605T39 634Q39 665 74 682T173 700Q239 700 280 678T321 608Q321 577 297 552T213 517V515Q266 513 302 489T338 415Q338 364 296 333T161 301ZM669 714H730L204
-50H142L669 714ZM589 27L607 31Q616 33 621 35T630 41T635 54T636 77V105H473V141L678 385H763V152H822L816 105H763V77Q763 63 764 55T769 42T778 35T792 31L811 27V0H589V27ZM636 152V283H634L527 155V152H636Z" />
<glyph unicode="&#xbf;" glyph-name="questiondown" horiz-adv-x="475" d="M261 -90Q149 -90 91 -40T32 97Q32 145 50 182T100 247T177 294T273 323V400H325V225Q300 217 276 206T232 177T201 133T189 67Q189 1 212 -24T268 -49Q288 -49 294 -41T304 -7Q310 37
330 57T389 78Q423 78 439 59T455 15Q455 -35 402 -62T261 -90ZM298 457Q265 457 240 480T214 540Q214 556 221 571T239 597T266 615T298 622Q315 622 330 616T356 598T374 571T381 540Q381 504 357 481T298 457Z" />
<glyph unicode="&#xc0;" glyph-name="Agrave" horiz-adv-x="689" d="M-3 28L22 35Q33 38 41 43T56 58T71 87T90 136L291 693H391L598 133Q608 105 615 88T630 59T646 42T665 33L686 28V0H353V28L381 35Q401 40 409 49T417 75Q417 88 412 107T398 148L373 219H174L150
147Q143 126 139 109T135 79Q135 58 145 50T178 35L206 28V0H-3V28ZM188 263H358L275 507H270L188 263ZM447 724L252 763Q224 768 214 782T203 815Q203 839 218 858T257 877Q271 877 282 872T308 856L455 742L447 724Z" />
<glyph unicode="&#xc1;" glyph-name="Aacute" horiz-adv-x="689" d="M-3 28L22 35Q33 38 41 43T56 58T71 87T90 136L291 693H391L598 133Q608 105 615 88T630 59T646 42T665 33L686 28V0H353V28L381 35Q401 40 409 49T417 75Q417 88 412 107T398 148L373 219H174L150
147Q143 126 139 109T135 79Q135 58 145 50T178 35L206 28V0H-3V28ZM188 263H358L275 507H270L188 263ZM233 742L380 856Q394 867 405 872T431 877Q454 877 469 858T485 815Q485 797 474 783T436 763L241 724L233 742Z" />
<glyph unicode="&#xc2;" glyph-name="Acircumflex" horiz-adv-x="689" d="M-3 28L22 35Q33 38 41 43T56 58T71 87T90 136L291 693H391L598 133Q608 105 615 88T630 59T646 42T665 33L686 28V0H353V28L381 35Q401 40 409 49T417 75Q417 88 412 107T398 148L373
219H174L150 147Q143 126 139 109T135 79Q135 58 145 50T178 35L206 28V0H-3V28ZM188 263H358L275 507H270L188 263ZM182 737L314 869H365L498 737L487 720L340 768L193 720L182 737Z" />
<glyph unicode="&#xc3;" glyph-name="Atilde" horiz-adv-x="689" d="M-3 28L22 35Q33 38 41 43T56 58T71 87T90 136L291 693H391L598 133Q608 105 615 88T630 59T646 42T665 33L686 28V0H353V28L381 35Q401 40 409 49T417 75Q417 88 412 107T398 148L373 219H174L150
147Q143 126 139 109T135 79Q135 58 145 50T178 35L206 28V0H-3V28ZM188 263H358L275 507H270L188 263ZM170 733Q181 761 191 783T212 822T236 846T268 855Q284 855 306 851T350 843T394 835T432 831Q448 831 459 840T484 872L510 859Q499 831 490 808T469 769T445
745T412 736Q395 736 374 739T329 747T285 756T247 760Q231 760 221 752T196 720L170 733Z" />
<glyph unicode="&#xc4;" glyph-name="Adieresis" horiz-adv-x="689" d="M-3 28L22 35Q33 38 41 43T56 58T71 87T90 136L291 693H391L598 133Q608 105 615 88T630 59T646 42T665 33L686 28V0H353V28L381 35Q401 40 409 49T417 75Q417 88 412 107T398 148L373 219H174L150
147Q143 126 139 109T135 79Q135 58 145 50T178 35L206 28V0H-3V28ZM188 263H358L275 507H270L188 263ZM229 724Q197 724 175 745T152 799Q152 833 174 854T229 875Q262 875 284 854T307 799Q307 766 285 745T229 724ZM451 724Q418 724 396 745T373 799Q373 833
395 854T451 875Q483 875 505 854T528 799Q528 766 506 745T451 724Z" />
<glyph unicode="&#xc5;" glyph-name="Aring" horiz-adv-x="689" d="M-3 28L22 35Q33 38 41 43T56 58T71 87T90 136L291 693H391L598 133Q608 105 615 88T630 59T646 42T665 33L686 28V0H353V28L381 35Q401 40 409 49T417 75Q417 88 412 107T398 148L373 219H174L150
147Q143 126 139 109T135 79Q135 58 145 50T178 35L206 28V0H-3V28ZM188 263H358L275 507H270L188 263ZM340 719Q294 719 267 745T240 812Q240 854 268 880T340 906Q383 906 411 880T440 812Q440 772 412 746T340 719ZM340 754Q364 754 379 770T394 812Q394 838
379 854T340 871Q317 871 302 855T286 812Q286 787 301 771T340 754Z" />
<glyph unicode="&#xc6;" glyph-name="AE" horiz-adv-x="931" d="M-4 28L20 35Q32 38 41 42T61 57T83 86T113 136L403 642Q395 649 385 652T364 658L328 665V693H879L889 491H859Q841 533 828 557T804 598Q792 616 781 626T757 641T726 647T685 649Q652 649 629
646T594 640V381H615Q641 381 658 382T685 387T702 397T713 411Q724 430 730 447T744 488H774V227H744Q737 250 731 268T713 308Q708 317 703 323T687 332T659 337T614 338H594V144Q594 110 596 91T607 61T636 47T691 44Q721 44 740 46T772 55T796 73T818 104Q832
124 847 157T881 238H913L898 0H347V28L380 35Q391 38 399 41T412 51T419 72T422 108V209H215L182 148Q169 125 160 105T150 68Q149 56 156 48T183 35L210 28V0H-4V28ZM238 251H422V581H419L238 251Z" />
<glyph unicode="&#xc7;" glyph-name="Ccedilla" horiz-adv-x="624" d="M252 -183Q337 -165 337 -130Q337 -116 324 -110T287 -101L282 -93L323 -10Q258 -4 204 21T110 90T49 196T27 341Q27 438 56 507T136 620T253 684T391 705Q449 705 499 698T581 682L592 475H561Q539
522 519 556T481 616Q461 642 439 652T380 663Q336 663 306 647T256 594T228 500T219 361Q219 263 228 200T258 98T308 45T380 30Q424 30 448 43T494 86Q514 115 532 148T570 229H599L588 29Q553 14 498 1T369 -12H361L338 -46Q381 -50 403 -67T426 -109Q426 -132
413 -149T376 -177T320 -195T252 -205V-183Z" />
<glyph unicode="&#xc8;" glyph-name="Egrave" horiz-adv-x="618" d="M17 28L51 35Q62 38 69 41T81 51T88 72T90 108V585Q90 608 88 621T82 641T70 652T51 658L17 665V693H566L576 491H545Q526 533 513 557T488 598Q476 616 465 626T441 641T409 647T364 649Q325
649 304 646T272 639V381H299Q326 381 343 382T370 387T387 397T398 411Q409 430 415 447T429 488H459V227H429Q422 250 416 268T398 308Q393 317 388 323T372 332T344 337T299 338H272V144Q272 110 274 91T285 61T315 47T373 44Q403 44 422 46T456 55T480 73T504
104Q518 124 533 157T568 238H600L586 0H17V28ZM432 724L237 763Q209 768 199 782T188 815Q188 839 203 858T242 877Q256 877 267 872T293 856L440 742L432 724Z" />
<glyph unicode="&#xc9;" glyph-name="Eacute" horiz-adv-x="618" d="M17 28L51 35Q62 38 69 41T81 51T88 72T90 108V585Q90 608 88 621T82 641T70 652T51 658L17 665V693H566L576 491H545Q526 533 513 557T488 598Q476 616 465 626T441 641T409 647T364 649Q325
649 304 646T272 639V381H299Q326 381 343 382T370 387T387 397T398 411Q409 430 415 447T429 488H459V227H429Q422 250 416 268T398 308Q393 317 388 323T372 332T344 337T299 338H272V144Q272 110 274 91T285 61T315 47T373 44Q403 44 422 46T456 55T480 73T504
104Q518 124 533 157T568 238H600L586 0H17V28ZM217 742L364 856Q378 867 389 872T415 877Q438 877 453 858T469 815Q469 797 458 783T420 763L225 724L217 742Z" />
<glyph unicode="&#xca;" glyph-name="Ecircumflex" horiz-adv-x="618" d="M17 28L51 35Q62 38 69 41T81 51T88 72T90 108V585Q90 608 88 621T82 641T70 652T51 658L17 665V693H566L576 491H545Q526 533 513 557T488 598Q476 616 465 626T441 641T409 647T364 649Q325
649 304 646T272 639V381H299Q326 381 343 382T370 387T387 397T398 411Q409 430 415 447T429 488H459V227H429Q422 250 416 268T398 308Q393 317 388 323T372 332T344 337T299 338H272V144Q272 110 274 91T285 61T315 47T373 44Q403 44 422 46T456 55T480 73T504
104Q518 124 533 157T568 238H600L586 0H17V28ZM167 737L299 869H350L483 737L472 720L325 768L178 720L167 737Z" />
<glyph unicode="&#xcb;" glyph-name="Edieresis" horiz-adv-x="618" d="M17 28L51 35Q62 38 69 41T81 51T88 72T90 108V585Q90 608 88 621T82 641T70 652T51 658L17 665V693H566L576 491H545Q526 533 513 557T488 598Q476 616 465 626T441 641T409 647T364 649Q325
649 304 646T272 639V381H299Q326 381 343 382T370 387T387 397T398 411Q409 430 415 447T429 488H459V227H429Q422 250 416 268T398 308Q393 317 388 323T372 332T344 337T299 338H272V144Q272 110 274 91T285 61T315 47T373 44Q403 44 422 46T456 55T480 73T504
104Q518 124 533 157T568 238H600L586 0H17V28ZM214 724Q182 724 160 745T137 799Q137 833 159 854T214 875Q247 875 269 854T292 799Q292 766 270 745T214 724ZM436 724Q403 724 381 745T358 799Q358 833 380 854T436 875Q468 875 490 854T513 799Q513 766 491
745T436 724Z" />
<glyph unicode="&#xcc;" glyph-name="Igrave" horiz-adv-x="368" d="M17 28L54 35Q66 38 73 41T85 51T91 72T93 108V585Q93 608 92 621T86 641T74 652T54 658L17 665V693H352V665L315 658Q303 655 295 652T283 642T277 621T275 585V108Q275 85 276 72T282 52T295
41T315 35L352 28V0H17V28ZM549 724L354 763Q326 768 316 782T305 815Q305 839 320 858T359 877Q373 877 384 872T410 856L557 742L549 724Z" />
<glyph unicode="&#xcd;" glyph-name="Iacute" horiz-adv-x="368" d="M17 28L54 35Q66 38 73 41T85 51T91 72T93 108V585Q93 608 92 621T86 641T74 652T54 658L17 665V693H352V665L315 658Q303 655 295 652T283 642T277 621T275 585V108Q275 85 276 72T282 52T295
41T315 35L352 28V0H17V28ZM334 742L481 856Q495 867 506 872T532 877Q555 877 570 858T586 815Q586 797 575 783T537 763L342 724L334 742Z" />
<glyph unicode="&#xce;" glyph-name="Icircumflex" horiz-adv-x="368" d="M17 28L54 35Q66 38 73 41T85 51T91 72T93 108V585Q93 608 92 621T86 641T74 652T54 658L17 665V693H352V665L315 658Q303 655 295 652T283 642T277 621T275 585V108Q275 85 276 72T282
52T295 41T315 35L352 28V0H17V28ZM283 737L415 869H466L599 737L588 720L441 768L294 720L283 737Z" />
<glyph unicode="&#xcf;" glyph-name="Idieresis" horiz-adv-x="368" d="M17 28L54 35Q66 38 73 41T85 51T91 72T93 108V585Q93 608 92 621T86 641T74 652T54 658L17 665V693H352V665L315 658Q303 655 295 652T283 642T277 621T275 585V108Q275 85 276 72T282 52T295
41T315 35L352 28V0H17V28ZM330 724Q298 724 276 745T253 799Q253 833 275 854T330 875Q363 875 385 854T408 799Q408 766 386 745T330 724ZM552 724Q519 724 497 745T474 799Q474 833 496 854T552 875Q584 875 606 854T629 799Q629 766 607 745T552 724Z" />
<glyph unicode="&#xd0;" glyph-name="Eth" horiz-adv-x="730" d="M27 369H90V585Q90 608 88 621T82 641T70 652T51 658L17 665V693H356Q434 693 498 674T607 615T678 511T703 359Q703 273 679 207T608 94T497 24T351 0H17V28L51 35Q62 38 69 41T81 51T88 72T90
108V327H27V369ZM341 44Q434 44 473 116T513 335Q513 423 503 483T471 580T416 633T339 649Q316 649 298 647T272 640V369H404V327H272V135Q272 105 275 88T285 60T306 47T341 44Z" />
<glyph unicode="&#xd1;" glyph-name="Ntilde" horiz-adv-x="698" d="M146 576H142V123Q142 95 143 79T150 54T165 42T189 35L225 28V0H17V28L47 35Q59 38 67 41T80 52T88 76T90 118V585Q90 608 88 621T82 641T70 652T51 658L17 665V693H280L554 289H558V570Q558
598 557 614T550 638T536 651T511 658L473 665V693H683V665L653 658Q641 655 633 652T620 641T612 617T610 575V-1H539L146 576ZM204 733Q215 761 225 783T246 822T270 846T302 855Q318 855 340 851T384 843T428 835T466 831Q482 831 493 840T518 872L544 859Q533
831 524 808T503 769T479 745T446 736Q429 736 408 739T363 747T319 756T281 760Q265 760 255 752T230 720L204 733Z" />
<glyph unicode="&#xd2;" glyph-name="Ograve" horiz-adv-x="728" d="M360 -12Q295 -12 235 9T129 73T54 182T26 338Q26 437 57 506T137 620T247 684T368 705Q432 705 492 685T599 623T674 514T702 354Q702 255 671 185T591 72T481 8T360 -12ZM366 30Q403 30 430
44T476 92T503 185T512 332Q512 420 504 482T478 585T432 644T362 663Q326 663 299 649T253 600T225 506T216 359Q216 272 223 210T249 107T295 49T366 30ZM471 724L276 763Q248 768 238 782T227 815Q227 839 242 858T281 877Q295 877 306 872T332 856L479 742L471
724Z" />
<glyph unicode="&#xd3;" glyph-name="Oacute" horiz-adv-x="728" d="M360 -12Q295 -12 235 9T129 73T54 182T26 338Q26 437 57 506T137 620T247 684T368 705Q432 705 492 685T599 623T674 514T702 354Q702 255 671 185T591 72T481 8T360 -12ZM366 30Q403 30 430
44T476 92T503 185T512 332Q512 420 504 482T478 585T432 644T362 663Q326 663 299 649T253 600T225 506T216 359Q216 272 223 210T249 107T295 49T366 30ZM256 742L403 856Q417 867 428 872T454 877Q477 877 492 858T508 815Q508 797 497 783T459 763L264 724L256
742Z" />
<glyph unicode="&#xd4;" glyph-name="Ocircumflex" horiz-adv-x="728" d="M360 -12Q295 -12 235 9T129 73T54 182T26 338Q26 437 57 506T137 620T247 684T368 705Q432 705 492 685T599 623T674 514T702 354Q702 255 671 185T591 72T481 8T360 -12ZM366 30Q403
30 430 44T476 92T503 185T512 332Q512 420 504 482T478 585T432 644T362 663Q326 663 299 649T253 600T225 506T216 359Q216 272 223 210T249 107T295 49T366 30ZM205 737L337 869H388L521 737L510 720L363 768L216 720L205 737Z" />
<glyph unicode="&#xd5;" glyph-name="Otilde" horiz-adv-x="728" d="M360 -12Q295 -12 235 9T129 73T54 182T26 338Q26 437 57 506T137 620T247 684T368 705Q432 705 492 685T599 623T674 514T702 354Q702 255 671 185T591 72T481 8T360 -12ZM366 30Q403 30 430
44T476 92T503 185T512 332Q512 420 504 482T478 585T432 644T362 663Q326 663 299 649T253 600T225 506T216 359Q216 272 223 210T249 107T295 49T366 30ZM193 733Q204 761 214 783T235 822T259 846T291 855Q307 855 329 851T373 843T417 835T455 831Q471 831
482 840T507 872L533 859Q522 831 513 808T492 769T468 745T435 736Q418 736 397 739T352 747T308 756T270 760Q254 760 244 752T219 720L193 733Z" />
<glyph unicode="&#xd6;" glyph-name="Odieresis" horiz-adv-x="728" d="M360 -12Q295 -12 235 9T129 73T54 182T26 338Q26 437 57 506T137 620T247 684T368 705Q432 705 492 685T599 623T674 514T702 354Q702 255 671 185T591 72T481 8T360 -12ZM366 30Q403 30
430 44T476 92T503 185T512 332Q512 420 504 482T478 585T432 644T362 663Q326 663 299 649T253 600T225 506T216 359Q216 272 223 210T249 107T295 49T366 30ZM252 724Q220 724 198 745T175 799Q175 833 197 854T252 875Q285 875 307 854T330 799Q330 766 308
745T252 724ZM474 724Q441 724 419 745T396 799Q396 833 418 854T474 875Q506 875 528 854T551 799Q551 766 529 745T474 724Z" />
<glyph unicode="&#xd7;" glyph-name="multiply" horiz-adv-x="443" d="M39 189L181 339L44 485L86 525L221 381L357 525L399 485L262 339L404 189L362 149L221 296L82 149L39 189Z" />
<glyph unicode="&#xd8;" glyph-name="Oslash" horiz-adv-x="728" d="M149 56Q93 99 60 169T26 338Q26 437 57 506T137 620T247 684T368 705Q414 705 459 695T544 661L589 730H641L580 637Q634 595 668 526T702 354Q702 255 671 185T591 72T481 8T360 -12Q313 -12
269 -2T186 32L123 -64H71L149 56ZM215 359Q215 246 227 176L486 572Q468 621 438 642T362 663Q326 663 299 649T253 600T225 506T215 359ZM366 30Q403 30 430 44T476 92T504 185T513 332Q513 446 500 514L242 118Q259 71 289 51T366 30Z" />
<glyph unicode="&#xd9;" glyph-name="Ugrave" horiz-adv-x="703" d="M373 -12Q310 -12 257 0T165 40T106 112T84 222V585Q84 608 82 621T76 641T64 652T44 658L10 665V693H338V665L305 658Q293 655 286 652T274 642T268 621T266 585V202Q266 124 301 89T421 53Q500
53 534 96T569 216V570Q569 598 568 614T561 638T546 651T521 658L482 665V693H693V665L662 658Q651 655 643 652T630 641T623 617T621 575V209Q621 163 607 123T562 52T484 5T373 -12ZM514 724L319 763Q291 768 281 782T270 815Q270 839 285 858T324 877Q338 877
349 872T375 856L522 742L514 724Z" />
<glyph unicode="&#xda;" glyph-name="Uacute" horiz-adv-x="703" d="M373 -12Q310 -12 257 0T165 40T106 112T84 222V585Q84 608 82 621T76 641T64 652T44 658L10 665V693H338V665L305 658Q293 655 286 652T274 642T268 621T266 585V202Q266 124 301 89T421 53Q500
53 534 96T569 216V570Q569 598 568 614T561 638T546 651T521 658L482 665V693H693V665L662 658Q651 655 643 652T630 641T623 617T621 575V209Q621 163 607 123T562 52T484 5T373 -12ZM300 742L447 856Q461 867 472 872T498 877Q521 877 536 858T552 815Q552 797
541 783T503 763L308 724L300 742Z" />
<glyph unicode="&#xdb;" glyph-name="Ucircumflex" horiz-adv-x="703" d="M373 -12Q310 -12 257 0T165 40T106 112T84 222V585Q84 608 82 621T76 641T64 652T44 658L10 665V693H338V665L305 658Q293 655 286 652T274 642T268 621T266 585V202Q266 124 301 89T421
53Q500 53 534 96T569 216V570Q569 598 568 614T561 638T546 651T521 658L482 665V693H693V665L662 658Q651 655 643 652T630 641T623 617T621 575V209Q621 163 607 123T562 52T484 5T373 -12ZM249 737L381 869H432L565 737L554 720L407 768L260 720L249 737Z"
/>
<glyph unicode="&#xdc;" glyph-name="Udieresis" horiz-adv-x="703" d="M373 -12Q310 -12 257 0T165 40T106 112T84 222V585Q84 608 82 621T76 641T64 652T44 658L10 665V693H338V665L305 658Q293 655 286 652T274 642T268 621T266 585V202Q266 124 301 89T421
53Q500 53 534 96T569 216V570Q569 598 568 614T561 638T546 651T521 658L482 665V693H693V665L662 658Q651 655 643 652T630 641T623 617T621 575V209Q621 163 607 123T562 52T484 5T373 -12ZM296 724Q264 724 242 745T219 799Q219 833 241 854T296 875Q329 875
351 854T374 799Q374 766 352 745T296 724ZM518 724Q485 724 463 745T440 799Q440 833 462 854T518 875Q550 875 572 854T595 799Q595 766 573 745T518 724Z" />
<glyph unicode="&#xdd;" glyph-name="Yacute" horiz-adv-x="648" d="M166 28L203 35Q216 38 224 41T237 51T242 72T244 108V285L88 573Q75 597 66 612T50 636T34 651T16 659L-4 665V693H338V665L309 659Q271 649 271 618Q271 607 276 593T289 561L394 347H399L491
554Q502 576 505 590T508 617Q508 633 499 643T467 658L440 665V693H652V665L631 659Q620 655 611 649T593 631T575 603T554 562L426 291V108Q426 85 427 72T433 52T446 41T468 35L505 28V0H166V28ZM267 742L414 856Q428 867 439 872T465 877Q488 877 503 858T519
815Q519 797 508 783T470 763L275 724L267 742Z" />
<glyph unicode="&#xde;" glyph-name="Thorn" horiz-adv-x="644" d="M17 28L51 35Q62 38 69 41T81 51T88 72T90 108V585Q90 608 88 621T82 641T70 652T51 658L17 665V693H348V665L311 658Q299 655 292 652T280 642T274 621T272 585V555H345Q482 555 553 507T625
359Q625 316 610 279T563 213T485 169T377 153Q348 153 329 157T301 164V193Q339 192 365 199T409 224T433 274T441 352Q441 400 434 431T414 481T381 506T335 514Q312 514 296 511T272 506V108Q272 85 274 73T280 53T293 43T313 37L364 28V0H17V28Z" />
<glyph unicode="&#xdf;" glyph-name="germandbls" horiz-adv-x="661" d="M447 -10Q369 -10 330 12T291 76Q291 102 307 118T352 135Q386 135 399 118T415 68Q418 46 425 38T459 30Q489 30 508 46T527 91Q527 107 522 120T503 146T469 175T416 210Q384 231 364
248T332 281T316 312T311 345Q311 376 328 407T366 471T404 539T421 614Q421 662 401 692T332 722Q310 722 292 716T260 694T240 652T233 588V85Q233 52 236 44T255 32L275 27V0H11V27L37 34Q49 37 56 40T68 50T73 65T74 91V460H4V485L74 520V533Q74 591 95 634T153
705T237 747T339 761Q393 761 433 751T501 722T542 681T556 630Q556 588 532 558T478 505T424 463T399 428Q399 420 404 413T422 396T458 372T519 336Q586 296 615 257T645 163Q645 124 631 92T592 38T529 3T447 -10Z" />
<glyph unicode="&#xe0;" glyph-name="agrave" horiz-adv-x="532" d="M167 -12Q96 -12 57 22T17 120Q17 153 29 177T64 220T121 251T197 274L298 299V386Q298 448 283 471T227 494Q204 494 196 487T185 458Q181 410 164 390T107 370Q74 370 57 386T39 432Q39 480
97 506T260 533Q354 533 406 502T458 396V119Q458 91 462 78T481 57Q491 52 504 50T528 47V23Q514 12 485 0T411 -12Q324 -12 307 49H302Q283 25 250 7T167 -12ZM242 59Q263 59 277 67T298 88V248L252 244Q214 241 194 220T174 145Q174 96 193 78T242 59ZM427 621Q401
627 391 643T380 677Q380 700 395 718T434 737Q461 737 487 713L618 595L610 577L427 621Z" />
<glyph unicode="&#xe1;" glyph-name="aacute" horiz-adv-x="532" d="M167 -12Q96 -12 57 22T17 120Q17 153 29 177T64 220T121 251T197 274L298 299V386Q298 448 283 471T227 494Q204 494 196 487T185 458Q181 410 164 390T107 370Q74 370 57 386T39 432Q39 480
97 506T260 533Q354 533 406 502T458 396V119Q458 91 462 78T481 57Q491 52 504 50T528 47V23Q514 12 485 0T411 -12Q324 -12 307 49H302Q283 25 250 7T167 -12ZM242 59Q263 59 277 67T298 88V248L252 244Q214 241 194 220T174 145Q174 96 193 78T242 59ZM157 595L288
713Q313 737 341 737Q364 737 379 719T395 677Q395 660 385 644T349 621L165 577L157 595Z" />
<glyph unicode="&#xe2;" glyph-name="acircumflex" horiz-adv-x="532" d="M167 -12Q96 -12 57 22T17 120Q17 153 29 177T64 220T121 251T197 274L298 299V386Q298 448 283 471T227 494Q204 494 196 487T185 458Q181 410 164 390T107 370Q74 370 57 386T39 432Q39
480 97 506T260 533Q354 533 406 502T458 396V119Q458 91 462 78T481 57Q491 52 504 50T528 47V23Q514 12 485 0T411 -12Q324 -12 307 49H302Q283 25 250 7T167 -12ZM242 59Q263 59 277 67T298 88V248L252 244Q214 241 194 220T174 145Q174 96 193 78T242 59ZM108
588L230 731H281L404 588L393 571L256 630L119 571L108 588Z" />
<glyph unicode="&#xe3;" glyph-name="atilde" horiz-adv-x="532" d="M167 -12Q96 -12 57 22T17 120Q17 153 29 177T64 220T121 251T197 274L298 299V386Q298 448 283 471T227 494Q204 494 196 487T185 458Q181 410 164 390T107 370Q74 370 57 386T39 432Q39 480
97 506T260 533Q354 533 406 502T458 396V119Q458 91 462 78T481 57Q491 52 504 50T528 47V23Q514 12 485 0T411 -12Q324 -12 307 49H302Q283 25 250 7T167 -12ZM242 59Q263 59 277 67T298 88V248L252 244Q214 241 194 220T174 145Q174 96 193 78T242 59ZM92 585Q103
613 113 635T134 674T158 698T190 707Q206 707 226 703T266 695T306 687T342 683Q357 683 368 692T394 724L420 710Q409 682 400 660T379 621T355 597T322 588Q305 588 286 591T246 599T206 608T170 612Q154 612 143 603T118 571L92 585Z" />
<glyph unicode="&#xe4;" glyph-name="adieresis" horiz-adv-x="532" d="M167 -12Q96 -12 57 22T17 120Q17 153 29 177T64 220T121 251T197 274L298 299V386Q298 448 283 471T227 494Q204 494 196 487T185 458Q181 410 164 390T107 370Q74 370 57 386T39 432Q39
480 97 506T260 533Q354 533 406 502T458 396V119Q458 91 462 78T481 57Q491 52 504 50T528 47V23Q514 12 485 0T411 -12Q324 -12 307 49H302Q283 25 250 7T167 -12ZM242 59Q263 59 277 67T298 88V248L252 244Q214 241 194 220T174 145Q174 96 193 78T242 59ZM153
576Q121 576 99 597T76 651Q76 684 98 705T153 726Q186 726 208 705T231 651Q231 618 209 597T153 576ZM359 576Q326 576 304 597T281 651Q281 684 303 705T359 726Q391 726 413 705T436 651Q436 618 414 597T359 576Z" />
<glyph unicode="&#xe5;" glyph-name="aring" horiz-adv-x="532" d="M167 -12Q96 -12 57 22T17 120Q17 153 29 177T64 220T121 251T197 274L298 299V386Q298 448 283 471T227 494Q204 494 196 487T185 458Q181 410 164 390T107 370Q74 370 57 386T39 432Q39 480
97 506T260 533Q354 533 406 502T458 396V119Q458 91 462 78T481 57Q491 52 504 50T528 47V23Q514 12 485 0T411 -12Q324 -12 307 49H302Q283 25 250 7T167 -12ZM242 59Q263 59 277 67T298 88V248L252 244Q214 241 194 220T174 145Q174 96 193 78T242 59ZM256 571Q210
571 183 597T156 664Q156 706 184 732T256 758Q299 758 327 732T356 664Q356 624 328 598T256 571ZM256 606Q280 606 295 622T310 664Q310 690 295 706T256 723Q233 723 218 707T202 664Q202 639 217 623T256 606Z" />
<glyph unicode="&#xe6;" glyph-name="ae" horiz-adv-x="786" d="M548 -12Q413 -12 350 68Q315 26 270 7T172 -12Q97 -12 57 21T17 119Q17 152 29 176T64 218T120 249T197 272L296 297V386Q296 444 282 469T226 494Q203 494 195 487T184 458Q180 410 163 390T106
370Q38 370 38 434Q38 457 53 475T96 506T162 526T249 533Q306 533 343 516T400 470Q429 499 467 516T551 533Q600 533 640 519T708 473T752 392T768 274H447Q449 215 462 177T496 115T547 83T611 74Q656 74 690 85T753 112V79Q740 64 720 48T675 19T617 -3T548
-12ZM541 495Q501 495 475 453T447 311L614 321Q614 413 599 454T541 495ZM242 59Q271 59 289 78T319 121Q297 175 296 246L252 242Q214 239 194 218T174 144Q174 95 193 77T242 59Z" />
<glyph unicode="&#xe7;" glyph-name="ccedilla" horiz-adv-x="496" d="M148 -183Q233 -165 233 -130Q233 -116 220 -110T183 -101L178 -93L220 -8Q122 6 71 77T19 258Q19 336 47 389T118 474T216 519T323 533Q398 533 440 510T482 440Q482 409 463 390T411 370Q372
370 357 393T339 448Q335 476 328 484T295 492Q274 492 253 485T216 456T189 398T179 301Q179 191 215 133T335 74Q382 74 417 85T480 111V79Q469 65 450 50T405 20T344 -3T270 -12H257L234 -46Q277 -50 299 -67T322 -109Q322 -132 309 -149T272 -177T216 -195T148
-205V-183Z" />
<glyph unicode="&#xe8;" glyph-name="egrave" horiz-adv-x="526" d="M280 -12Q149 -12 84 61T19 262Q19 327 41 377T100 462T183 515T280 533Q332 533 373 520T444 476T489 399T507 283H177Q178 221 190 181T223 117T275 84T345 74Q392 74 427 85T492 112V79Q479
64 459 48T411 19T351 -3T280 -12ZM272 495Q253 495 237 486T207 455T186 401T177 321L348 330Q348 375 345 406T333 457T309 486T272 495ZM192 621Q166 627 156 643T145 677Q145 700 160 718T199 737Q226 737 252 713L383 595L375 577L192 621Z" />
<glyph unicode="&#xe9;" glyph-name="eacute" horiz-adv-x="526" d="M280 -12Q149 -12 84 61T19 262Q19 327 41 377T100 462T183 515T280 533Q332 533 373 520T444 476T489 399T507 283H177Q178 221 190 181T223 117T275 84T345 74Q392 74 427 85T492 112V79Q479
64 459 48T411 19T351 -3T280 -12ZM272 495Q253 495 237 486T207 455T186 401T177 321L348 330Q348 375 345 406T333 457T309 486T272 495ZM180 595L311 713Q336 737 364 737Q387 737 402 719T418 677Q418 660 408 644T372 621L188 577L180 595Z" />
<glyph unicode="&#xea;" glyph-name="ecircumflex" horiz-adv-x="526" d="M280 -12Q149 -12 84 61T19 262Q19 327 41 377T100 462T183 515T280 533Q332 533 373 520T444 476T489 399T507 283H177Q178 221 190 181T223 117T275 84T345 74Q392 74 427 85T492 112V79Q479
64 459 48T411 19T351 -3T280 -12ZM272 495Q253 495 237 486T207 455T186 401T177 321L348 330Q348 375 345 406T333 457T309 486T272 495ZM130 588L252 731H303L426 588L415 571L278 630L141 571L130 588Z" />
<glyph unicode="&#xeb;" glyph-name="edieresis" horiz-adv-x="526" d="M280 -12Q149 -12 84 61T19 262Q19 327 41 377T100 462T183 515T280 533Q332 533 373 520T444 476T489 399T507 283H177Q178 221 190 181T223 117T275 84T345 74Q392 74 427 85T492 112V79Q479
64 459 48T411 19T351 -3T280 -12ZM272 495Q253 495 237 486T207 455T186 401T177 321L348 330Q348 375 345 406T333 457T309 486T272 495ZM175 576Q143 576 121 597T98 651Q98 684 120 705T175 726Q208 726 230 705T253 651Q253 618 231 597T175 576ZM381 576Q348
576 326 597T303 651Q303 684 325 705T381 726Q413 726 435 705T458 651Q458 618 436 597T381 576Z" />
<glyph unicode="&#xec;" glyph-name="igrave" horiz-adv-x="305" d="M11 29L37 35Q48 38 55 41T67 49T72 61T74 82V409Q74 422 73 430T68 445T58 456T41 468L8 489V509L227 533L237 525Q235 493 234 467T233 411V82Q233 55 240 48T270 35L296 29V0H11V29ZM323
621Q297 627 287 643T276 677Q276 700 291 718T330 737Q357 737 383 713L514 595L506 577L323 621Z" />
<glyph unicode="&#xed;" glyph-name="iacute" horiz-adv-x="305" d="M11 29L37 35Q48 38 55 41T67 49T72 61T74 82V409Q74 422 73 430T68 445T58 456T41 468L8 489V509L227 533L237 525Q235 493 234 467T233 411V82Q233 55 240 48T270 35L296 29V0H11V29ZM311
595L442 713Q467 737 495 737Q518 737 533 719T549 677Q549 660 539 644T503 621L319 577L311 595Z" />
<glyph unicode="&#xee;" glyph-name="icircumflex" horiz-adv-x="305" d="M11 29L37 35Q48 38 55 41T67 49T72 61T74 82V409Q74 422 73 430T68 445T58 456T41 468L8 489V509L227 533L237 525Q235 493 234 467T233 411V82Q233 55 240 48T270 35L296 29V0H11V29ZM261
588L383 731H434L557 588L546 571L409 630L272 571L261 588Z" />
<glyph unicode="&#xef;" glyph-name="idieresis" horiz-adv-x="305" d="M11 29L37 35Q48 38 55 41T67 49T72 61T74 82V409Q74 422 73 430T68 445T58 456T41 468L8 489V509L227 533L237 525Q235 493 234 467T233 411V82Q233 55 240 48T270 35L296 29V0H11V29ZM306
576Q274 576 252 597T229 651Q229 684 251 705T306 726Q339 726 361 705T384 651Q384 618 362 597T306 576ZM512 576Q479 576 457 597T434 651Q434 684 456 705T512 726Q544 726 566 705T589 651Q589 618 567 597T512 576Z" />
<glyph unicode="&#xf0;" glyph-name="eth" horiz-adv-x="582" d="M146 610L250 658Q200 701 126 737L136 765Q245 736 324 693L441 747L457 710L366 667Q466 601 514 509T563 301Q563 211 540 151T478 55T390 4T290 -12Q235 -12 186 4T100 53T41 136T19 255Q19
327 43 378T105 462T188 510T276 525Q307 525 328 519T366 498Q337 570 282 628L163 573L146 610ZM292 27Q314 27 333 35T365 66T386 134T394 250Q394 326 387 372T366 443T332 476T287 485Q263 485 245 476T214 442T194 377T187 272Q187 195 193 147T213 73T246
37T292 27Z" />
<glyph unicode="&#xf1;" glyph-name="ntilde" horiz-adv-x="627" d="M11 27L37 34Q49 37 56 40T68 50T73 65T74 91V402Q74 418 73 427T68 443T58 455T41 467L8 489V509L219 533L230 526L228 462H232Q272 491 320 512T424 533Q488 533 521 500T555 399V91Q555 74
556 65T561 49T572 40T591 34L617 27V0H338V27L362 33Q373 36 379 39T389 47T394 63T395 91V360Q395 406 378 423T326 440Q300 440 275 436T233 427V91Q233 73 234 63T238 47T248 39T266 33L290 27V0H11V27ZM154 585Q165 613 175 635T196 674T220 698T252 707Q268
707 288 703T328 695T368 687T404 683Q419 683 430 692T456 724L482 710Q471 682 462 660T441 621T417 597T384 588Q367 588 348 591T308 599T268 608T232 612Q216 612 205 603T180 571L154 585Z" />
<glyph unicode="&#xf2;" glyph-name="ograve" horiz-adv-x="581" d="M290 -12Q236 -12 187 4T100 55T41 139T19 259Q19 331 42 383T104 468T190 517T290 533Q344 533 393 517T480 467T540 383T562 264Q562 192 539 140T478 54T391 4T290 -12ZM293 27Q315 27 334
35T366 68T386 137T394 254Q394 330 387 377T366 450T332 485T287 494Q263 494 245 484T214 450T194 383T187 276Q187 199 193 151T213 75T246 37T293 27ZM203 621Q177 627 167 643T156 677Q156 700 171 718T210 737Q237 737 263 713L394 595L386 577L203 621Z"
/>
<glyph unicode="&#xf3;" glyph-name="oacute" horiz-adv-x="581" d="M290 -12Q236 -12 187 4T100 55T41 139T19 259Q19 331 42 383T104 468T190 517T290 533Q344 533 393 517T480 467T540 383T562 264Q562 192 539 140T478 54T391 4T290 -12ZM293 27Q315 27 334
35T366 68T386 137T394 254Q394 330 387 377T366 450T332 485T287 494Q263 494 245 484T214 450T194 383T187 276Q187 199 193 151T213 75T246 37T293 27ZM192 595L323 713Q348 737 376 737Q399 737 414 719T430 677Q430 660 420 644T384 621L200 577L192 595Z"
/>
<glyph unicode="&#xf4;" glyph-name="ocircumflex" horiz-adv-x="581" d="M290 -12Q236 -12 187 4T100 55T41 139T19 259Q19 331 42 383T104 468T190 517T290 533Q344 533 393 517T480 467T540 383T562 264Q562 192 539 140T478 54T391 4T290 -12ZM293 27Q315
27 334 35T366 68T386 137T394 254Q394 330 387 377T366 450T332 485T287 494Q263 494 245 484T214 450T194 383T187 276Q187 199 193 151T213 75T246 37T293 27ZM142 588L264 731H315L438 588L427 571L290 630L153 571L142 588Z" />
<glyph unicode="&#xf5;" glyph-name="otilde" horiz-adv-x="581" d="M290 -12Q236 -12 187 4T100 55T41 139T19 259Q19 331 42 383T104 468T190 517T290 533Q344 533 393 517T480 467T540 383T562 264Q562 192 539 140T478 54T391 4T290 -12ZM293 27Q315 27 334
35T366 68T386 137T394 254Q394 330 387 377T366 450T332 485T287 494Q263 494 245 484T214 450T194 383T187 276Q187 199 193 151T213 75T246 37T293 27ZM126 585Q137 613 147 635T168 674T192 698T224 707Q240 707 260 703T300 695T340 687T376 683Q391 683 402
692T428 724L454 710Q443 682 434 660T413 621T389 597T356 588Q339 588 320 591T280 599T240 608T204 612Q188 612 177 603T152 571L126 585Z" />
<glyph unicode="&#xf6;" glyph-name="odieresis" horiz-adv-x="581" d="M290 -12Q236 -12 187 4T100 55T41 139T19 259Q19 331 42 383T104 468T190 517T290 533Q344 533 393 517T480 467T540 383T562 264Q562 192 539 140T478 54T391 4T290 -12ZM293 27Q315 27
334 35T366 68T386 137T394 254Q394 330 387 377T366 450T332 485T287 494Q263 494 245 484T214 450T194 383T187 276Q187 199 193 151T213 75T246 37T293 27ZM187 576Q155 576 133 597T110 651Q110 684 132 705T187 726Q220 726 242 705T265 651Q265 618 243 597T187
576ZM393 576Q360 576 338 597T315 651Q315 684 337 705T393 726Q425 726 447 705T470 651Q470 618 448 597T393 576Z" />
<glyph unicode="&#xf7;" glyph-name="divide" horiz-adv-x="474" d="M238 108Q207 108 186 129T164 181Q164 213 185 233T238 254Q267 254 289 234T312 181Q312 151 290 130T238 108ZM238 423Q207 423 186 444T164 496Q164 528 185 549T238 570Q267 570 289 549T312
496Q312 466 290 445T238 423ZM37 367H437V310H37V367Z" />
<glyph unicode="&#xf8;" glyph-name="oslash" horiz-adv-x="581" d="M117 40Q72 73 46 127T19 259Q19 331 42 383T104 468T190 517T290 533Q366 533 430 501L485 582H534L465 479Q509 446 535 393T562 264Q562 192 539 140T478 54T391 4T290 -12Q215 -12 153 19L97
-64H47L117 40ZM182 248Q182 216 183 191T187 144L382 430Q368 470 344 482T287 494Q263 494 244 483T210 443T189 367T182 248ZM293 27Q317 27 336 38T370 77T391 155T399 280Q399 309 398 332T394 375L200 88Q213 51 235 39T293 27Z" />
<glyph unicode="&#xf9;" glyph-name="ugrave" horiz-adv-x="624" d="M203 -12Q143 -12 108 21T72 121V407Q72 423 71 432T67 448T58 459T41 470L6 490V511L220 533L232 524V160Q232 115 249 97T300 78Q327 78 351 85T394 98V407Q394 423 393 432T389 448T380 459T362
470L328 490V511L541 533L553 524V120Q553 102 554 91T558 73T568 62T586 53L615 41V17L408 -12L397 -4L399 63H394Q354 34 308 11T203 -12ZM231 621Q205 627 195 643T184 677Q184 700 199 718T238 737Q265 737 291 713L422 595L414 577L231 621Z" />
<glyph unicode="&#xfa;" glyph-name="uacute" horiz-adv-x="624" d="M203 -12Q143 -12 108 21T72 121V407Q72 423 71 432T67 448T58 459T41 470L6 490V511L220 533L232 524V160Q232 115 249 97T300 78Q327 78 351 85T394 98V407Q394 423 393 432T389 448T380 459T362
470L328 490V511L541 533L553 524V120Q553 102 554 91T558 73T568 62T586 53L615 41V17L408 -12L397 -4L399 63H394Q354 34 308 11T203 -12ZM220 595L351 713Q376 737 404 737Q427 737 442 719T458 677Q458 660 448 644T412 621L228 577L220 595Z" />
<glyph unicode="&#xfb;" glyph-name="ucircumflex" horiz-adv-x="624" d="M203 -12Q143 -12 108 21T72 121V407Q72 423 71 432T67 448T58 459T41 470L6 490V511L220 533L232 524V160Q232 115 249 97T300 78Q327 78 351 85T394 98V407Q394 423 393 432T389 448T380
459T362 470L328 490V511L541 533L553 524V120Q553 102 554 91T558 73T568 62T586 53L615 41V17L408 -12L397 -4L399 63H394Q354 34 308 11T203 -12ZM170 588L292 731H343L466 588L455 571L318 630L181 571L170 588Z" />
<glyph unicode="&#xfc;" glyph-name="udieresis" horiz-adv-x="624" d="M203 -12Q143 -12 108 21T72 121V407Q72 423 71 432T67 448T58 459T41 470L6 490V511L220 533L232 524V160Q232 115 249 97T300 78Q327 78 351 85T394 98V407Q394 423 393 432T389 448T380
459T362 470L328 490V511L541 533L553 524V120Q553 102 554 91T558 73T568 62T586 53L615 41V17L408 -12L397 -4L399 63H394Q354 34 308 11T203 -12ZM215 576Q183 576 161 597T138 651Q138 684 160 705T215 726Q248 726 270 705T293 651Q293 618 271 597T215 576ZM421
576Q388 576 366 597T343 651Q343 684 365 705T421 726Q453 726 475 705T498 651Q498 618 476 597T421 576Z" />
<glyph unicode="&#xfd;" glyph-name="yacute" horiz-adv-x="558" d="M122 -208Q77 -208 48 -188T19 -134Q19 -106 36 -91T82 -75Q112 -75 126 -87T149 -126Q154 -146 168 -146Q184 -146 202 -124T246 -42L257 -16L71 407Q60 431 53 445T40 468T28 480T14 487L-4
493V519H291V493L264 486Q249 481 241 473T233 447Q233 425 247 391L335 168H339L423 391Q437 428 437 451Q437 466 429 473T405 486L377 493V519H563V493L540 485Q531 482 525 477T512 463T499 438T482 397L296 -51Q281 -86 266 -115T231 -164T185 -196T122 -208ZM225
595L356 713Q381 737 409 737Q432 737 447 719T463 677Q463 660 453 644T417 621L233 577L225 595Z" />
<glyph unicode="&#xfe;" glyph-name="thorn" horiz-adv-x="612" d="M3 -179L30 -172Q42 -169 49 -166T60 -156T65 -141T66 -114V627Q66 646 65 657T61 675T51 686T35 695L-2 713V736L218 756L229 748Q228 734 227 716Q226 700 226 679T226 631V561Q226 540 226
523T224 493Q223 478 223 466H228Q258 492 299 512T394 533Q429 533 464 521T526 479T571 403T589 287Q589 209 568 153T508 60T416 6T300 -12Q284 -12 263 -10T224 -2Q224 -9 225 -19Q225 -27 225 -38T226 -63V-114Q226 -131 227 -141T231 -157T241 -165T260 -171L296
-179V-206H3V-179ZM304 28Q334 28 356 37T394 72T417 140T425 253Q425 307 417 343T394 403T357 436T306 446Q277 446 258 440T226 428V64Q240 48 259 38T304 28Z" />
<glyph unicode="&#xff;" glyph-name="ydieresis" horiz-adv-x="558" d="M122 -208Q77 -208 48 -188T19 -134Q19 -106 36 -91T82 -75Q112 -75 126 -87T149 -126Q154 -146 168 -146Q184 -146 202 -124T246 -42L257 -16L71 407Q60 431 53 445T40 468T28 480T14 487L-4
493V519H291V493L264 486Q249 481 241 473T233 447Q233 425 247 391L335 168H339L423 391Q437 428 437 451Q437 466 429 473T405 486L377 493V519H563V493L540 485Q531 482 525 477T512 463T499 438T482 397L296 -51Q281 -86 266 -115T231 -164T185 -196T122 -208ZM220
576Q188 576 166 597T143 651Q143 684 165 705T220 726Q253 726 275 705T298 651Q298 618 276 597T220 576ZM426 576Q393 576 371 597T348 651Q348 684 370 705T426 726Q458 726 480 705T503 651Q503 618 481 597T426 576Z" />
<glyph unicode="&#x100;" glyph-name="Amacron" horiz-adv-x="689" d="M-3 28L22 35Q33 38 41 43T56 58T71 87T90 136L291 693H391L598 133Q608 105 615 88T630 59T646 42T665 33L686 28V0H353V28L381 35Q401 40 409 49T417 75Q417 88 412 107T398 148L373 219H174L150
147Q143 126 139 109T135 79Q135 58 145 50T178 35L206 28V0H-3V28ZM188 263H358L275 507H270L188 263ZM199 816H482V743H199V816Z" />
<glyph unicode="&#x101;" glyph-name="amacron" horiz-adv-x="532" d="M167 -12Q96 -12 57 22T17 120Q17 153 29 177T64 220T121 251T197 274L298 299V386Q298 448 283 471T227 494Q204 494 196 487T185 458Q181 410 164 390T107 370Q74 370 57 386T39 432Q39
480 97 506T260 533Q354 533 406 502T458 396V119Q458 91 462 78T481 57Q491 52 504 50T528 47V23Q514 12 485 0T411 -12Q324 -12 307 49H302Q283 25 250 7T167 -12ZM242 59Q263 59 277 67T298 88V248L252 244Q214 241 194 220T174 145Q174 96 193 78T242 59ZM128
678H384V605H128V678Z" />
<glyph unicode="&#x102;" glyph-name="Abreve" horiz-adv-x="689" d="M-3 28L22 35Q33 38 41 43T56 58T71 87T90 136L291 693H391L598 133Q608 105 615 88T630 59T646 42T665 33L686 28V0H353V28L381 35Q401 40 409 49T417 75Q417 88 412 107T398 148L373 219H174L150
147Q143 126 139 109T135 79Q135 58 145 50T178 35L206 28V0H-3V28ZM188 263H358L275 507H270L188 263ZM340 725Q308 725 283 736T240 768T209 815T193 872L220 880Q235 853 262 837T340 820Q389 820 417 835T461 880L488 872Q484 842 472 815T442 768T398 737T340
725Z" />
<glyph unicode="&#x103;" glyph-name="abreve" horiz-adv-x="532" d="M167 -12Q96 -12 57 22T17 120Q17 153 29 177T64 220T121 251T197 274L298 299V386Q298 448 283 471T227 494Q204 494 196 487T185 458Q181 410 164 390T107 370Q74 370 57 386T39 432Q39 480
97 506T260 533Q354 533 406 502T458 396V119Q458 91 462 78T481 57Q491 52 504 50T528 47V23Q514 12 485 0T411 -12Q324 -12 307 49H302Q283 25 250 7T167 -12ZM242 59Q263 59 277 67T298 88V248L252 244Q214 241 194 220T174 145Q174 96 193 78T242 59ZM256 575Q228
575 206 586T166 618T138 665T122 722L149 730Q164 703 188 687T255 670Q297 670 321 685T361 730L389 722Q384 692 374 665T346 618T307 587T256 575Z" />
<glyph unicode="&#x104;" glyph-name="Aogonek" horiz-adv-x="689" d="M374 219H174L150 147Q143 126 139 109T135 79Q135 58 145 50T178 35L206 28V0H-3V28L22 35Q33 38 41 43T56 58T71 87T90 136L291 693H391L598 133Q608 105 615 88T630 59T646 42T665 33L686
28V0H570Q530 0 503 -8T458 -31T434 -62T426 -99Q426 -134 449 -144Q457 -148 468 -149T503 -151V-174Q492 -182 468 -192T408 -203Q366 -203 339 -184T312 -127Q312 -85 350 -54T447 6L374 219ZM189 263H359L275 507H270L189 263Z" />
<glyph unicode="&#x105;" glyph-name="aogonek" horiz-adv-x="532" d="M417 -203Q375 -203 348 -183T320 -125Q320 -90 351 -62T425 -11Q330 -16 307 49H302Q283 25 250 7T167 -12Q96 -12 57 22T17 120Q17 153 29 177T64 220T121 251T197 274L298 299V386Q298
448 283 471T227 494Q204 494 196 487T185 458Q181 410 164 390T107 370Q74 370 57 386T39 432Q39 480 97 506T260 533Q354 533 406 502T458 396V119Q458 91 462 78T481 57Q491 52 504 50T528 47V23Q510 13 494 1T464 -26T442 -60T434 -102Q434 -135 456 -144Q464
-148 475 -149T510 -151V-174Q499 -182 476 -192T417 -203ZM242 59Q263 59 277 67T298 88V248L252 244Q214 241 194 220T174 145Q174 96 193 78T242 59Z" />
<glyph unicode="&#x106;" glyph-name="Cacute" horiz-adv-x="624" d="M369 -12Q295 -12 232 10T124 76T53 186T27 341Q27 438 56 507T136 620T253 684T391 705Q449 705 499 698T581 682L592 475H561Q539 522 519 556T481 616Q461 642 439 652T380 663Q336 663
306 647T256 594T228 500T219 361Q219 263 228 200T258 98T308 45T380 30Q424 30 448 43T494 86Q514 115 532 148T570 229H599L588 29Q553 14 498 1T369 -12ZM258 742L405 856Q419 867 430 872T456 877Q479 877 494 858T510 815Q510 797 499 783T461 763L266 724L258
742Z" />
<glyph unicode="&#x107;" glyph-name="cacute" horiz-adv-x="496" d="M270 -12Q209 -12 163 7T84 61T36 146T19 258Q19 336 47 389T118 474T216 519T323 533Q398 533 440 510T482 440Q482 409 463 390T411 370Q372 370 357 393T339 448Q335 476 328 484T295 492Q274
492 253 485T216 456T189 398T179 301Q179 191 215 133T335 74Q382 74 417 85T480 111V79Q469 65 450 50T405 20T344 -3T270 -12ZM187 595L318 713Q343 737 371 737Q394 737 409 719T425 677Q425 660 415 644T379 621L195 577L187 595Z" />
<glyph unicode="&#x108;" glyph-name="Ccircumflex" horiz-adv-x="624" d="M369 -12Q295 -12 232 10T124 76T53 186T27 341Q27 438 56 507T136 620T253 684T391 705Q449 705 499 698T581 682L592 475H561Q539 522 519 556T481 616Q461 642 439 652T380 663Q336
663 306 647T256 594T228 500T219 361Q219 263 228 200T258 98T308 45T380 30Q424 30 448 43T494 86Q514 115 532 148T570 229H599L588 29Q553 14 498 1T369 -12ZM207 737L339 869H390L523 737L512 720L365 768L218 720L207 737Z" />
<glyph unicode="&#x109;" glyph-name="ccircumflex" horiz-adv-x="496" d="M270 -12Q209 -12 163 7T84 61T36 146T19 258Q19 336 47 389T118 474T216 519T323 533Q398 533 440 510T482 440Q482 409 463 390T411 370Q372 370 357 393T339 448Q335 476 328 484T295
492Q274 492 253 485T216 456T189 398T179 301Q179 191 215 133T335 74Q382 74 417 85T480 111V79Q469 65 450 50T405 20T344 -3T270 -12ZM137 588L259 731H310L433 588L422 571L285 630L148 571L137 588Z" />
<glyph unicode="&#x10a;" glyph-name="Cdotaccent" horiz-adv-x="624" d="M369 -12Q295 -12 232 10T124 76T53 186T27 341Q27 438 56 507T136 620T253 684T391 705Q449 705 499 698T581 682L592 475H561Q539 522 519 556T481 616Q461 642 439 652T380 663Q336
663 306 647T256 594T228 500T219 361Q219 263 228 200T258 98T308 45T380 30Q424 30 448 43T494 86Q514 115 532 148T570 229H599L588 29Q553 14 498 1T369 -12ZM365 723Q330 723 306 745T282 800Q282 834 306 855T365 877Q400 877 424 856T448 800Q448 767 424
745T365 723Z" />
<glyph unicode="&#x10b;" glyph-name="cdotaccent" horiz-adv-x="496" d="M270 -12Q209 -12 163 7T84 61T36 146T19 258Q19 336 47 389T118 474T216 519T323 533Q398 533 440 510T482 440Q482 409 463 390T411 370Q372 370 357 393T339 448Q335 476 328 484T295
492Q274 492 253 485T216 456T189 398T179 301Q179 191 215 133T335 74Q382 74 417 85T480 111V79Q469 65 450 50T405 20T344 -3T270 -12ZM285 567Q250 567 226 589T202 644Q202 678 226 699T285 721Q320 721 344 700T368 644Q368 611 344 589T285 567Z" />
<glyph unicode="&#x10c;" glyph-name="Ccaron" horiz-adv-x="624" d="M369 -12Q295 -12 232 10T124 76T53 186T27 341Q27 438 56 507T136 620T253 684T391 705Q449 705 499 698T581 682L592 475H561Q539 522 519 556T481 616Q461 642 439 652T380 663Q336 663
306 647T256 594T228 500T219 361Q219 263 228 200T258 98T308 45T380 30Q424 30 448 43T494 86Q514 115 532 148T570 229H599L588 29Q553 14 498 1T369 -12ZM217 867L228 884L365 829L502 884L513 867L390 728H340L217 867Z" />
<glyph unicode="&#x10d;" glyph-name="ccaron" horiz-adv-x="496" d="M270 -12Q209 -12 163 7T84 61T36 146T19 258Q19 336 47 389T118 474T216 519T323 533Q398 533 440 510T482 440Q482 409 463 390T411 370Q372 370 357 393T339 448Q335 476 328 484T295 492Q274
492 253 485T216 456T189 398T179 301Q179 191 215 133T335 74Q382 74 417 85T480 111V79Q469 65 450 50T405 20T344 -3T270 -12ZM137 723L148 739L285 680L422 739L433 723L310 579H260L137 723Z" />
<glyph unicode="&#x10e;" glyph-name="Dcaron" horiz-adv-x="730" d="M17 28L51 35Q62 38 69 41T81 51T88 72T90 108V585Q90 608 88 621T82 641T70 652T51 658L17 665V693H356Q434 693 498 674T607 615T678 511T703 359Q703 273 679 207T608 94T497 24T351 0H17V28ZM341
44Q434 44 473 116T513 335Q513 423 503 483T471 580T416 633T339 649Q316 649 298 647T272 640V135Q272 105 275 88T285 60T306 47T341 44ZM210 867L221 884L358 829L495 884L506 867L383 728H333L210 867Z" />
<glyph unicode="&#x10f;" glyph-name="dcaron" horiz-adv-x="617" d="M219 -12Q182 -12 147 2T84 46T40 125T23 242Q23 320 46 375T109 465T201 517T313 533Q333 533 353 530T389 522Q388 533 388 545Q387 556 387 568T387 595V627Q387 645 386 655T382 671T372
682T356 691L315 713V736L539 756L549 748Q548 734 547 716Q546 700 546 679T546 631V120Q546 102 547 91T551 73T561 62T579 53L608 41V17L401 -12L390 -4L392 53H388Q356 25 314 7T219 -12ZM303 67Q334 67 354 75T387 89V451Q374 467 356 480T309 493Q282 493
260 482T221 446T196 379T187 275Q187 216 194 176T216 112T252 78T303 67ZM589 563L596 704Q597 727 608 742T646 757Q670 757 686 743T703 708Q703 700 700 690T688 668L608 557L589 563Z" />
<glyph unicode="&#x110;" glyph-name="Dcroat" horiz-adv-x="730" d="M27 369H90V585Q90 608 88 621T82 641T70 652T51 658L17 665V693H356Q434 693 498 674T607 615T678 511T703 359Q703 273 679 207T608 94T497 24T351 0H17V28L51 35Q62 38 69 41T81 51T88 72T90
108V327H27V369ZM341 44Q434 44 473 116T513 335Q513 423 503 483T471 580T416 633T339 649Q316 649 298 647T272 640V369H404V327H272V135Q272 105 275 88T285 60T306 47T341 44Z" />
<glyph unicode="&#x111;" glyph-name="dcroat" horiz-adv-x="617" d="M230 643H387Q385 667 379 674T356 691L315 713V736L539 756L549 748Q548 735 547 719Q546 705 546 686T546 643H609V597H546V120Q546 102 547 91T551 73T561 62T579 53L608 41V17L401 -12L390
-4L392 53H388Q356 25 314 7T219 -12Q182 -12 147 2T84 46T40 125T23 242Q23 320 46 375T109 465T201 517T313 533Q333 533 353 530T389 522Q388 533 388 545Q387 556 387 568T387 595V597H230V643ZM303 67Q334 67 354 75T387 89V451Q374 467 356 480T309 493Q282
493 260 482T221 446T196 379T187 275Q187 216 194 176T216 112T252 78T303 67Z" />
<glyph unicode="&#x112;" glyph-name="Emacron" horiz-adv-x="618" d="M17 28L51 35Q62 38 69 41T81 51T88 72T90 108V585Q90 608 88 621T82 641T70 652T51 658L17 665V693H566L576 491H545Q526 533 513 557T488 598Q476 616 465 626T441 641T409 647T364 649Q325
649 304 646T272 639V381H299Q326 381 343 382T370 387T387 397T398 411Q409 430 415 447T429 488H459V227H429Q422 250 416 268T398 308Q393 317 388 323T372 332T344 337T299 338H272V144Q272 110 274 91T285 61T315 47T373 44Q403 44 422 46T456 55T480 73T504
104Q518 124 533 157T568 238H600L586 0H17V28ZM183 816H466V743H183V816Z" />
<glyph unicode="&#x113;" glyph-name="emacron" horiz-adv-x="526" d="M280 -12Q149 -12 84 61T19 262Q19 327 41 377T100 462T183 515T280 533Q332 533 373 520T444 476T489 399T507 283H177Q178 221 190 181T223 117T275 84T345 74Q392 74 427 85T492 112V79Q479
64 459 48T411 19T351 -3T280 -12ZM272 495Q253 495 237 486T207 455T186 401T177 321L348 330Q348 375 345 406T333 457T309 486T272 495ZM150 678H406V605H150V678Z" />
<glyph unicode="&#x114;" glyph-name="Ebreve" horiz-adv-x="618" d="M17 28L51 35Q62 38 69 41T81 51T88 72T90 108V585Q90 608 88 621T82 641T70 652T51 658L17 665V693H566L576 491H545Q526 533 513 557T488 598Q476 616 465 626T441 641T409 647T364 649Q325
649 304 646T272 639V381H299Q326 381 343 382T370 387T387 397T398 411Q409 430 415 447T429 488H459V227H429Q422 250 416 268T398 308Q393 317 388 323T372 332T344 337T299 338H272V144Q272 110 274 91T285 61T315 47T373 44Q403 44 422 46T456 55T480 73T504
104Q518 124 533 157T568 238H600L586 0H17V28ZM324 725Q292 725 267 736T224 768T193 815T177 872L204 880Q219 853 246 837T324 820Q373 820 401 835T445 880L472 872Q468 842 456 815T426 768T382 737T324 725Z" />
<glyph unicode="&#x115;" glyph-name="ebreve" horiz-adv-x="526" d="M280 -12Q149 -12 84 61T19 262Q19 327 41 377T100 462T183 515T280 533Q332 533 373 520T444 476T489 399T507 283H177Q178 221 190 181T223 117T275 84T345 74Q392 74 427 85T492 112V79Q479
64 459 48T411 19T351 -3T280 -12ZM272 495Q253 495 237 486T207 455T186 401T177 321L348 330Q348 375 345 406T333 457T309 486T272 495ZM279 575Q251 575 229 586T189 618T161 665T145 722L172 730Q187 703 211 687T278 670Q320 670 344 685T384 730L412 722Q407
692 397 665T369 618T330 587T279 575Z" />
<glyph unicode="&#x116;" glyph-name="Edotaccent" horiz-adv-x="618" d="M17 28L51 35Q62 38 69 41T81 51T88 72T90 108V585Q90 608 88 621T82 641T70 652T51 658L17 665V693H566L576 491H545Q526 533 513 557T488 598Q476 616 465 626T441 641T409 647T364 649Q325
649 304 646T272 639V381H299Q326 381 343 382T370 387T387 397T398 411Q409 430 415 447T429 488H459V227H429Q422 250 416 268T398 308Q393 317 388 323T372 332T344 337T299 338H272V144Q272 110 274 91T285 61T315 47T373 44Q403 44 422 46T456 55T480 73T504
104Q518 124 533 157T568 238H600L586 0H17V28ZM325 723Q290 723 266 745T242 800Q242 834 266 855T325 877Q360 877 384 856T408 800Q408 767 384 745T325 723Z" />
<glyph unicode="&#x117;" glyph-name="edotaccent" horiz-adv-x="526" d="M280 -12Q149 -12 84 61T19 262Q19 327 41 377T100 462T183 515T280 533Q332 533 373 520T444 476T489 399T507 283H177Q178 221 190 181T223 117T275 84T345 74Q392 74 427 85T492 112V79Q479
64 459 48T411 19T351 -3T280 -12ZM272 495Q253 495 237 486T207 455T186 401T177 321L348 330Q348 375 345 406T333 457T309 486T272 495ZM278 567Q243 567 219 589T195 644Q195 678 219 699T278 721Q313 721 337 700T361 644Q361 611 337 589T278 567Z" />
<glyph unicode="&#x118;" glyph-name="Eogonek" horiz-adv-x="618" d="M17 28L51 35Q62 38 69 41T81 51T88 72T90 108V585Q90 608 88 621T82 641T70 652T51 658L17 665V693H566L576 491H545Q526 533 513 557T488 598Q476 616 465 626T441 641T409 647T364 649Q325
649 304 646T272 639V381H299Q326 381 343 382T370 387T387 397T398 411Q409 430 415 447T429 488H459V227H429Q422 250 416 268T398 308Q393 317 388 323T372 332T344 337T299 338H272V144Q272 110 274 91T285 61T315 47T373 44Q403 44 422 46T456 55T480 73T504
104Q518 124 533 157T568 238H600L586 0H486Q468 -23 455 -48T441 -102Q441 -134 464 -144Q472 -148 483 -149T517 -151V-174Q506 -182 483 -192T424 -203Q382 -203 354 -183T325 -125Q325 -106 335 -88T363 -55T401 -26T446 0H17V28Z" />
<glyph unicode="&#x119;" glyph-name="eogonek" horiz-adv-x="526" d="M19 262Q19 327 41 377T100 462T183 515T280 533Q332 533 373 520T444 476T489 399T507 283H177Q178 222 190 182T223 117T275 84T345 74Q392 74 427 85T492 112V79Q473 59 447 39T403 4Q376
-18 358 -46T340 -102Q340 -135 362 -144Q371 -148 382 -149T416 -151V-174Q405 -182 382 -192T323 -203Q281 -203 254 -183T226 -125Q226 -106 236 -89T263 -57T301 -29T346 -3Q330 -7 314 -9T278 -12Q149 -12 84 61T19 262ZM272 495Q253 495 237 486T207 456T186
402T177 320L348 330Q348 375 345 406T333 457T309 486T272 495Z" />
<glyph unicode="&#x11a;" glyph-name="Ecaron" horiz-adv-x="618" d="M17 28L51 35Q62 38 69 41T81 51T88 72T90 108V585Q90 608 88 621T82 641T70 652T51 658L17 665V693H566L576 491H545Q526 533 513 557T488 598Q476 616 465 626T441 641T409 647T364 649Q325
649 304 646T272 639V381H299Q326 381 343 382T370 387T387 397T398 411Q409 430 415 447T429 488H459V227H429Q422 250 416 268T398 308Q393 317 388 323T372 332T344 337T299 338H272V144Q272 110 274 91T285 61T315 47T373 44Q403 44 422 46T456 55T480 73T504
104Q518 124 533 157T568 238H600L586 0H17V28ZM177 867L188 884L325 829L462 884L473 867L350 728H300L177 867Z" />
<glyph unicode="&#x11b;" glyph-name="ecaron" horiz-adv-x="526" d="M280 -12Q149 -12 84 61T19 262Q19 327 41 377T100 462T183 515T280 533Q332 533 373 520T444 476T489 399T507 283H177Q178 221 190 181T223 117T275 84T345 74Q392 74 427 85T492 112V79Q479
64 459 48T411 19T351 -3T280 -12ZM272 495Q253 495 237 486T207 455T186 401T177 321L348 330Q348 375 345 406T333 457T309 486T272 495ZM130 723L141 739L278 680L415 739L426 723L303 579H253L130 723Z" />
<glyph unicode="&#x11c;" glyph-name="Gcircumflex" horiz-adv-x="690" d="M386 -12Q209 -12 118 78T27 344Q27 441 57 510T140 622T261 685T408 705Q470 705 517 699T597 682L608 472H577Q556 519 539 549T503 606Q491 623 481 634T457 651T428 660T390 663Q299
663 258 591T217 360Q217 269 225 206T252 104T302 48T381 30Q407 30 425 36T457 50V200Q457 223 455 236T449 257T437 267T417 273L383 281V308H687V281L662 274Q652 271 646 268T636 258T631 237T629 200V26Q607 18 578 11T517 -1T451 -9T386 -12ZM221 737L353
869H404L537 737L526 720L379 768L232 720L221 737Z" />
<glyph unicode="&#x11d;" glyph-name="gcircumflex" horiz-adv-x="527" d="M214 -211Q102 -211 45 -181T-13 -94Q-13 -59 19 -33T113 7V11Q71 20 49 45T27 107Q27 128 34 146T53 178T78 205T104 226V230Q68 248 46 280T24 358Q24 401 41 433T87 488T156 521T239
533Q275 533 304 527T362 509Q385 530 414 544T476 559Q504 559 521 546T539 505Q539 482 528 465T490 448Q467 448 457 457T439 484Q432 498 417 498T384 489V486Q413 469 433 440T454 371Q454 328 437 296T391 242T322 209T239 198Q182 198 136 215Q128 208 121
196T114 171Q114 156 125 147T164 137H339Q375 137 405 131T459 109T495 67T508 2Q508 -41 490 -79T435 -147T343 -194T214 -211ZM235 -172Q323 -172 364 -144T405 -67Q405 -34 385 -18T317 -1H149Q135 -8 122 -26T108 -75Q108 -120 137 -146T235 -172ZM239 237Q274
237 290 263T306 361Q306 439 290 467T239 495Q204 495 188 468T172 369Q172 330 176 305T188 264T209 243T239 237ZM355 588L477 731H528L651 588L640 571L503 630L366 571L355 588Z" />
<glyph unicode="&#x11e;" glyph-name="Gbreve" horiz-adv-x="690" d="M386 -12Q209 -12 118 78T27 344Q27 441 57 510T140 622T261 685T408 705Q470 705 517 699T597 682L608 472H577Q556 519 539 549T503 606Q491 623 481 634T457 651T428 660T390 663Q299 663
258 591T217 360Q217 269 225 206T252 104T302 48T381 30Q407 30 425 36T457 50V200Q457 223 455 236T449 257T437 267T417 273L383 281V308H687V281L662 274Q652 271 646 268T636 258T631 237T629 200V26Q607 18 578 11T517 -1T451 -9T386 -12ZM379 725Q347 725
322 736T279 768T248 815T232 872L259 880Q274 853 301 837T379 820Q428 820 456 835T500 880L527 872Q523 842 511 815T481 768T437 737T379 725Z" />
<glyph unicode="&#x11f;" glyph-name="gbreve" horiz-adv-x="527" d="M214 -211Q102 -211 45 -181T-13 -94Q-13 -59 19 -33T113 7V11Q71 20 49 45T27 107Q27 128 34 146T53 178T78 205T104 226V230Q68 248 46 280T24 358Q24 401 41 433T87 488T156 521T239 533Q275
533 304 527T362 509Q385 530 414 544T476 559Q504 559 521 546T539 505Q539 482 528 465T490 448Q467 448 457 457T439 484Q432 498 417 498T384 489V486Q413 469 433 440T454 371Q454 328 437 296T391 242T322 209T239 198Q182 198 136 215Q128 208 121 196T114
171Q114 156 125 147T164 137H339Q375 137 405 131T459 109T495 67T508 2Q508 -41 490 -79T435 -147T343 -194T214 -211ZM235 -172Q323 -172 364 -144T405 -67Q405 -34 385 -18T317 -1H149Q135 -8 122 -26T108 -75Q108 -120 137 -146T235 -172ZM239 237Q274 237
290 263T306 361Q306 439 290 467T239 495Q204 495 188 468T172 369Q172 330 176 305T188 264T209 243T239 237ZM504 575Q476 575 454 586T414 618T386 665T370 722L397 730Q412 703 436 687T503 670Q545 670 569 685T609 730L637 722Q632 692 622 665T594 618T555
587T504 575Z" />
<glyph unicode="&#x120;" glyph-name="Gdotaccent" horiz-adv-x="690" d="M386 -12Q209 -12 118 78T27 344Q27 441 57 510T140 622T261 685T408 705Q470 705 517 699T597 682L608 472H577Q556 519 539 549T503 606Q491 623 481 634T457 651T428 660T390 663Q299
663 258 591T217 360Q217 269 225 206T252 104T302 48T381 30Q407 30 425 36T457 50V200Q457 223 455 236T449 257T437 267T417 273L383 281V308H687V281L662 274Q652 271 646 268T636 258T631 237T629 200V26Q607 18 578 11T517 -1T451 -9T386 -12ZM379 723Q344
723 320 745T296 800Q296 834 320 855T379 877Q414 877 438 856T462 800Q462 767 438 745T379 723Z" />
<glyph unicode="&#x121;" glyph-name="gdotaccent" horiz-adv-x="527" d="M214 -211Q102 -211 45 -181T-13 -94Q-13 -59 19 -33T113 7V11Q71 20 49 45T27 107Q27 128 34 146T53 178T78 205T104 226V230Q68 248 46 280T24 358Q24 401 41 433T87 488T156 521T239
533Q275 533 304 527T362 509Q385 530 414 544T476 559Q504 559 521 546T539 505Q539 482 528 465T490 448Q467 448 457 457T439 484Q432 498 417 498T384 489V486Q413 469 433 440T454 371Q454 328 437 296T391 242T322 209T239 198Q182 198 136 215Q128 208 121
196T114 171Q114 156 125 147T164 137H339Q375 137 405 131T459 109T495 67T508 2Q508 -41 490 -79T435 -147T343 -194T214 -211ZM235 -172Q323 -172 364 -144T405 -67Q405 -34 385 -18T317 -1H149Q135 -8 122 -26T108 -75Q108 -120 137 -146T235 -172ZM239 237Q274
237 290 263T306 361Q306 439 290 467T239 495Q204 495 188 468T172 369Q172 330 176 305T188 264T209 243T239 237ZM246 567Q211 567 187 589T163 644Q163 678 187 699T246 721Q281 721 305 700T329 644Q329 611 305 589T246 567Z" />
<glyph unicode="&#x122;" glyph-name="Gcommaaccent" horiz-adv-x="690" d="M386 -12Q209 -12 118 78T27 344Q27 441 57 510T140 622T261 685T408 705Q470 705 517 699T597 682L608 472H577Q556 519 539 549T503 606Q491 623 481 634T457 651T428 660T390 663Q299
663 258 591T217 360Q217 269 225 206T252 104T302 48T381 30Q407 30 425 36T457 50V200Q457 223 455 236T449 257T437 267T417 273L383 281V308H687V281L662 274Q652 271 646 268T636 258T631 237T629 200V26Q607 18 578 11T517 -1T451 -9T386 -12ZM293 -226Q320
-220 337 -213T364 -195T377 -174T380 -151Q376 -153 370 -155T355 -158Q329 -158 314 -143T298 -104Q298 -80 318 -63T370 -45Q404 -45 428 -66T452 -126Q452 -148 444 -168T417 -206T370 -235T299 -250L293 -226Z" />
<glyph unicode="&#x123;" glyph-name="gcommaaccent" horiz-adv-x="527" d="M214 -211Q102 -211 45 -181T-13 -94Q-13 -59 19 -33T113 7V11Q71 20 49 45T27 107Q27 128 34 146T53 178T78 205T104 226V230Q68 248 46 280T24 358Q24 401 41 433T87 488T156 521T239
533Q275 533 304 527T362 509Q385 530 414 544T476 559Q504 559 521 546T539 505Q539 482 528 465T490 448Q467 448 457 457T439 484Q432 498 417 498T384 489V486Q413 469 433 440T454 371Q454 328 437 296T391 242T322 209T239 198Q182 198 136 215Q128 208 121
196T114 171Q114 156 125 147T164 137H339Q375 137 405 131T459 109T495 67T508 2Q508 -41 490 -79T435 -147T343 -194T214 -211ZM235 -172Q323 -172 364 -144T405 -67Q405 -34 385 -18T317 -1H149Q135 -8 122 -26T108 -75Q108 -120 137 -146T235 -172ZM239 237Q274
237 290 263T306 361Q306 439 290 467T239 495Q204 495 188 468T172 369Q172 330 176 305T188 264T209 243T239 237ZM584 751Q531 739 514 719T497 675Q501 677 507 679T523 682Q548 682 563 667T579 628Q579 604 559 587T507 569Q473 569 450 590T426 650Q426
672 434 692T460 730T508 759T579 774L584 751Z" />
<glyph unicode="&#x124;" glyph-name="Hcircumflex" horiz-adv-x="768" d="M17 28L51 35Q62 38 69 41T81 51T88 72T90 108V585Q90 608 88 621T82 641T70 652T51 658L17 665V693H344V665L311 658Q299 655 292 652T280 641T274 621T272 585V377H496V585Q496 608
495 621T489 641T477 651T457 658L424 665V693H751V665L718 658Q706 655 699 652T687 642T680 621T678 585V108Q678 85 680 72T686 52T698 41T718 35L751 28V0H424V28L457 35Q469 38 476 41T488 52T494 72T496 108V331H272V108Q272 85 273 72T279 52T291 42T311
35L344 28V0H17V28ZM226 737L358 869H409L542 737L531 720L384 768L237 720L226 737Z" />
<glyph unicode="&#x125;" glyph-name="hcircumflex" horiz-adv-x="627" d="M11 27L37 34Q49 37 56 40T68 50T73 65T74 91V627Q74 645 73 656T69 674T60 685T43 695L6 713V736L226 756L237 748Q236 733 235 715Q234 699 234 678T233 631V563Q233 542 233 525T231
493Q230 477 230 464H235Q276 492 322 512T424 533Q488 533 521 500T555 399V91Q555 74 556 65T561 49T572 40T591 34L617 27V0H338V27L362 33Q373 36 379 39T389 47T394 63T395 91V360Q395 406 378 423T326 440Q300 440 275 436T233 427V91Q233 73 234 63T238
47T248 39T266 33L290 27V0H11V27ZM166 797L298 929H349L482 797L471 780L324 828L177 780L166 797Z" />
<glyph unicode="&#x126;" glyph-name="Hbar" horiz-adv-x="768" d="M11 534H90V585Q90 608 88 621T82 641T70 652T51 658L17 665V693H344V665L311 658Q299 655 292 652T280 641T274 621T272 585V534H496V585Q496 608 495 621T489 641T477 651T457 658L424 665V693H751V665L718
658Q706 655 699 652T687 642T680 621T678 585V534H757V491H678V108Q678 85 680 72T686 52T698 41T718 35L751 28V0H424V28L457 35Q469 38 476 41T488 52T494 72T496 108V331H272V108Q272 85 273 72T279 52T291 42T311 35L344 28V0H17V28L51 35Q62 38 69 41T81
51T88 72T90 108V491H11V534ZM496 377V491H272V377H496Z" />
<glyph unicode="&#x127;" glyph-name="hbar" horiz-adv-x="627" d="M0 643H74Q74 656 73 664T68 677T58 686T43 695L6 713V736L226 756L237 748Q236 735 235 718Q234 704 234 685T233 643H384V597H233V563Q233 542 233 525T231 493Q230 477 230 464H235Q276 492
322 512T424 533Q488 533 521 500T555 399V91Q555 74 556 65T561 49T572 40T591 34L617 27V0H338V27L362 33Q373 36 379 39T389 47T394 63T395 91V360Q395 406 378 423T326 440Q300 440 275 436T233 427V91Q233 73 234 63T238 47T248 39T266 33L290 27V0H11V27L37
34Q49 37 56 40T68 50T73 65T74 91V597H0V643Z" />
<glyph unicode="&#x128;" glyph-name="Itilde" horiz-adv-x="368" d="M17 28L54 35Q66 38 73 41T85 51T91 72T93 108V585Q93 608 92 621T86 641T74 652T54 658L17 665V693H352V665L315 658Q303 655 295 652T283 642T277 621T275 585V108Q275 85 276 72T282 52T295
41T315 35L352 28V0H17V28ZM271 733Q282 761 292 783T313 822T337 846T369 855Q385 855 407 851T451 843T495 835T533 831Q549 831 560 840T585 872L611 859Q600 831 591 808T570 769T546 745T513 736Q496 736 475 739T430 747T386 756T348 760Q332 760 322 752T297
720L271 733Z" />
<glyph unicode="&#x129;" glyph-name="itilde" horiz-adv-x="305" d="M11 29L37 35Q48 38 55 41T67 49T72 61T74 82V409Q74 422 73 430T68 445T58 456T41 468L8 489V509L227 533L237 525Q235 493 234 467T233 411V82Q233 55 240 48T270 35L296 29V0H11V29ZM245
585Q256 613 266 635T287 674T311 698T343 707Q359 707 379 703T419 695T459 687T495 683Q510 683 521 692T547 724L573 710Q562 682 553 660T532 621T508 597T475 588Q458 588 439 591T399 599T359 608T323 612Q307 612 296 603T271 571L245 585Z" />
<glyph unicode="&#x12a;" glyph-name="Imacron" horiz-adv-x="368" d="M17 28L54 35Q66 38 73 41T85 51T91 72T93 108V585Q93 608 92 621T86 641T74 652T54 658L17 665V693H352V665L315 658Q303 655 295 652T283 642T277 621T275 585V108Q275 85 276 72T282 52T295
41T315 35L352 28V0H17V28ZM300 816H583V743H300V816Z" />
<glyph unicode="&#x12b;" glyph-name="imacron" horiz-adv-x="305" d="M11 29L37 35Q48 38 55 41T67 49T72 61T74 82V409Q74 422 73 430T68 445T58 456T41 468L8 489V509L227 533L237 525Q235 493 234 467T233 411V82Q233 55 240 48T270 35L296 29V0H11V29ZM23
678H280V605H23V678Z" />
<glyph unicode="&#x12c;" glyph-name="Ibreve" horiz-adv-x="368" d="M17 28L54 35Q66 38 73 41T85 51T91 72T93 108V585Q93 608 92 621T86 641T74 652T54 658L17 665V693H352V665L315 658Q303 655 295 652T283 642T277 621T275 585V108Q275 85 276 72T282 52T295
41T315 35L352 28V0H17V28ZM441 725Q409 725 384 736T341 768T310 815T294 872L321 880Q336 853 363 837T441 820Q490 820 518 835T562 880L589 872Q585 842 573 815T543 768T499 737T441 725Z" />
<glyph unicode="&#x12d;" glyph-name="ibreve" horiz-adv-x="305" d="M11 29L37 35Q48 38 55 41T67 49T72 61T74 82V409Q74 422 73 430T68 445T58 456T41 468L8 489V509L227 533L237 525Q235 493 234 467T233 411V82Q233 55 240 48T270 35L296 29V0H11V29ZM410
575Q382 575 360 586T320 618T292 665T276 722L303 730Q318 703 342 687T409 670Q451 670 475 685T515 730L543 722Q538 692 528 665T500 618T461 587T410 575Z" />
<glyph unicode="&#x12e;" glyph-name="Iogonek" horiz-adv-x="368" d="M17 28L54 35Q66 38 73 41T85 51T91 72T93 108V585Q93 608 92 621T86 641T74 652T54 658L17 665V693H352V665L315 658Q303 655 295 652T283 642T277 621T275 585V108Q275 85 276 72T282 52T295
41T315 35L352 28V0H260Q243 -23 231 -47T219 -101Q219 -134 242 -144Q250 -148 261 -149T295 -151V-174Q284 -182 261 -192T202 -203Q160 -203 132 -182T103 -124Q103 -105 113 -88T139 -55T177 -26T219 0H17V28Z" />
<glyph unicode="&#x12f;" glyph-name="iogonek" horiz-adv-x="305" d="M11 27L37 34Q49 37 56 40T68 50T73 65T74 91V402Q74 418 73 427T68 443T58 455T41 467L8 489V509L227 533L237 526Q235 503 234 475T233 411V91Q233 74 234 64T239 49T250 40T270 34L296
27V0H222Q206 -23 194 -47T181 -101Q181 -134 204 -144Q212 -148 223 -149T258 -151V-174Q247 -182 224 -192T165 -203Q123 -203 96 -182T68 -124Q68 -105 78 -88T106 -55T144 -26T187 0H11V27ZM149 582Q112 582 87 605T61 664Q61 701 86 724T149 747Q186 747 211
724T237 664Q237 628 212 605T149 582Z" />
<glyph unicode="&#x130;" glyph-name="Idotaccent" horiz-adv-x="368" d="M17 28L54 35Q66 38 73 41T85 51T91 72T93 108V585Q93 608 92 621T86 641T74 652T54 658L17 665V693H352V665L315 658Q303 655 295 652T283 642T277 621T275 585V108Q275 85 276 72T282
52T295 41T315 35L352 28V0H17V28ZM442 723Q407 723 383 745T359 800Q359 834 383 855T442 877Q477 877 501 856T525 800Q525 767 501 745T442 723Z" />
<glyph unicode="&#x131;" glyph-name="dotlessi" horiz-adv-x="305" d="M11 29L37 35Q48 38 55 41T67 49T72 61T74 82V409Q74 422 73 430T68 445T58 456T41 468L8 489V509L227 533L237 525Q235 493 234 467T233 411V82Q233 55 240 48T270 35L296 29V0H11V29Z" />
<glyph unicode="&#x132;" glyph-name="IJ" horiz-adv-x="730" d="M17 28L54 35Q66 38 73 41T85 51T91 72T93 108V585Q93 608 92 621T86 641T74 652T54 658L17 665V693H352V665L315 658Q303 655 295 652T283 642T277 621T275 585V108Q275 85 276 72T282 52T295
41T315 35L352 28V0H17V28ZM391 -184Q318 -184 282 -159T246 -95Q246 -64 264 -47T316 -29Q354 -29 372 -48T399 -121Q402 -136 405 -140T418 -144Q436 -144 447 -127T458 -64V585Q458 608 457 621T451 641T439 652T419 658L384 665V693H713V665L680 658Q668 655
660 652T648 642T642 621T640 585V64Q640 9 623 -36T574 -115T496 -166T391 -184Z" />
<glyph unicode="&#x133;" glyph-name="ij" horiz-adv-x="305" d="M11 27L37 34Q49 37 56 40T68 50T73 65T74 91V402Q74 418 73 427T68 443T58 455T41 467L8 489V509L227 533L237 526Q235 503 234 475T233 411V91Q233 74 234 64T239 49T250 40T270 34L296 27V0H11V27ZM149
582Q112 582 87 605T61 664Q61 701 86 724T149 747Q186 747 211 724T237 664Q237 628 212 605T149 582ZM308 -212Q241 -212 209 -186T176 -120Q176 -91 194 -76T241 -61Q276 -61 292 -78T313 -145Q315 -162 318 -167T329 -172Q366 -172 366 -112V402Q366 418 365
427T360 443T350 455T333 467L300 489V509L519 533L529 526Q527 503 526 475T525 411V7Q525 -47 509 -87T464 -156T395 -198T308 -212ZM441 582Q403 582 378 605T353 664Q353 701 378 724T441 747Q478 747 503 724T528 664Q528 628 503 605T441 582Z" />
<glyph unicode="&#x134;" glyph-name="Jcircumflex" horiz-adv-x="362" d="M23 -184Q-51 -184 -86 -159T-122 -95Q-122 -64 -104 -47T-53 -29Q-15 -29 3 -48T31 -121Q34 -136 37 -140T50 -144Q68 -144 79 -127T90 -64V585Q90 608 89 621T83 641T71 652T51 658L16
665V693H345V665L311 658Q299 655 292 652T280 642T274 621T272 585V64Q272 9 255 -36T206 -115T127 -166T23 -184ZM279 737L411 869H462L595 737L584 720L437 768L290 720L279 737Z" />
<glyph unicode="&#x135;" glyph-name="jcircumflex" horiz-adv-x="300" d="M16 -212Q-51 -212 -83 -186T-116 -120Q-116 -91 -98 -76T-51 -61Q-16 -61 0 -78T21 -145Q23 -162 26 -167T37 -172Q74 -172 74 -112V402Q74 418 73 427T68 443T58 455T41 467L8 489V509L227
533L237 526Q235 503 234 475T233 411V7Q233 -47 217 -87T172 -156T103 -198T16 -212ZM258 588L380 731H431L554 588L543 571L406 630L269 571L258 588Z" />
<glyph unicode="&#x136;" glyph-name="Kcommaaccent" horiz-adv-x="718" d="M490 0Q435 75 386 158T296 329V347L473 551Q492 573 499 591T507 621Q507 648 474 657L445 665V693H686V665L663 659Q649 655 639 650T617 636T591 612T556 574L428 431Q452 384 480
333T539 233T599 139T655 59Q664 47 670 43T687 35L717 28V0H490ZM17 28L51 35Q62 38 69 41T81 51T88 72T90 108V585Q90 608 88 621T82 641T70 652T51 658L17 665V693H344V665L311 658Q299 655 292 652T280 641T274 621T272 585V108Q272 85 273 72T279 52T291 42T311
35L344 28V0H17V28ZM292 -226Q319 -220 336 -213T363 -195T376 -174T379 -151Q375 -153 369 -155T354 -158Q328 -158 313 -143T297 -104Q297 -80 317 -63T369 -45Q403 -45 427 -66T451 -126Q451 -148 443 -168T416 -206T369 -235T298 -250L292 -226Z" />
<glyph unicode="&#x137;" glyph-name="kcommaaccent" horiz-adv-x="594" d="M400 0Q354 63 316 126T248 246V262L361 384Q386 412 393 428T401 458Q401 479 364 488L349 493V519H568V493L547 487Q537 484 529 481T511 471T489 453T459 425L368 332Q387 296 409
259T454 185T498 118T539 62Q557 38 577 33L594 27V0H400ZM11 27L37 34Q49 37 56 40T68 50T73 65T74 91V627Q74 645 73 656T69 674T60 685T43 695L6 713V736L226 756L237 748Q236 733 235 715Q234 699 234 678T233 631V91Q233 74 234 64T238 48T248 39T265 33L288
27V0H11V27ZM228 -226Q255 -220 272 -213T299 -195T312 -174T315 -151Q311 -153 305 -155T290 -158Q264 -158 249 -143T233 -104Q233 -80 253 -63T305 -45Q339 -45 363 -66T387 -126Q387 -148 379 -168T352 -206T305 -235T234 -250L228 -226Z" />
<glyph unicode="&#x139;" glyph-name="Lacute" horiz-adv-x="597" d="M17 28L51 35Q62 38 69 41T81 51T88 72T90 108V585Q90 608 88 621T82 641T70 652T51 658L17 665V693H351V665L311 657Q299 654 292 651T280 641T274 621T272 585V132Q272 103 274 86T284 60T309
47T359 44Q389 44 408 46T441 55T465 72T487 101Q503 126 519 158T556 245H588L572 0H17V28ZM331 742L478 856Q492 867 503 872T529 877Q552 877 567 858T583 815Q583 797 572 783T534 763L339 724L331 742Z" />
<glyph unicode="&#x13a;" glyph-name="lacute" horiz-adv-x="309" d="M11 27L37 34Q50 37 58 40T70 50T75 65T76 91V627Q76 645 75 656T71 673T61 684T43 695L6 713V736L228 756L239 748Q238 733 237 715Q236 699 236 678T235 631V91Q235 74 236 65T241 49T253
40T274 34L300 27V0H11V27ZM302 798L449 912Q463 923 474 928T500 933Q523 933 538 914T554 871Q554 853 543 839T505 819L310 780L302 798Z" />
<glyph unicode="&#x13b;" glyph-name="Lcommaaccent" horiz-adv-x="597" d="M17 28L51 35Q62 38 69 41T81 51T88 72T90 108V585Q90 608 88 621T82 641T70 652T51 658L17 665V693H351V665L311 657Q299 654 292 651T280 641T274 621T272 585V132Q272 103 274 86T284
60T309 47T359 44Q389 44 408 46T441 55T465 72T487 101Q503 126 519 158T556 245H588L572 0H17V28ZM232 -226Q259 -220 276 -213T303 -195T316 -174T319 -151Q315 -153 309 -155T294 -158Q268 -158 253 -143T237 -104Q237 -80 257 -63T309 -45Q343 -45 367 -66T391
-126Q391 -148 383 -168T356 -206T309 -235T238 -250L232 -226Z" />
<glyph unicode="&#x13c;" glyph-name="lcommaaccent" horiz-adv-x="309" d="M11 27L37 34Q50 37 58 40T70 50T75 65T76 91V627Q76 645 75 656T71 673T61 684T43 695L6 713V736L228 756L239 748Q238 733 237 715Q236 699 236 678T235 631V91Q235 74 236 65T241
49T253 40T274 34L300 27V0H11V27ZM328 -226Q355 -220 372 -213T399 -195T412 -174T415 -151Q411 -153 405 -155T390 -158Q364 -158 349 -143T333 -104Q333 -80 353 -63T405 -45Q439 -45 463 -66T487 -126Q487 -148 479 -168T452 -206T405 -235T334 -250L328 -226Z"
/>
<glyph unicode="&#x13d;" glyph-name="Lcaron" horiz-adv-x="597" d="M394 501L401 652Q403 678 415 694T457 711Q483 711 501 696T519 658Q519 637 502 614L413 495L394 501ZM17 28L51 35Q62 38 69 41T81 51T88 72T90 108V585Q90 608 88 621T82 641T70 652T51
658L17 665V693H351V665L311 657Q299 654 292 651T280 641T274 621T272 585V132Q272 103 274 86T284 60T309 47T359 44Q389 44 408 46T441 55T465 72T487 101Q503 126 519 158T556 245H588L572 0H17V28Z" />
<glyph unicode="&#x13e;" glyph-name="lcaron" horiz-adv-x="309" d="M11 27L37 34Q50 37 58 40T70 50T75 65T76 91V627Q76 645 75 656T71 673T61 684T43 695L6 713V736L228 756L239 748Q238 733 237 715Q236 699 236 678T235 631V91Q235 74 236 65T241 49T253
40T274 34L300 27V0H11V27ZM278 563L285 704Q286 727 297 742T335 757Q359 757 375 743T392 708Q392 700 389 690T377 668L297 557L278 563Z" />
<glyph unicode="&#x13f;" glyph-name="Ldot" horiz-adv-x="597" d="M17 28L51 35Q62 38 69 41T81 51T88 72T90 108V585Q90 608 88 621T82 641T70 652T51 658L17 665V693H351V665L311 657Q299 654 292 651T280 641T274 621T272 585V132Q272 103 274 86T284 60T309
47T359 44Q389 44 408 46T441 53T465 69T487 95Q503 118 519 147T556 226H588L572 0H17V28ZM504 291Q487 291 472 298T446 316T429 342T422 374Q422 409 446 432T504 456Q520 456 535 450T563 433T582 407T589 374Q589 357 582 342T563 316T536 298T504 291Z" />
<glyph unicode="&#x140;" glyph-name="ldot" horiz-adv-x="371" d="M340 275Q312 275 292 295T272 343Q272 372 292 391T340 410Q367 410 388 391T409 343Q409 316 388 296T340 275ZM11 27L37 34Q50 37 58 40T70 50T75 65T76 91V627Q76 645 75 656T71 673T61 684T43
695L6 713V736L228 756L239 748Q238 733 237 715Q236 699 236 678T235 631V91Q235 74 236 65T241 49T253 40T274 34L300 27V0H11V27Z" />
<glyph unicode="&#x141;" glyph-name="Lslash" horiz-adv-x="597" d="M7 283L90 311V585Q90 608 88 621T82 641T70 652T51 658L17 665V693H351V665L311 657Q299 654 292 651T280 641T274 621T272 585V374L467 442V395L272 327V132Q272 103 274 86T284 60T309 47T359
44Q389 44 408 46T441 55T465 72T487 101Q503 126 519 158T556 245H588L572 0H17V28L51 35Q62 38 69 41T81 51T88 72T90 108V264L7 236V283Z" />
<glyph unicode="&#x142;" glyph-name="lslash" horiz-adv-x="309" d="M4 310L76 347V627Q76 645 75 656T71 673T61 684T43 695L6 713V736L228 756L239 748Q238 733 237 715Q236 699 236 678T235 631V428L308 466V417L235 379V91Q235 74 236 65T241 49T253 40T274
34L300 27V0H11V27L37 34Q50 37 58 40T70 50T75 65T76 91V298L4 261V310Z" />
<glyph unicode="&#x143;" glyph-name="Nacute" horiz-adv-x="698" d="M146 576H142V123Q142 95 143 79T150 54T165 42T189 35L225 28V0H17V28L47 35Q59 38 67 41T80 52T88 76T90 118V585Q90 608 88 621T82 641T70 652T51 658L17 665V693H280L554 289H558V570Q558
598 557 614T550 638T536 651T511 658L473 665V693H683V665L653 658Q641 655 633 652T620 641T612 617T610 575V-1H539L146 576ZM266 742L413 856Q427 867 438 872T464 877Q487 877 502 858T518 815Q518 797 507 783T469 763L274 724L266 742Z" />
<glyph unicode="&#x144;" glyph-name="nacute" horiz-adv-x="627" d="M11 27L37 34Q49 37 56 40T68 50T73 65T74 91V402Q74 418 73 427T68 443T58 455T41 467L8 489V509L219 533L230 526L228 462H232Q272 491 320 512T424 533Q488 533 521 500T555 399V91Q555
74 556 65T561 49T572 40T591 34L617 27V0H338V27L362 33Q373 36 379 39T389 47T394 63T395 91V360Q395 406 378 423T326 440Q300 440 275 436T233 427V91Q233 73 234 63T238 47T248 39T266 33L290 27V0H11V27ZM219 595L350 713Q375 737 403 737Q426 737 441 719T457
677Q457 660 447 644T411 621L227 577L219 595Z" />
<glyph unicode="&#x145;" glyph-name="Ncommaaccent" horiz-adv-x="698" d="M146 576H142V123Q142 95 143 79T150 54T165 42T189 35L225 28V0H17V28L47 35Q59 38 67 41T80 52T88 76T90 118V585Q90 608 88 621T82 641T70 652T51 658L17 665V693H280L554 289H558V570Q558
598 557 614T550 638T536 651T511 658L473 665V693H683V665L653 658Q641 655 633 652T620 641T612 617T610 575V-1H539L146 576ZM265 -226Q292 -220 309 -213T336 -195T349 -174T352 -151Q348 -153 342 -155T327 -158Q301 -158 286 -143T270 -104Q270 -80 290 -63T342
-45Q376 -45 400 -66T424 -126Q424 -148 416 -168T389 -206T342 -235T271 -250L265 -226Z" />
<glyph unicode="&#x146;" glyph-name="ncommaaccent" horiz-adv-x="627" d="M11 27L37 34Q49 37 56 40T68 50T73 65T74 91V402Q74 418 73 427T68 443T58 455T41 467L8 489V509L219 533L230 526L228 462H232Q272 491 320 512T424 533Q488 533 521 500T555 399V91Q555
74 556 65T561 49T572 40T591 34L617 27V0H338V27L362 33Q373 36 379 39T389 47T394 63T395 91V360Q395 406 378 423T326 440Q300 440 275 436T233 427V91Q233 73 234 63T238 47T248 39T266 33L290 27V0H11V27ZM236 -226Q263 -220 280 -213T307 -195T320 -174T323
-151Q319 -153 313 -155T298 -158Q272 -158 257 -143T241 -104Q241 -80 261 -63T313 -45Q347 -45 371 -66T395 -126Q395 -148 387 -168T360 -206T313 -235T242 -250L236 -226Z" />
<glyph unicode="&#x147;" glyph-name="Ncaron" horiz-adv-x="698" d="M146 576H142V123Q142 95 143 79T150 54T165 42T189 35L225 28V0H17V28L47 35Q59 38 67 41T80 52T88 76T90 118V585Q90 608 88 621T82 641T70 652T51 658L17 665V693H280L554 289H558V570Q558
598 557 614T550 638T536 651T511 658L473 665V693H683V665L653 658Q641 655 633 652T620 641T612 617T610 575V-1H539L146 576ZM226 867L237 884L374 829L511 884L522 867L399 728H349L226 867Z" />
<glyph unicode="&#x148;" glyph-name="ncaron" horiz-adv-x="627" d="M11 27L37 34Q49 37 56 40T68 50T73 65T74 91V402Q74 418 73 427T68 443T58 455T41 467L8 489V509L219 533L230 526L228 462H232Q272 491 320 512T424 533Q488 533 521 500T555 399V91Q555
74 556 65T561 49T572 40T591 34L617 27V0H338V27L362 33Q373 36 379 39T389 47T394 63T395 91V360Q395 406 378 423T326 440Q300 440 275 436T233 427V91Q233 73 234 63T238 47T248 39T266 33L290 27V0H11V27ZM170 723L181 739L318 680L455 739L466 723L343 579H293L170
723Z" />
<glyph unicode="&#x149;" glyph-name="napostrophe" horiz-adv-x="701" d="M-81 476Q-33 497 -12 524T9 582Q5 579 -2 576T-20 573Q-46 573 -63 590T-80 639Q-80 670 -58 687T-4 705Q29 705 56 682T83 613Q83 552 44 511T-74 453L-81 476ZM85 27L111 34Q123 37
130 40T142 50T147 65T148 91V402Q148 418 147 427T142 443T132 455T115 467L82 489V509L293 533L304 526L302 462H306Q346 491 394 512T498 533Q562 533 595 500T629 399V91Q629 74 630 65T635 49T646 40T665 34L691 27V0H412V27L436 33Q447 36 453 39T463 47T468
63T469 91V360Q469 406 452 423T400 440Q374 440 349 436T307 427V91Q307 73 308 63T312 47T322 39T340 33L364 27V0H85V27Z" />
<glyph unicode="&#x14a;" glyph-name="Eng" horiz-adv-x="698" d="M493 -144Q517 -144 533 -117T551 -18L146 576H142V123Q142 95 143 79T150 54T165 42T189 35L225 28V0H17V28L47 35Q59 38 67 41T80 52T88 76T90 118V585Q90 608 88 621T82 641T70 652T51 658L17
665V693H280L554 289H558V570Q558 598 557 614T550 638T536 651T511 658L473 665V693H683V665L653 658Q641 655 633 652T620 641T612 617T610 575V-4Q610 -38 602 -70T575 -127T528 -168T458 -184Q423 -184 399 -177T358 -157T335 -128T328 -94Q328 -66 346 -50T394
-34Q412 -34 424 -38T444 -53T458 -79T469 -119Q473 -135 477 -139T493 -144Z" />
<glyph unicode="&#x14b;" glyph-name="eng" horiz-adv-x="612" d="M338 -212Q272 -212 240 -187T207 -123Q207 -94 225 -80T271 -65Q305 -65 320 -82T342 -146Q344 -163 347 -167T359 -172Q376 -172 385 -158T395 -112V360Q395 406 378 423T326 440Q300 440 275
436T233 427V91Q233 73 234 63T239 47T250 39T269 33L295 27V0H11V27L37 34Q49 37 56 40T68 50T73 65T74 91V402Q74 418 73 427T68 443T58 455T41 467L8 489V509L219 533L230 526L228 462H232Q272 491 320 512T424 533Q488 533 521 500T555 399V7Q555 -47 539 -87T493
-156T424 -198T338 -212Z" />
<glyph unicode="&#x14c;" glyph-name="Omacron" horiz-adv-x="728" d="M360 -12Q295 -12 235 9T129 73T54 182T26 338Q26 437 57 506T137 620T247 684T368 705Q432 705 492 685T599 623T674 514T702 354Q702 255 671 185T591 72T481 8T360 -12ZM366 30Q403 30
430 44T476 92T503 185T512 332Q512 420 504 482T478 585T432 644T362 663Q326 663 299 649T253 600T225 506T216 359Q216 272 223 210T249 107T295 49T366 30ZM222 816H505V743H222V816Z" />
<glyph unicode="&#x14d;" glyph-name="omacron" horiz-adv-x="581" d="M290 -12Q236 -12 187 4T100 55T41 139T19 259Q19 331 42 383T104 468T190 517T290 533Q344 533 393 517T480 467T540 383T562 264Q562 192 539 140T478 54T391 4T290 -12ZM293 27Q315 27
334 35T366 68T386 137T394 254Q394 330 387 377T366 450T332 485T287 494Q263 494 245 484T214 450T194 383T187 276Q187 199 193 151T213 75T246 37T293 27ZM162 678H418V605H162V678Z" />
<glyph unicode="&#x14e;" glyph-name="Obreve" horiz-adv-x="728" d="M360 -12Q295 -12 235 9T129 73T54 182T26 338Q26 437 57 506T137 620T247 684T368 705Q432 705 492 685T599 623T674 514T702 354Q702 255 671 185T591 72T481 8T360 -12ZM366 30Q403 30 430
44T476 92T503 185T512 332Q512 420 504 482T478 585T432 644T362 663Q326 663 299 649T253 600T225 506T216 359Q216 272 223 210T249 107T295 49T366 30ZM363 725Q331 725 306 736T263 768T232 815T216 872L243 880Q258 853 285 837T363 820Q412 820 440 835T484
880L511 872Q507 842 495 815T465 768T421 737T363 725Z" />
<glyph unicode="&#x14f;" glyph-name="obreve" horiz-adv-x="581" d="M290 -12Q236 -12 187 4T100 55T41 139T19 259Q19 331 42 383T104 468T190 517T290 533Q344 533 393 517T480 467T540 383T562 264Q562 192 539 140T478 54T391 4T290 -12ZM293 27Q315 27 334
35T366 68T386 137T394 254Q394 330 387 377T366 450T332 485T287 494Q263 494 245 484T214 450T194 383T187 276Q187 199 193 151T213 75T246 37T293 27ZM291 575Q263 575 241 586T201 618T173 665T157 722L184 730Q199 703 223 687T290 670Q332 670 356 685T396
730L424 722Q419 692 409 665T381 618T342 587T291 575Z" />
<glyph unicode="&#x150;" glyph-name="Ohungarumlaut" horiz-adv-x="728" d="M360 -12Q295 -12 235 9T129 73T54 182T26 338Q26 437 57 506T137 620T247 684T368 705Q432 705 492 685T599 623T674 514T702 354Q702 255 671 185T591 72T481 8T360 -12ZM366 30Q403
30 430 44T476 92T503 185T512 332Q512 420 504 482T478 585T432 644T362 663Q326 663 299 649T253 600T225 506T216 359Q216 272 223 210T249 107T295 49T366 30ZM248 737L312 853Q323 875 333 884T358 893Q367 893 377 889T396 877T410 859T416 838Q416 823 407
809T375 781L266 721L248 737ZM417 737L481 853Q492 875 503 884T527 893Q537 893 548 888T568 875T582 857T588 836Q588 822 580 811T550 787L435 721L417 737Z" />
<glyph unicode="&#x151;" glyph-name="ohungarumlaut" horiz-adv-x="581" d="M290 -12Q236 -12 187 4T100 55T41 139T19 259Q19 331 42 383T104 468T190 517T290 533Q344 533 393 517T480 467T540 383T562 264Q562 192 539 140T478 54T391 4T290 -12ZM293 27Q315
27 334 35T366 68T386 137T394 254Q394 330 387 377T366 450T332 485T287 494Q263 494 245 484T214 450T194 383T187 276Q187 199 193 151T213 75T246 37T293 27ZM168 589L240 715Q261 755 288 755Q307 755 326 739T346 699Q346 684 337 669T305 641L186 573L168
589ZM337 589L409 715Q430 755 457 755Q467 755 478 750T498 737T512 719T518 698Q518 684 510 672T480 646L355 573L337 589Z" />
<glyph unicode="&#x152;" glyph-name="OE" horiz-adv-x="1000" d="M382 0Q311 0 247 17T133 75T55 179T26 339Q26 432 55 498T135 608T251 672T389 693H947L957 491H927Q908 533 895 557T870 598Q858 616 847 626T822 641T790 647T746 649Q706 649 686 646T653
639V381H681Q707 381 724 382T751 387T768 397T779 411Q790 430 796 447T810 488H840V227H810Q804 250 797 268T779 308Q774 317 769 323T753 332T725 337T680 338H653V144Q653 110 655 91T667 61T697 47T755 44Q785 44 804 46T837 55T861 73T885 104Q899 124 914
157T950 238H981L967 0H382ZM387 39Q413 39 429 43T455 58T467 86T471 129V564Q471 589 468 606T454 633T427 649T381 654Q335 654 304 639T253 589T225 498T216 361Q216 269 224 208T252 109T305 55T387 39Z" />
<glyph unicode="&#x153;" glyph-name="oe" horiz-adv-x="893" d="M285 -12Q232 -12 184 4T99 55T41 139T19 259Q19 331 42 383T103 468T191 517T291 533Q348 533 395 511T475 449Q508 488 554 510T654 533Q703 533 743 520T813 476T858 399T875 283H546Q547 221
559 181T592 117T643 84T712 74Q759 74 795 85T860 112V79Q846 64 826 48T778 19T718 -3T647 -12Q582 -12 538 9T466 66Q431 28 385 8T285 -12ZM292 27Q314 27 332 35T363 68T383 137T390 254Q390 330 384 377T364 450T331 485T286 494Q262 494 244 484T213 450T194
383T187 276Q187 199 193 151T212 75T245 37T292 27ZM640 495Q601 495 575 455T546 321L715 330Q715 375 712 406T700 457T677 486T640 495Z" />
<glyph unicode="&#x154;" glyph-name="Racute" horiz-adv-x="704" d="M17 28L51 35Q62 38 69 41T81 51T88 72T90 108V585Q90 608 88 621T82 641T70 652T51 658L17 665V693H345Q493 693 559 647T625 510Q625 445 592 405T489 343V340Q504 307 524 269T565 194T609
121T653 58Q661 47 668 43T691 33L707 28V0H485Q464 29 442 66T398 145T357 227T324 303Q321 303 313 303T296 303T280 303T271 304V108Q271 85 272 72T278 52T290 41T309 35L343 28V0H17V28ZM318 342Q350 342 373 349T411 375T433 422T441 496Q441 582 418 615T337
649Q290 649 271 642V346Q275 345 287 344T318 342ZM231 742L378 856Q392 867 403 872T429 877Q452 877 467 858T483 815Q483 797 472 783T434 763L239 724L231 742Z" />
<glyph unicode="&#x155;" glyph-name="racute" horiz-adv-x="463" d="M11 27L37 34Q49 37 56 40T68 50T73 65T74 91V402Q74 418 73 427T68 443T58 455T41 467L8 489V509L219 533L230 525L228 456H232Q244 468 260 482T295 507T335 525T378 533Q414 533 434 514T455
458Q455 422 435 403T386 383Q369 383 358 385T338 393T323 407T309 428Q304 436 300 438T288 441Q274 441 259 433T233 415V91Q233 73 234 63T238 47T249 39T267 34L300 27V0H11V27ZM160 595L291 713Q316 737 344 737Q367 737 382 719T398 677Q398 660 388 644T352
621L168 577L160 595Z" />
<glyph unicode="&#x156;" glyph-name="Rcommaaccent" horiz-adv-x="704" d="M17 28L51 35Q62 38 69 41T81 51T88 72T90 108V585Q90 608 88 621T82 641T70 652T51 658L17 665V693H345Q493 693 559 647T625 510Q625 445 592 405T489 343V340Q504 307 524 269T565
194T609 121T653 58Q661 47 668 43T691 33L707 28V0H485Q464 29 442 66T398 145T357 227T324 303Q321 303 313 303T296 303T280 303T271 304V108Q271 85 272 72T278 52T290 41T309 35L343 28V0H17V28ZM318 342Q350 342 373 349T411 375T433 422T441 496Q441 582
418 615T337 649Q290 649 271 642V346Q275 345 287 344T318 342ZM291 -226Q318 -220 335 -213T362 -195T375 -174T378 -151Q374 -153 368 -155T353 -158Q327 -158 312 -143T296 -104Q296 -80 316 -63T368 -45Q402 -45 426 -66T450 -126Q450 -148 442 -168T415 -206T368
-235T297 -250L291 -226Z" />
<glyph unicode="&#x157;" glyph-name="rcommaaccent" horiz-adv-x="463" d="M11 27L37 34Q49 37 56 40T68 50T73 65T74 91V402Q74 418 73 427T68 443T58 455T41 467L8 489V509L219 533L230 525L228 456H232Q244 468 260 482T295 507T335 525T378 533Q414 533 434
514T455 458Q455 422 435 403T386 383Q369 383 358 385T338 393T323 407T309 428Q304 436 300 438T288 441Q274 441 259 433T233 415V91Q233 73 234 63T238 47T249 39T267 34L300 27V0H11V27ZM323 -226Q350 -220 367 -213T394 -195T407 -174T410 -151Q406 -153
400 -155T385 -158Q359 -158 344 -143T328 -104Q328 -80 348 -63T400 -45Q434 -45 458 -66T482 -126Q482 -148 474 -168T447 -206T400 -235T329 -250L323 -226Z" />
<glyph unicode="&#x158;" glyph-name="Rcaron" horiz-adv-x="704" d="M17 28L51 35Q62 38 69 41T81 51T88 72T90 108V585Q90 608 88 621T82 641T70 652T51 658L17 665V693H345Q493 693 559 647T625 510Q625 445 592 405T489 343V340Q504 307 524 269T565 194T609
121T653 58Q661 47 668 43T691 33L707 28V0H485Q464 29 442 66T398 145T357 227T324 303Q321 303 313 303T296 303T280 303T271 304V108Q271 85 272 72T278 52T290 41T309 35L343 28V0H17V28ZM318 342Q350 342 373 349T411 375T433 422T441 496Q441 582 418 615T337
649Q290 649 271 642V346Q275 345 287 344T318 342ZM191 867L202 884L339 829L476 884L487 867L364 728H314L191 867Z" />
<glyph unicode="&#x159;" glyph-name="rcaron" horiz-adv-x="463" d="M11 27L37 34Q49 37 56 40T68 50T73 65T74 91V402Q74 418 73 427T68 443T58 455T41 467L8 489V509L219 533L230 525L228 456H232Q244 468 260 482T295 507T335 525T378 533Q414 533 434 514T455
458Q455 422 435 403T386 383Q369 383 358 385T338 393T323 407T309 428Q304 436 300 438T288 441Q274 441 259 433T233 415V91Q233 73 234 63T238 47T249 39T267 34L300 27V0H11V27ZM110 723L121 739L258 680L395 739L406 723L283 579H233L110 723Z" />
<glyph unicode="&#x15a;" glyph-name="Sacute" horiz-adv-x="528" d="M240 -12Q170 -12 118 -3T36 20L24 213H56Q77 172 94 143T131 86Q143 69 155 58T181 41T211 33T249 30Q308 30 336 59T364 136Q364 158 358 176T334 210T289 243T216 276Q162 297 126 319T69
369T38 427T29 497Q29 543 47 581T97 646T175 689T277 705Q342 705 383 699T453 681L463 510H432Q422 529 414 544T398 571T382 595T362 620Q352 632 343 640T324 654T299 661T264 664Q212 664 185 640T158 570Q158 549 163 533T182 502T222 473T293 442Q351 419
391 396T456 347T492 289T504 221Q504 173 487 131T436 57T353 7T240 -12ZM164 742L311 856Q325 867 336 872T362 877Q385 877 400 858T416 815Q416 797 405 783T367 763L172 724L164 742Z" />
<glyph unicode="&#x15b;" glyph-name="sacute" horiz-adv-x="432" d="M188 -12Q144 -12 103 -6T31 9L24 165H52Q68 135 83 112T117 66Q132 47 152 38T204 28Q240 28 263 46T287 99Q287 116 281 129T261 154T224 176T168 200Q100 225 62 262T24 365Q24 401 38 431T79
484T146 520T237 533Q280 533 316 528T374 514L380 378H353Q338 405 325 425T296 462Q279 481 263 487T219 494Q187 494 168 477T148 429Q148 415 152 403T167 380T198 359T247 337Q337 304 375 265T413 167Q413 88 356 38T188 -12ZM381 595L512 713Q537 737 565
737Q588 737 603 719T619 677Q619 660 609 644T573 621L389 577L381 595Z" />
<glyph unicode="&#x15c;" glyph-name="Scircumflex" horiz-adv-x="528" d="M240 -12Q170 -12 118 -3T36 20L24 213H56Q77 172 94 143T131 86Q143 69 155 58T181 41T211 33T249 30Q308 30 336 59T364 136Q364 158 358 176T334 210T289 243T216 276Q162 297 126
319T69 369T38 427T29 497Q29 543 47 581T97 646T175 689T277 705Q342 705 383 699T453 681L463 510H432Q422 529 414 544T398 571T382 595T362 620Q352 632 343 640T324 654T299 661T264 664Q212 664 185 640T158 570Q158 549 163 533T182 502T222 473T293 442Q351
419 391 396T456 347T492 289T504 221Q504 173 487 131T436 57T353 7T240 -12ZM113 737L245 869H296L429 737L418 720L271 768L124 720L113 737Z" />
<glyph unicode="&#x15d;" glyph-name="scircumflex" horiz-adv-x="432" d="M188 -12Q144 -12 103 -6T31 9L24 165H52Q68 135 83 112T117 66Q132 47 152 38T204 28Q240 28 263 46T287 99Q287 116 281 129T261 154T224 176T168 200Q100 225 62 262T24 365Q24 401
38 431T79 484T146 520T237 533Q280 533 316 528T374 514L380 378H353Q338 405 325 425T296 462Q279 481 263 487T219 494Q187 494 168 477T148 429Q148 415 152 403T167 380T198 359T247 337Q337 304 375 265T413 167Q413 88 356 38T188 -12ZM331 588L453 731H504L627
588L616 571L479 630L342 571L331 588Z" />
<glyph unicode="&#x15e;" glyph-name="Scedilla" horiz-adv-x="528" d="M146 -183Q231 -165 231 -130Q231 -116 218 -110T181 -101L176 -93L216 -12Q155 -10 109 -1T36 20L24 213H56Q77 172 94 143T131 86Q143 69 155 58T181 41T211 33T249 30Q308 30 336 59T364
136Q364 158 358 176T334 210T289 243T216 276Q162 297 126 319T69 369T38 427T29 497Q29 543 47 581T97 646T175 689T277 705Q342 705 383 699T453 681L463 510H432Q422 529 414 544T398 571T382 595T362 620Q352 632 343 640T324 654T299 661T264 664Q212 664
185 640T158 570Q158 549 163 533T182 502T222 473T293 442Q351 419 391 396T456 347T492 289T504 221Q504 174 488 133T440 61T362 10T256 -12L232 -46Q275 -50 297 -67T320 -109Q320 -132 307 -149T270 -177T214 -195T146 -205V-183Z" />
<glyph unicode="&#x15f;" glyph-name="scedilla" horiz-adv-x="432" d="M100 -183Q185 -165 185 -130Q185 -116 172 -110T135 -101L130 -93L170 -12Q131 -10 95 -5T31 9L24 165H52Q68 135 83 112T117 66Q132 47 152 38T204 28Q240 28 263 46T287 99Q287 116 281
129T261 154T224 176T168 200Q100 225 62 262T24 365Q24 401 38 431T79 484T146 520T237 533Q280 533 316 528T374 514L380 378H353Q338 405 325 425T296 462Q279 481 263 487T219 494Q187 494 168 477T148 429Q148 415 152 403T167 380T198 359T247 337Q337 304
375 265T413 167Q413 92 362 43T210 -11L186 -46Q229 -50 251 -67T274 -109Q274 -132 261 -149T224 -177T168 -195T100 -205V-183Z" />
<glyph unicode="&#x160;" glyph-name="Scaron" horiz-adv-x="528" d="M240 -12Q170 -12 118 -3T36 20L24 213H56Q77 172 94 143T131 86Q143 69 155 58T181 41T211 33T249 30Q308 30 336 59T364 136Q364 158 358 176T334 210T289 243T216 276Q162 297 126 319T69
369T38 427T29 497Q29 543 47 581T97 646T175 689T277 705Q342 705 383 699T453 681L463 510H432Q422 529 414 544T398 571T382 595T362 620Q352 632 343 640T324 654T299 661T264 664Q212 664 185 640T158 570Q158 549 163 533T182 502T222 473T293 442Q351 419
391 396T456 347T492 289T504 221Q504 173 487 131T436 57T353 7T240 -12ZM123 867L134 884L271 829L408 884L419 867L296 728H246L123 867Z" />
<glyph unicode="&#x161;" glyph-name="scaron" horiz-adv-x="432" d="M188 -12Q144 -12 103 -6T31 9L24 165H52Q68 135 83 112T117 66Q132 47 152 38T204 28Q240 28 263 46T287 99Q287 116 281 129T261 154T224 176T168 200Q100 225 62 262T24 365Q24 401 38 431T79
484T146 520T237 533Q280 533 316 528T374 514L380 378H353Q338 405 325 425T296 462Q279 481 263 487T219 494Q187 494 168 477T148 429Q148 415 152 403T167 380T198 359T247 337Q337 304 375 265T413 167Q413 88 356 38T188 -12ZM331 723L342 739L479 680L616
739L627 723L504 579H454L331 723Z" />
<glyph unicode="&#x162;" glyph-name="Tcommaaccent" horiz-adv-x="634" d="M148 28L185 35Q198 38 206 41T218 51T224 72T226 108V649H216Q193 649 179 648T153 641T133 627T114 603Q96 577 82 546T45 462H13L21 693H613L621 462H590Q568 514 553 545T520 603Q509
618 501 627T482 641T456 647T418 649H408V108Q408 85 409 72T415 52T427 41T449 35L486 28V0H148V28ZM231 -226Q258 -220 275 -213T302 -195T315 -174T318 -151Q314 -153 308 -155T293 -158Q267 -158 252 -143T236 -104Q236 -80 256 -63T308 -45Q342 -45 366 -66T390
-126Q390 -148 382 -168T355 -206T308 -235T237 -250L231 -226Z" />
<glyph unicode="&#x163;" glyph-name="tcommaaccent" horiz-adv-x="365" d="M202 -12Q134 -12 99 20T63 126V460H0V484Q59 507 102 549T166 652H223V519H356L343 460H223V136Q223 98 236 82T288 66Q306 66 326 69T360 75V47Q351 39 337 29T304 9T259 -6T202 -12ZM358
-226Q385 -220 402 -213T429 -195T442 -174T445 -151Q441 -153 435 -155T420 -158Q394 -158 379 -143T363 -104Q363 -80 383 -63T435 -45Q469 -45 493 -66T517 -126Q517 -148 509 -168T482 -206T435 -235T364 -250L358 -226Z" />
<glyph unicode="&#x164;" glyph-name="Tcaron" horiz-adv-x="634" d="M148 28L185 35Q198 38 206 41T218 51T224 72T226 108V649H216Q193 649 179 648T153 641T133 627T114 603Q96 577 82 546T45 462H13L21 693H613L621 462H590Q568 514 553 545T520 603Q509 618
501 627T482 641T456 647T418 649H408V108Q408 85 409 72T415 52T427 41T449 35L486 28V0H148V28ZM168 867L179 884L316 829L453 884L464 867L341 728H291L168 867Z" />
<glyph unicode="&#x165;" glyph-name="tcaron" horiz-adv-x="365" d="M202 -12Q134 -12 99 20T63 126V460H0V484Q59 507 102 549T166 652H223V519H356L343 460H223V136Q223 98 236 82T288 66Q306 66 326 69T360 75V47Q351 39 337 29T304 9T259 -6T202 -12ZM280
563L287 704Q288 727 299 742T337 757Q361 757 377 743T394 708Q394 700 391 690T379 668L299 557L280 563Z" />
<glyph unicode="&#x166;" glyph-name="Tbar" horiz-adv-x="634" d="M79 397H227V649H217Q194 649 179 648T153 641T134 627T115 603Q97 577 82 546T45 462H13L21 693H613L622 462H590Q568 514 554 545T521 603Q510 618 501 627T482 641T457 647T418 649H408V397H556V354H408V108Q408
85 409 72T415 52T428 41T450 35L487 28V0H148V28L185 35Q198 38 206 41T219 51T225 72T227 108V354H79V397Z" />
<glyph unicode="&#x167;" glyph-name="tbar" horiz-adv-x="365" d="M0 372H63V460H0V484Q59 507 102 549T166 652H223V519H356L343 460H223V372H351V326H223V136Q223 98 236 82T288 66Q306 66 326 69T360 75V47Q351 39 337 29T304 9T259 -6T202 -12Q134 -12 99
20T63 126V326H0V372Z" />
<glyph unicode="&#x168;" glyph-name="Utilde" horiz-adv-x="703" d="M373 -12Q310 -12 257 0T165 40T106 112T84 222V585Q84 608 82 621T76 641T64 652T44 658L10 665V693H338V665L305 658Q293 655 286 652T274 642T268 621T266 585V202Q266 124 301 89T421 53Q500
53 534 96T569 216V570Q569 598 568 614T561 638T546 651T521 658L482 665V693H693V665L662 658Q651 655 643 652T630 641T623 617T621 575V209Q621 163 607 123T562 52T484 5T373 -12ZM237 733Q248 761 258 783T279 822T303 846T335 855Q351 855 373 851T417 843T461
835T499 831Q515 831 526 840T551 872L577 859Q566 831 557 808T536 769T512 745T479 736Q462 736 441 739T396 747T352 756T314 760Q298 760 288 752T263 720L237 733Z" />
<glyph unicode="&#x169;" glyph-name="utilde" horiz-adv-x="624" d="M203 -12Q143 -12 108 21T72 121V407Q72 423 71 432T67 448T58 459T41 470L6 490V511L220 533L232 524V160Q232 115 249 97T300 78Q327 78 351 85T394 98V407Q394 423 393 432T389 448T380
459T362 470L328 490V511L541 533L553 524V120Q553 102 554 91T558 73T568 62T586 53L615 41V17L408 -12L397 -4L399 63H394Q354 34 308 11T203 -12ZM154 585Q165 613 175 635T196 674T220 698T252 707Q268 707 288 703T328 695T368 687T404 683Q419 683 430 692T456
724L482 710Q471 682 462 660T441 621T417 597T384 588Q367 588 348 591T308 599T268 608T232 612Q216 612 205 603T180 571L154 585Z" />
<glyph unicode="&#x16a;" glyph-name="Umacron" horiz-adv-x="703" d="M373 -12Q310 -12 257 0T165 40T106 112T84 222V585Q84 608 82 621T76 641T64 652T44 658L10 665V693H338V665L305 658Q293 655 286 652T274 642T268 621T266 585V202Q266 124 301 89T421
53Q500 53 534 96T569 216V570Q569 598 568 614T561 638T546 651T521 658L482 665V693H693V665L662 658Q651 655 643 652T630 641T623 617T621 575V209Q621 163 607 123T562 52T484 5T373 -12ZM266 816H549V743H266V816Z" />
<glyph unicode="&#x16b;" glyph-name="umacron" horiz-adv-x="624" d="M203 -12Q143 -12 108 21T72 121V407Q72 423 71 432T67 448T58 459T41 470L6 490V511L220 533L232 524V160Q232 115 249 97T300 78Q327 78 351 85T394 98V407Q394 423 393 432T389 448T380
459T362 470L328 490V511L541 533L553 524V120Q553 102 554 91T558 73T568 62T586 53L615 41V17L408 -12L397 -4L399 63H394Q354 34 308 11T203 -12ZM190 678H446V605H190V678Z" />
<glyph unicode="&#x16c;" glyph-name="Ubreve" horiz-adv-x="703" d="M373 -12Q310 -12 257 0T165 40T106 112T84 222V585Q84 608 82 621T76 641T64 652T44 658L10 665V693H338V665L305 658Q293 655 286 652T274 642T268 621T266 585V202Q266 124 301 89T421 53Q500
53 534 96T569 216V570Q569 598 568 614T561 638T546 651T521 658L482 665V693H693V665L662 658Q651 655 643 652T630 641T623 617T621 575V209Q621 163 607 123T562 52T484 5T373 -12ZM407 725Q375 725 350 736T307 768T276 815T260 872L287 880Q302 853 329 837T407
820Q456 820 484 835T528 880L555 872Q551 842 539 815T509 768T465 737T407 725Z" />
<glyph unicode="&#x16d;" glyph-name="ubreve" horiz-adv-x="624" d="M203 -12Q143 -12 108 21T72 121V407Q72 423 71 432T67 448T58 459T41 470L6 490V511L220 533L232 524V160Q232 115 249 97T300 78Q327 78 351 85T394 98V407Q394 423 393 432T389 448T380
459T362 470L328 490V511L541 533L553 524V120Q553 102 554 91T558 73T568 62T586 53L615 41V17L408 -12L397 -4L399 63H394Q354 34 308 11T203 -12ZM319 575Q291 575 269 586T229 618T201 665T185 722L212 730Q227 703 251 687T318 670Q360 670 384 685T424 730L452
722Q447 692 437 665T409 618T370 587T319 575Z" />
<glyph unicode="&#x16e;" glyph-name="Uring" horiz-adv-x="703" d="M373 -12Q310 -12 257 0T165 40T106 112T84 222V585Q84 608 82 621T76 641T64 652T44 658L10 665V693H338V665L305 658Q293 655 286 652T274 642T268 621T266 585V202Q266 124 301 89T421 53Q500
53 534 96T569 216V570Q569 598 568 614T561 638T546 651T521 658L482 665V693H693V665L662 658Q651 655 643 652T630 641T623 617T621 575V209Q621 163 607 123T562 52T484 5T373 -12ZM409 700Q363 700 336 726T309 793Q309 835 337 861T409 887Q452 887 480 861T509
793Q509 753 481 727T409 700ZM409 735Q433 735 448 751T463 793Q463 819 448 835T409 852Q386 852 371 836T355 793Q355 768 370 752T409 735Z" />
<glyph unicode="&#x16f;" glyph-name="uring" horiz-adv-x="624" d="M203 -12Q143 -12 108 21T72 121V407Q72 423 71 432T67 448T58 459T41 470L6 490V511L220 533L232 524V160Q232 115 249 97T300 78Q327 78 351 85T394 98V407Q394 423 393 432T389 448T380 459T362
470L328 490V511L541 533L553 524V120Q553 102 554 91T558 73T568 62T586 53L615 41V17L408 -12L397 -4L399 63H394Q354 34 308 11T203 -12ZM318 571Q272 571 245 597T218 664Q218 706 246 732T318 758Q361 758 389 732T418 664Q418 624 390 598T318 571ZM318 606Q342
606 357 622T372 664Q372 690 357 706T318 723Q295 723 280 707T264 664Q264 639 279 623T318 606Z" />
<glyph unicode="&#x170;" glyph-name="Uhungarumlaut" horiz-adv-x="703" d="M373 -12Q310 -12 257 0T165 40T106 112T84 222V585Q84 608 82 621T76 641T64 652T44 658L10 665V693H338V665L305 658Q293 655 286 652T274 642T268 621T266 585V202Q266 124 301 89T421
53Q500 53 534 96T569 216V570Q569 598 568 614T561 638T546 651T521 658L482 665V693H693V665L662 658Q651 655 643 652T630 641T623 617T621 575V209Q621 163 607 123T562 52T484 5T373 -12ZM292 737L356 853Q367 875 377 884T402 893Q411 893 421 889T440 877T454
859T460 838Q460 823 451 809T419 781L310 721L292 737ZM461 737L525 853Q536 875 547 884T571 893Q581 893 592 888T612 875T626 857T632 836Q632 822 624 811T594 787L479 721L461 737Z" />
<glyph unicode="&#x171;" glyph-name="uhungarumlaut" horiz-adv-x="624" d="M203 -12Q143 -12 108 21T72 121V407Q72 423 71 432T67 448T58 459T41 470L6 490V511L220 533L232 524V160Q232 115 249 97T300 78Q327 78 351 85T394 98V407Q394 423 393 432T389 448T380
459T362 470L328 490V511L541 533L553 524V120Q553 102 554 91T558 73T568 62T586 53L615 41V17L408 -12L397 -4L399 63H394Q354 34 308 11T203 -12ZM196 589L268 715Q289 755 316 755Q335 755 354 739T374 699Q374 684 365 669T333 641L214 573L196 589ZM365 589L437
715Q458 755 485 755Q495 755 506 750T526 737T540 719T546 698Q546 684 538 672T508 646L383 573L365 589Z" />
<glyph unicode="&#x172;" glyph-name="Uogonek" horiz-adv-x="703" d="M411 -203Q366 -203 339 -183T311 -125Q311 -89 344 -60T424 -8Q401 -12 373 -12Q310 -12 257 0T165 40T106 112T84 222V585Q84 608 82 621T76 641T64 652T44 658L10 665V693H338V665L305
658Q293 655 286 652T274 642T268 621T266 585V202Q266 124 301 89T421 53Q500 53 534 96T569 216V570Q569 598 568 614T561 638T546 651T521 658L482 665V693H693V665L662 658Q651 655 643 652T630 641T623 617T621 575V209Q621 149 597 100T520 21Q477 -4 452
-31T426 -102Q426 -134 449 -144Q457 -148 468 -149T503 -151V-174Q492 -182 468 -192T411 -203Z" />
<glyph unicode="&#x173;" glyph-name="uogonek" horiz-adv-x="624" d="M384 -203Q342 -203 315 -183T288 -125Q288 -107 297 -91T322 -61T356 -35T397 -13L399 63H394Q354 34 308 11T203 -12Q143 -12 108 21T72 121V407Q72 423 71 432T67 448T58 459T41 470L6
490V511L220 533L232 524V160Q232 115 249 97T300 78Q327 78 351 85T394 98V407Q394 423 393 432T389 448T380 459T362 470L328 490V511L541 533L553 524V120Q553 102 554 91T558 73T568 62T586 53L615 41V17L548 9Q508 4 480 -7T435 -34T410 -66T402 -102Q402
-135 424 -144Q432 -148 443 -149T478 -151V-174Q467 -182 444 -192T384 -203Z" />
<glyph unicode="&#x174;" glyph-name="Wcircumflex" horiz-adv-x="1013" d="M84 570Q75 594 69 610T57 637T43 652T24 660L-1 665V693H322V665L297 659Q280 654 272 646T264 621Q264 606 269 586T281 545L390 196H395L489 484L458 584Q446 621 434 637T401 659L378
665V693H701V665L665 658Q634 650 634 617Q634 603 638 585T649 545L758 196H763L864 546Q870 566 873 584T877 617Q877 636 868 645T841 659L809 665V693H1014V665L991 660Q967 653 954 628T921 546L749 0H645L518 405H514L380 0H274L84 570ZM382 737L514 869H565L698
737L687 720L540 768L393 720L382 737Z" />
<glyph unicode="&#x175;" glyph-name="wcircumflex" horiz-adv-x="840" d="M74 408Q66 430 59 444T46 466T32 479T14 487L-5 493V519H277V493L255 487Q230 480 230 456Q230 445 234 429T246 391L320 160H326L400 375L389 408Q381 430 375 444T364 467T352 480T337
487L317 493V519H596V493L569 486Q541 479 541 447Q541 427 553 391L629 160H634L706 391Q712 411 715 424T718 448Q718 478 687 486L660 493V519H845V493L827 487Q817 484 810 479T795 464T781 438T764 397L620 0H534L426 308H423L311 0H226L74 408ZM310 588L432
731H483L606 588L595 571L458 630L321 571L310 588Z" />
<glyph unicode="&#x176;" glyph-name="Ycircumflex" horiz-adv-x="648" d="M166 28L203 35Q216 38 224 41T237 51T242 72T244 108V285L88 573Q75 597 66 612T50 636T34 651T16 659L-4 665V693H338V665L309 659Q271 649 271 618Q271 607 276 593T289 561L394 347H399L491
554Q502 576 505 590T508 617Q508 633 499 643T467 658L440 665V693H652V665L631 659Q620 655 611 649T593 631T575 603T554 562L426 291V108Q426 85 427 72T433 52T446 41T468 35L505 28V0H166V28ZM217 737L349 869H400L533 737L522 720L375 768L228 720L217 737Z"
/>
<glyph unicode="&#x177;" glyph-name="ycircumflex" horiz-adv-x="558" d="M122 -208Q77 -208 48 -188T19 -134Q19 -106 36 -91T82 -75Q112 -75 126 -87T149 -126Q154 -146 168 -146Q184 -146 202 -124T246 -42L257 -16L71 407Q60 431 53 445T40 468T28 480T14
487L-4 493V519H291V493L264 486Q249 481 241 473T233 447Q233 425 247 391L335 168H339L423 391Q437 428 437 451Q437 466 429 473T405 486L377 493V519H563V493L540 485Q531 482 525 477T512 463T499 438T482 397L296 -51Q281 -86 266 -115T231 -164T185 -196T122
-208ZM175 588L297 731H348L471 588L460 571L323 630L186 571L175 588Z" />
<glyph unicode="&#x178;" glyph-name="Ydieresis" horiz-adv-x="648" d="M166 28L203 35Q216 38 224 41T237 51T242 72T244 108V285L88 573Q75 597 66 612T50 636T34 651T16 659L-4 665V693H338V665L309 659Q271 649 271 618Q271 607 276 593T289 561L394 347H399L491
554Q502 576 505 590T508 617Q508 633 499 643T467 658L440 665V693H652V665L631 659Q620 655 611 649T593 631T575 603T554 562L426 291V108Q426 85 427 72T433 52T446 41T468 35L505 28V0H166V28ZM264 724Q232 724 210 745T187 799Q187 833 209 854T264 875Q297
875 319 854T342 799Q342 766 320 745T264 724ZM486 724Q453 724 431 745T408 799Q408 833 430 854T486 875Q518 875 540 854T563 799Q563 766 541 745T486 724Z" />
<glyph unicode="&#x179;" glyph-name="Zacute" horiz-adv-x="579" d="M18 44L368 649V652H332Q281 652 250 651T200 645T170 631T148 606Q138 592 130 579T114 551T96 517T75 471H45L57 693H565V649L216 47V43H258Q312 43 345 45T398 53T430 69T456 97Q467 112
476 127T494 159T512 197T533 244H565L549 0H18V44ZM202 742L349 856Q363 867 374 872T400 877Q423 877 438 858T454 815Q454 797 443 783T405 763L210 724L202 742Z" />
<glyph unicode="&#x17a;" glyph-name="zacute" horiz-adv-x="489" d="M12 43L297 473V477H249Q222 477 204 476T174 472T153 463T135 447Q115 426 101 403T65 342H38L49 519H474V479L190 46V42H239Q273 42 295 43T332 49T357 61T376 80Q394 103 410 128T444 184H472L456
0H12V43ZM163 595L294 713Q319 737 347 737Q370 737 385 719T401 677Q401 660 391 644T355 621L171 577L163 595Z" />
<glyph unicode="&#x17b;" glyph-name="Zdotaccent" horiz-adv-x="579" d="M18 44L368 649V652H332Q281 652 250 651T200 645T170 631T148 606Q138 592 130 579T114 551T96 517T75 471H45L57 693H565V649L216 47V43H258Q312 43 345 45T398 53T430 69T456 97Q467
112 476 127T494 159T512 197T533 244H565L549 0H18V44ZM309 723Q274 723 250 745T226 800Q226 834 250 855T309 877Q344 877 368 856T392 800Q392 767 368 745T309 723Z" />
<glyph unicode="&#x17c;" glyph-name="zdotaccent" horiz-adv-x="489" d="M12 43L297 473V477H249Q222 477 204 476T174 472T153 463T135 447Q115 426 101 403T65 342H38L49 519H474V479L190 46V42H239Q273 42 295 43T332 49T357 61T376 80Q394 103 410 128T444
184H472L456 0H12V43ZM261 567Q226 567 202 589T178 644Q178 678 202 699T261 721Q296 721 320 700T344 644Q344 611 320 589T261 567Z" />
<glyph unicode="&#x17d;" glyph-name="Zcaron" horiz-adv-x="579" d="M18 44L368 649V652H332Q281 652 250 651T200 645T170 631T148 606Q138 592 130 579T114 551T96 517T75 471H45L57 693H565V649L216 47V43H258Q312 43 345 45T398 53T430 69T456 97Q467 112
476 127T494 159T512 197T533 244H565L549 0H18V44ZM161 867L172 884L309 829L446 884L457 867L334 728H284L161 867Z" />
<glyph unicode="&#x17e;" glyph-name="zcaron" horiz-adv-x="489" d="M12 43L297 473V477H249Q222 477 204 476T174 472T153 463T135 447Q115 426 101 403T65 342H38L49 519H474V479L190 46V42H239Q273 42 295 43T332 49T357 61T376 80Q394 103 410 128T444 184H472L456
0H12V43ZM113 723L124 739L261 680L398 739L409 723L286 579H236L113 723Z" />
<glyph unicode="&#x192;" glyph-name="florin" horiz-adv-x="500" d="M54 403H138L148 469Q165 591 228 648T398 705Q462 705 497 679T532 613Q532 584 515 570T471 555Q439 555 423 572T401 634Q398 656 394 661T376 666Q365 666 357 662T342 646T329 615T319
564L295 403H417V356H288L243 54Q233 -15 215 -63T168 -141T102 -184T16 -198Q-19 -198 -43 -191T-81 -172T-102 -145T-109 -115Q-109 -89 -93 -74T-47 -59Q-19 -59 -6 -73T13 -130Q16 -149 19 -154T31 -159Q45 -159 54 -143T69 -80L131 356H54V403Z" />
<glyph unicode="&#x1fa;" glyph-name="Aringacute" horiz-adv-x="689" d="M-3 28L22 35Q33 38 41 43T56 58T71 87T90 136L291 693H391L598 133Q608 105 615 88T630 59T646 42T665 33L686 28V0H353V28L381 35Q401 40 409 49T417 75Q417 88 412 107T398 148L373
219H174L150 147Q143 126 139 109T135 79Q135 58 145 50T178 35L206 28V0H-3V28ZM188 263H358L275 507H270L188 263ZM340 719Q294 719 267 745T240 812Q240 854 268 880T340 906Q383 906 411 880T440 812Q440 772 412 746T340 719ZM340 754Q364 754 379 770T394
812Q394 838 379 854T340 871Q317 871 302 855T286 812Q286 787 301 771T340 754ZM232 934L379 1048Q393 1059 404 1064T430 1069Q453 1069 468 1050T484 1007Q484 989 473 975T435 955L240 916L232 934Z" />
<glyph unicode="&#x1fb;" glyph-name="aringacute" horiz-adv-x="532" d="M167 -12Q96 -12 57 22T17 120Q17 153 29 177T64 220T121 251T197 274L298 299V386Q298 448 283 471T227 494Q204 494 196 487T185 458Q181 410 164 390T107 370Q74 370 57 386T39 432Q39
480 97 506T260 533Q354 533 406 502T458 396V119Q458 91 462 78T481 57Q491 52 504 50T528 47V23Q514 12 485 0T411 -12Q324 -12 307 49H302Q283 25 250 7T167 -12ZM242 59Q263 59 277 67T298 88V248L252 244Q214 241 194 220T174 145Q174 96 193 78T242 59ZM256
571Q210 571 183 597T156 664Q156 706 184 732T256 758Q299 758 327 732T356 664Q356 624 328 598T256 571ZM256 606Q280 606 295 622T310 664Q310 690 295 706T256 723Q233 723 218 707T202 664Q202 639 217 623T256 606ZM148 790L295 904Q309 915 320 920T346
925Q369 925 384 906T400 863Q400 845 389 831T351 811L156 772L148 790Z" />
<glyph unicode="&#x1fc;" glyph-name="AEacute" horiz-adv-x="931" d="M-4 28L20 35Q32 38 41 42T61 57T83 86T113 136L403 642Q395 649 385 652T364 658L328 665V693H879L889 491H859Q841 533 828 557T804 598Q792 616 781 626T757 641T726 647T685 649Q652 649
629 646T594 640V381H615Q641 381 658 382T685 387T702 397T713 411Q724 430 730 447T744 488H774V227H744Q737 250 731 268T713 308Q708 317 703 323T687 332T659 337T614 338H594V144Q594 110 596 91T607 61T636 47T691 44Q721 44 740 46T772 55T796 73T818 104Q832
124 847 157T881 238H913L898 0H347V28L380 35Q391 38 399 41T412 51T419 72T422 108V209H215L182 148Q169 125 160 105T150 68Q149 56 156 48T183 35L210 28V0H-4V28ZM238 251H422V581H419L238 251ZM526 742L673 856Q687 867 698 872T724 877Q747 877 762 858T778
815Q778 797 767 783T729 763L534 724L526 742Z" />
<glyph unicode="&#x1fd;" glyph-name="aeacute" horiz-adv-x="786" d="M548 -12Q413 -12 350 68Q315 26 270 7T172 -12Q97 -12 57 21T17 119Q17 152 29 176T64 218T120 249T197 272L296 297V386Q296 444 282 469T226 494Q203 494 195 487T184 458Q180 410 163
390T106 370Q38 370 38 434Q38 457 53 475T96 506T162 526T249 533Q306 533 343 516T400 470Q429 499 467 516T551 533Q600 533 640 519T708 473T752 392T768 274H447Q449 215 462 177T496 115T547 83T611 74Q656 74 690 85T753 112V79Q740 64 720 48T675 19T617
-3T548 -12ZM541 495Q501 495 475 453T447 311L614 321Q614 413 599 454T541 495ZM242 59Q271 59 289 78T319 121Q297 175 296 246L252 242Q214 239 194 218T174 144Q174 95 193 77T242 59ZM312 595L443 713Q468 737 496 737Q519 737 534 719T550 677Q550 660 540
644T504 621L320 577L312 595Z" />
<glyph unicode="&#x1fe;" glyph-name="Oslashacute" horiz-adv-x="728" d="M149 56Q93 99 60 169T26 338Q26 437 57 506T137 620T247 684T368 705Q414 705 459 695T544 661L589 730H641L580 637Q634 595 668 526T702 354Q702 255 671 185T591 72T481 8T360 -12Q313
-12 269 -2T186 32L123 -64H71L149 56ZM215 359Q215 246 227 176L486 572Q468 621 438 642T362 663Q326 663 299 649T253 600T225 506T215 359ZM366 30Q403 30 430 44T476 92T504 185T513 332Q513 446 500 514L242 118Q259 71 289 51T366 30ZM256 742L403 856Q417
867 428 872T454 877Q477 877 492 858T508 815Q508 797 497 783T459 763L264 724L256 742Z" />
<glyph unicode="&#x1ff;" glyph-name="oslashacute" horiz-adv-x="581" d="M117 40Q72 73 46 127T19 259Q19 331 42 383T104 468T190 517T290 533Q366 533 430 501L485 582H534L465 479Q509 446 535 393T562 264Q562 192 539 140T478 54T391 4T290 -12Q215 -12
153 19L97 -64H47L117 40ZM182 248Q182 216 183 191T187 144L382 430Q368 470 344 482T287 494Q263 494 244 483T210 443T189 367T182 248ZM293 27Q317 27 336 38T370 77T391 155T399 280Q399 309 398 332T394 375L200 88Q213 51 235 39T293 27ZM192 595L323 713Q348
737 376 737Q399 737 414 719T430 677Q430 660 420 644T384 621L200 577L192 595Z" />
<glyph unicode="&#x218;" glyph-name="Scommaaccent" horiz-adv-x="528" d="M240 -12Q170 -12 118 -3T36 20L24 213H56Q77 172 94 143T131 86Q143 69 155 58T181 41T211 33T249 30Q308 30 336 59T364 136Q364 158 358 176T334 210T289 243T216 276Q162 297 126
319T69 369T38 427T29 497Q29 543 47 581T97 646T175 689T277 705Q342 705 383 699T453 681L463 510H432Q422 529 414 544T398 571T382 595T362 620Q352 632 343 640T324 654T299 661T264 664Q212 664 185 640T158 570Q158 549 163 533T182 502T222 473T293 442Q351
419 391 396T456 347T492 289T504 221Q504 173 487 131T436 57T353 7T240 -12ZM425 -226Q452 -220 469 -213T496 -195T509 -174T512 -151Q508 -153 502 -155T487 -158Q461 -158 446 -143T430 -104Q430 -80 450 -63T502 -45Q536 -45 560 -66T584 -126Q584 -148 576
-168T549 -206T502 -235T431 -250L425 -226Z" />
<glyph unicode="&#x219;" glyph-name="scommaaccent" horiz-adv-x="432" d="M188 -12Q144 -12 103 -6T31 9L24 165H52Q68 135 83 112T117 66Q132 47 152 38T204 28Q240 28 263 46T287 99Q287 116 281 129T261 154T224 176T168 200Q100 225 62 262T24 365Q24 401
38 431T79 484T146 520T237 533Q280 533 316 528T374 514L380 378H353Q338 405 325 425T296 462Q279 481 263 487T219 494Q187 494 168 477T148 429Q148 415 152 403T167 380T198 359T247 337Q337 304 375 265T413 167Q413 88 356 38T188 -12ZM383 -226Q410 -220
427 -213T454 -195T467 -174T470 -151Q466 -153 460 -155T445 -158Q419 -158 404 -143T388 -104Q388 -80 408 -63T460 -45Q494 -45 518 -66T542 -126Q542 -148 534 -168T507 -206T460 -235T389 -250L383 -226Z" />
<glyph unicode="&#x237;" glyph-name="uni0237" horiz-adv-x="300" d="M16 -212Q-51 -212 -83 -186T-116 -120Q-116 -91 -98 -76T-51 -61Q-16 -61 0 -78T21 -145Q23 -162 26 -167T37 -172Q74 -172 74 -112V402Q74 418 73 427T68 443T58 455T41 467L8 489V509L227
533L237 526Q235 503 234 475T233 411V7Q233 -47 217 -87T172 -156T103 -198T16 -212Z" />
<glyph unicode="&#x2c6;" glyph-name="circumflex" horiz-adv-x="500" d="M102 588L224 731H275L398 588L387 571L250 630L113 571L102 588Z" />
<glyph unicode="&#x2c7;" glyph-name="caron" horiz-adv-x="500" d="M102 723L113 739L250 680L387 739L398 723L275 579H225L102 723Z" />
<glyph unicode="&#x2d8;" glyph-name="breve" horiz-adv-x="500" d="M252 575Q224 575 202 586T162 618T134 665T118 722L145 730Q160 703 184 687T251 670Q293 670 317 685T357 730L385 722Q380 692 370 665T342 618T303 587T252 575Z" />
<glyph unicode="&#x2d9;" glyph-name="dotaccent" horiz-adv-x="388" d="M191 567Q156 567 132 589T108 644Q108 678 132 699T191 721Q226 721 250 700T274 644Q274 611 250 589T191 567Z" />
<glyph unicode="&#x2da;" glyph-name="ring" horiz-adv-x="500" d="M250 571Q204 571 177 597T150 664Q150 706 178 732T250 758Q293 758 321 732T350 664Q350 624 322 598T250 571ZM250 606Q274 606 289 622T304 664Q304 690 289 706T250 723Q227 723 212 707T196
664Q196 639 211 623T250 606Z" />
<glyph unicode="&#x2db;" glyph-name="ogonek" horiz-adv-x="406" d="M196 -203Q154 -203 127 -183T99 -125Q99 -106 110 -88T138 -55T178 -26T223 0H258Q239 -23 226 -48T213 -102Q213 -135 236 -144Q244 -148 255 -149T289 -151V-174Q278 -182 255 -192T196 -203Z" />
<glyph unicode="&#x2dc;" glyph-name="tilde" horiz-adv-x="500" d="M86 585Q97 613 107 635T128 674T152 698T184 707Q200 707 220 703T260 695T300 687T336 683Q351 683 362 692T388 724L414 710Q403 682 394 660T373 621T349 597T316 588Q299 588 280 591T240
599T200 608T164 612Q148 612 137 603T112 571L86 585Z" />
<glyph unicode="&#x2dd;" glyph-name="hungarumlaut" horiz-adv-x="500" d="M111 589L183 715Q204 755 231 755Q250 755 269 739T289 699Q289 684 280 669T248 641L129 573L111 589ZM280 589L352 715Q373 755 400 755Q410 755 421 750T441 737T455 719T461 698Q461
684 453 672T423 646L298 573L280 589Z" />
</font>
</defs>
</svg>
