<svg xmlns="http://www.w3.org/2000/svg" viewBox="0 0 334.5 334.5"><path d="M332.797 13.7c-1.49-1.307-3.608-1.61-5.404-.777L2.893 163.695c-1.747.812-2.872 2.555-2.893 4.48s1.067 3.694 2.797 4.543l91.833 45.068c1.684.827 3.692.64 5.196-.484l89.287-66.734-70.094 72.1c-1 1.03-1.51 2.438-1.4 3.868l6.978 90.89c.155 2.013 1.505 3.735 3.424 4.366.513.168 1.04.25 1.56.25 1.43 0 2.82-.613 3.787-1.733l48.74-56.483 60.256 28.79c1.308.625 2.822.65 4.15.073 1.33-.58 2.342-1.705 2.776-3.087L334.27 18.956c.594-1.89.015-3.95-1.473-5.257z"/></svg>