<?xml version="1.0" standalone="no"?>
<!DOCTYPE svg PUBLIC "-//W3C//DTD SVG 20010904//EN"
 "http://www.w3.org/TR/2001/REC-SVG-20010904/DTD/svg10.dtd">
<svg version="1.0" xmlns="http://www.w3.org/2000/svg"
 width="700.000000pt" height="700.000000pt" viewBox="0 0 700.000000 700.000000"
 preserveAspectRatio="xMidYMid meet">
<metadata>
Created by potrace 1.11, written by Peter Selinger 2001-2013
</metadata>
<g transform="translate(0.000000,700.000000) scale(0.100000,-0.100000)"
fill="#000000" stroke="none">
<path d="M3075 5883 c-196 -36 -239 -47 -355 -96 -340 -142 -568 -441 -619
-808 -14 -105 -12 -279 6 -379 75 -438 402 -773 843 -866 248 -52 540 -31 759
56 218 85 401 236 518 425 45 73 110 220 114 257 0 4 5 22 10 40 32 107 45
370 24 488 -42 240 -145 434 -312 590 -157 147 -363 242 -620 286 -35 6 -341
12 -368 7z m273 -647 c186 -50 305 -228 296 -445 -12 -273 -186 -451 -428
-439 -185 9 -319 125 -371 322 -14 54 -13 221 2 276 61 222 277 345 501 286z"/>
<path d="M1106 5147 c1 -726 0 -752 -47 -789 -27 -22 -97 -23 -127 -2 -12 8
-32 35 -45 59 l-22 43 -180 -70 c-99 -38 -232 -88 -295 -112 -94 -36 -114 -47
-112 -62 9 -57 85 -183 151 -251 68 -70 179 -151 237 -174 16 -5 42 -16 59
-24 187 -85 513 -77 700 17 79 39 119 69 183 136 82 85 154 230 167 335 3 21
7 42 9 46 15 24 19 212 21 829 l1 702 -351 0 -350 0 1 -683z"/>
<path d="M5673 3489 c-195 -33 -341 -101 -458 -214 -144 -139 -203 -299 -192
-519 10 -199 91 -330 279 -449 52 -33 228 -108 323 -137 83 -25 221 -84 251
-107 60 -45 51 -120 -17 -147 -127 -51 -329 7 -495 141 -23 18 -45 33 -50 32
-5 0 -33 -28 -63 -62 -53 -60 -206 -227 -303 -331 -26 -28 -48 -54 -48 -59 0
-18 145 -113 255 -167 203 -99 378 -141 595 -142 69 -1 143 2 165 6 182 31
305 80 425 169 53 39 149 135 150 149 0 4 6 13 13 20 37 39 93 177 105 258 14
90 5 252 -16 311 -66 185 -237 326 -510 420 -48 16 -95 34 -104 39 -10 6 -23
10 -30 10 -25 0 -196 71 -211 88 -34 38 -21 94 26 118 17 9 62 18 104 20 113
5 245 -46 328 -127 23 -21 44 -39 47 -39 4 0 93 88 200 196 106 108 202 205
213 216 20 19 20 19 -20 54 -243 214 -617 312 -962 253z"/>
<path d="M510 3348 c-1 -121 -1 -1655 0 -1839 l0 -127 330 1 329 0 -4 126
c-22 675 -26 863 -17 857 5 -3 51 -78 102 -168 52 -90 109 -186 127 -215 18
-29 33 -54 33 -57 0 -3 21 -40 46 -83 25 -43 49 -85 54 -93 5 -8 55 -94 111
-191 l103 -177 353 1 c317 0 353 1 354 16 3 58 4 2028 1 2039 -3 9 -78 12
-332 12 l-327 0 2 -82 c2 -46 6 -186 9 -313 14 -503 17 -588 18 -594 0 -3 0
-19 -1 -36 l-1 -30 -25 37 c-14 20 -25 39 -25 42 0 3 -18 35 -40 71 -22 36
-40 67 -40 69 0 2 -54 100 -120 216 -66 117 -120 214 -120 215 0 2 -19 36 -43
77 -24 40 -63 109 -87 153 -24 44 -55 100 -70 125 l-26 45 -347 3 -347 2 0
-102z"/>
<path d="M3319 3257 c-107 -270 -244 -618 -334 -847 -41 -107 -80 -204 -85
-215 -6 -11 -21 -51 -36 -90 -14 -38 -31 -83 -39 -100 -7 -16 -27 -68 -45
-115 -18 -47 -39 -98 -46 -115 -7 -16 -38 -95 -68 -175 -31 -80 -63 -159 -71
-177 -8 -18 -11 -34 -7 -36 4 -3 168 -5 365 -5 253 0 359 3 364 11 4 7 28 75
54 152 l48 140 326 1 c289 1 327 -1 334 -15 5 -9 18 -45 30 -81 12 -36 26 -74
31 -85 4 -11 17 -42 27 -70 l19 -50 372 -1 c205 -1 374 1 376 5 3 4 -13 49
-34 101 -50 125 -233 593 -310 795 -33 88 -65 169 -70 180 -8 17 -109 275
-170 435 -10 25 -48 122 -84 215 -37 94 -81 207 -98 253 l-31 82 -371 0 -371
0 -76 -193z m516 -772 c41 -129 78 -242 81 -250 5 -13 -16 -15 -160 -15 -91 0
-166 3 -166 8 0 11 162 492 165 492 2 0 38 -106 80 -235z"/>
</g>
</svg>
